<?xml version="1.0" standalone="no"?>
<!DOCTYPE svg PUBLIC "-//W3C//DTD SVG 1.1//EN" "http://www.w3.org/Graphics/SVG/1.1/DTD/svg11.dtd" >
<svg xmlns="http://www.w3.org/2000/svg" xmlns:xlink="http://www.w3.org/1999/xlink" version="1.1">
<metadata>
Created by FontForge 20161013 at Fri Jul 11 05:03:59 2014
 By ,,,
Copyright (c) 2010-2012 by The Entente (AS&#38;EH). All rights reserved.
</metadata>
<defs>
<font id="ApercuPro-RegularItalic" horiz-adv-x="560" >
  <font-face 
    font-family="Apercu Pro"
    font-weight="400"
    font-style="italic"
    font-stretch="normal"
    units-per-em="1000"
    panose-1="2 0 5 6 4 0 0 9 0 4"
    ascent="800"
    descent="-200"
    x-height="504"
    cap-height="700"
    bbox="-110 -268 1206 1102"
    underline-thickness="50"
    underline-position="-200"
    unicode-range="U+000D-FB02"
  />
<missing-glyph horiz-adv-x="621" 
d="M524 0h-427v700h427v-700zM181 624v-548h259v548h-259z" />
    <glyph glyph-name="uniFB01" unicode="fi" horiz-adv-x="521" 
d="M115 0h-85l83 428h-76l15 76h76l3 16q17 90 81 139t151 49q81 0 123 -33l-32 -72q-43 29 -106 29q-110 0 -132 -111l-3 -17h258l-98 -504h-85l83 428h-173z" />
    <glyph glyph-name="uniFB02" unicode="fl" horiz-adv-x="590" 
d="M115 0h-85l83 428h-77l15 76h77l5 26q34 178 220 178h202l-137 -708h-85l123 632h-118q-101 0 -120 -101l-5 -27h116l-15 -76h-116z" />
    <glyph glyph-name=".notdef" horiz-adv-x="621" 
d="M524 0h-427v700h427v-700zM181 624v-548h259v548h-259z" />
    <glyph glyph-name="uni0000" horiz-adv-x="0" 
 />
    <glyph glyph-name="uni0000" horiz-adv-x="0" 
 />
    <glyph glyph-name="uni000D" unicode="&#xd;" horiz-adv-x="232" 
 />
    <glyph glyph-name="space" unicode=" " horiz-adv-x="232" 
 />
    <glyph glyph-name="exclam" unicode="!" horiz-adv-x="347" 
d="M60 65q0 30 20 50.5t50 20.5t50 -20.5t20 -50.5q0 -29 -20 -48.5t-50 -19.5t-50 19.5t-20 48.5zM188 200h-66l73 500h114z" />
    <glyph glyph-name="quotedbl" unicode="&#x22;" horiz-adv-x="443" 
d="M192 476h-62l20 232h112zM345 476h-62l20 232h112z" />
    <glyph glyph-name="numbersign" unicode="#" horiz-adv-x="691" 
d="M154 208h-116l8 68h130l49 148h-120l8 68h134l68 208h76l-68 -208h137l68 208h75l-68 -208h117l-8 -68h-131l-49 -148h121l-8 -68h-135l-67 -208h-75l67 208h-137l-66 -208h-77zM301 424l-49 -148h137l49 148h-137z" />
    <glyph glyph-name="dollar" unicode="$" horiz-adv-x="523" 
d="M22 184l80 43q4 -67 36.5 -109t91.5 -42q60 0 100 34t40 97q0 47 -25.5 74t-81.5 54q-63 31 -100 73t-37 106q0 85 48 134t128 58l17 84h80l-18 -90q41 -14 68.5 -45.5t37.5 -70.5l-76 -42q-31 83 -96 83q-47 0 -72 -26t-25 -72q0 -43 26 -68.5t85 -56.5
q47 -25 71.5 -43.5t42.5 -53t18 -82.5q0 -107 -65 -166q-62 -58 -152 -64l-16 -83h-80l17 88q-61 16 -102 68t-41 118z" />
    <glyph glyph-name="percent" unicode="%" horiz-adv-x="878" 
d="M109 -29l-45 44l676 718l46 -43zM77 526q0 82 58 134q51 48 131 48q56 0 95 -38t39 -100q0 -82 -58 -134q-51 -48 -131 -48q-56 0 -95 38t-39 100zM151 536q0 -38 20 -58t52 -20q41 0 70 26q33 31 33 76q0 38 -20 58t-52 20q-41 0 -70 -26q-33 -31 -33 -76zM447 130
q0 82 58 134q51 48 131 48q56 0 95 -38t39 -100q0 -82 -58 -134q-51 -48 -131 -48q-56 0 -95 38t-39 100zM521 140q0 -38 20 -58t52 -20q41 0 70 26q33 31 33 76q0 38 -20 58t-52 20q-41 0 -70 -26q-33 -31 -33 -76z" />
    <glyph glyph-name="ampersand" unicode="&#x26;" horiz-adv-x="621" 
d="M31 171q0 161 185 247q-39 64 -39 119q0 81 48 126t132 45q66 0 102.5 -37.5t36.5 -94.5q0 -61 -46.5 -104.5t-127.5 -81.5l107 -182q23 36 72 122l47 -70q-42 -76 -77 -123l81 -137h-94l-43 74q-46 -43 -93.5 -62.5t-111.5 -19.5q-77 0 -128 49.5t-51 129.5zM115 182
q0 -57 30.5 -85.5t79.5 -28.5q44 0 78.5 17t71.5 56l-124 214q-136 -71 -136 -173zM258 541q0 -45 27 -91q129 56 129 120q0 66 -64 66q-38 0 -65 -24.5t-27 -70.5z" />
    <glyph glyph-name="quotesingle" unicode="'" horiz-adv-x="290" 
d="M192 476h-62l20 232h112z" />
    <glyph glyph-name="parenleft" unicode="(" horiz-adv-x="285" 
d="M50 193q0 327 202 557h89q-100 -123 -151 -257.5t-51 -298.5q0 -141 47 -244h-89q-47 107 -47 243z" />
    <glyph glyph-name="parenright" unicode=")" horiz-adv-x="285" 
d="M24 -50h-89q201 244 201 556q0 141 -47 244h89q47 -107 47 -243q0 -327 -201 -557z" />
    <glyph glyph-name="asterisk" unicode="*" horiz-adv-x="489" 
d="M206 505l-121 43l33 65l123 -43l27 138h68l-27 -138l139 43l13 -64l-143 -44l59 -111l-63 -39l-59 111l-99 -111l-51 39z" />
    <glyph glyph-name="plus" unicode="+" horiz-adv-x="577" 
d="M230 282h-182l15 74h182l35 183h75l-35 -183h182l-15 -74h-182l-35 -183h-75z" />
    <glyph glyph-name="comma" unicode="," horiz-adv-x="329" 
d="M59 -107h-63l102 217h117z" />
    <glyph glyph-name="hyphen" unicode="-" horiz-adv-x="479" 
d="M394 280h-339l15 74h339z" />
    <glyph glyph-name="period" unicode="." horiz-adv-x="275" 
d="M25 59q0 26 18 44.5t45 18.5q26 0 44.5 -18.5t18.5 -44.5q0 -27 -18.5 -45t-44.5 -18q-27 0 -45 18t-18 45z" />
    <glyph glyph-name="slash" unicode="/" horiz-adv-x="495" 
d="M-6 -50h-89l589 800h89z" />
    <glyph glyph-name="zero" unicode="0" 
d="M34 243q0 224 105 358q42 53 92.5 80t123.5 27q92 0 141.5 -63.5t49.5 -187.5q0 -224 -105 -358q-83 -107 -216 -107q-91 0 -141 64t-50 187zM123 254q0 -96 28 -139t86 -43t103 39t69 99t36 120.5t12 115.5q0 96 -28 139t-86 43t-103 -39t-69 -99t-36 -120.5t-12 -115.5
z" />
    <glyph glyph-name="one" unicode="1" 
d="M312 574l-141 -74l18 92l199 108h32l-137 -700h-83z" />
    <glyph glyph-name="two" unicode="2" 
d="M435 0h-415l7 39l322 342q27 28 43 46.5t29.5 47t13.5 56.5q0 97 -90 97q-46 0 -80 -32.5t-50 -87.5l-85 16q21 82 78 133t144 51q78 0 125 -44t47 -111q0 -59 -21.5 -102t-69.5 -94l-260 -277h277z" />
    <glyph glyph-name="three" unicode="3" 
d="M52 184v8l84 11v-6q0 -56 33 -90.5t91 -34.5q145 0 145 173q0 61 -30 92t-85 31q-38 0 -65 -13l-26 47l189 218h-243l15 80h381l-5 -27l-222 -241q7 3 26 3q73 0 113.5 -49t40.5 -139q0 -114 -65 -184.5t-179 -70.5q-88 0 -143 57t-55 135z" />
    <glyph glyph-name="four" unicode="4" 
d="M310 149h-293l7 35l386 516h97l-92 -471h83l-16 -80h-83l-29 -149h-89zM388 554l-241 -325h179z" />
    <glyph glyph-name="five" unicode="5" 
d="M38 173v11l82 15v-8q0 -53 28 -86t80 -33q72 0 117.5 51.5t45.5 134.5q0 66 -27 96t-80 30q-87 0 -156 -78l-53 12l105 382h343l-15 -80h-267l-60 -203q55 47 124 47q81 0 128 -47.5t47 -145.5q0 -126 -70.5 -202.5t-192.5 -76.5q-76 0 -127.5 50.5t-51.5 130.5z" />
    <glyph glyph-name="six" unicode="6" 
d="M44 178q0 93 66 182l266 348h102l-204 -267q15 7 36 7q79 0 127 -48t48 -140q0 -117 -72.5 -192.5t-188.5 -75.5q-85 0 -132.5 51t-47.5 135zM133 191q0 -119 103 -119q69 0 114.5 51.5t45.5 124.5q0 60 -29 90.5t-79 30.5q-69 0 -112 -53t-43 -125z" />
    <glyph glyph-name="seven" unicode="7" 
d="M165 0h-91l374 620h-286l16 80h393l-8 -37z" />
    <glyph glyph-name="eight" unicode="8" 
d="M42 171q0 69 36.5 122.5t105.5 83.5q-55 41 -55 121q0 97 72 157q62 53 160 53q77 0 120 -44t43 -117q0 -61 -32 -105t-86 -67q33 -17 55.5 -54t22.5 -90q0 -108 -63 -171q-68 -68 -194 -68q-79 0 -132 50t-53 129zM131 185q0 -53 29.5 -83t80.5 -30q67 0 110.5 40.5
t43.5 107.5q0 52 -27 81t-80 29q-65 0 -111 -41.5t-46 -103.5zM214 503q0 -43 24 -68t65 -25q54 0 95 35t41 90q0 97 -93 97q-55 0 -93.5 -37t-38.5 -92z" />
    <glyph glyph-name="nine" unicode="9" 
d="M88 440q0 117 72.5 192.5t188.5 75.5q85 0 132.5 -51t47.5 -135q0 -93 -66 -182l-266 -348h-102l204 267q-15 -7 -36 -7q-79 0 -127 48t-48 140zM177 452q0 -60 29 -90.5t79 -30.5q69 0 112 53t43 125q0 119 -103 119q-69 0 -114.5 -51.5t-45.5 -124.5z" />
    <glyph glyph-name="colon" unicode=":" horiz-adv-x="297" 
d="M40 59q0 26 18 44.5t45 18.5q26 0 44.5 -18.5t18.5 -44.5q0 -27 -18.5 -45t-44.5 -18q-27 0 -45 18t-18 45zM106 403q0 26 18 44.5t45 18.5q26 0 44.5 -18.5t18.5 -44.5q0 -27 -18.5 -45t-44.5 -18q-27 0 -45 18t-18 45z" />
    <glyph glyph-name="semicolon" unicode=";" horiz-adv-x="297" 
d="M29 -107h-63l102 217h117zM106 403q0 26 18 44.5t45 18.5q26 0 44.5 -18.5t18.5 -44.5q0 -27 -18.5 -45t-44.5 -18q-27 0 -45 18t-18 45z" />
    <glyph glyph-name="less" unicode="&#x3c;" horiz-adv-x="457" 
d="M387 80l-349 186v88l349 186v-87l-267 -143l267 -143v-87z" />
    <glyph glyph-name="equal" unicode="=" horiz-adv-x="581" 
d="M481 190h-399v74h399v-74zM481 356h-399v74h399v-74z" />
    <glyph glyph-name="greater" unicode="&#x3e;" horiz-adv-x="457" 
d="M419 266l-349 -186v87l267 143l-267 143v87l349 -186v-88z" />
    <glyph glyph-name="question" unicode="?" horiz-adv-x="445" 
d="M76 315q0 52 28.5 83t83.5 55l98 43q29 14 45 31t16 46q0 31 -21 48t-53 17q-76 0 -116 -97l-77 21q23 66 75.5 106t127.5 40q68 0 107.5 -35t39.5 -95q0 -50 -25 -81t-73 -54l-119 -57q-30 -15 -45.5 -30t-15.5 -40q0 -22 13 -33.5t32 -11.5q27 0 43.5 16t35.5 49
l65 -29q-32 -61 -63.5 -83.5t-81.5 -22.5q-54 0 -87 31.5t-33 82.5zM91 63q0 29 19 48.5t47 19.5q29 0 48.5 -19.5t19.5 -48.5q0 -28 -19.5 -47t-48.5 -19q-28 0 -47 19t-19 47z" />
    <glyph glyph-name="at" unicode="@" horiz-adv-x="906" 
d="M60 262q0 209 124 332.5t329 123.5q147 0 240.5 -84.5t93.5 -235.5q0 -58 -11 -108t-33.5 -92t-62.5 -66t-93 -24q-40 0 -68 19.5t-38 48.5q-54 -68 -146 -68q-74 0 -115 47t-41 122q0 106 62 172.5t171 66.5q85 0 116 -57l17 50h65l-54 -252q-6 -22 -6 -33q0 -44 42 -44
q39 0 65.5 31.5t36.5 76.5t10 101q0 126 -67.5 191.5t-196.5 65.5q-158 0 -256 -104t-98 -274q0 -135 81 -212.5t207 -77.5q130 0 262 65l21 -70q-86 -37 -148 -52t-143 -15q-162 0 -264 98t-102 258zM322 283q0 -47 23 -75t67 -28q61 0 101 48t40 112q0 104 -88 104
q-63 0 -103 -47t-40 -114z" />
    <glyph glyph-name="A" unicode="A" horiz-adv-x="574" 
d="M32 0h-89l372 700h85l106 -700h-89l-25 187h-261zM335 586l-160 -315h205z" />
    <glyph glyph-name="B" unicode="B" horiz-adv-x="609" 
d="M282 0h-247l137 700h222q84 0 128.5 -40.5t44.5 -115.5q0 -58 -30 -100t-81 -63q89 -42 89 -142q0 -115 -73.5 -177t-189.5 -62zM189 331l-48 -247h145q75 0 121 35.5t46 102.5q0 54 -31 81.5t-88 27.5h-145zM244 616l-39 -201h140q55 0 94 28.5t39 84.5q0 88 -96 88
h-138z" />
    <glyph glyph-name="C" unicode="C" horiz-adv-x="662" 
d="M39 272q0 113 45 211t135 161.5t208 63.5q99 0 160 -62t67 -150l-85 -23q-24 151 -158 151q-88 0 -153.5 -51.5t-96 -127.5t-30.5 -163q0 -100 43.5 -153t129.5 -53q69 0 119 35.5t94 117.5l78 -25q-98 -212 -302 -212q-114 0 -184 73t-70 207z" />
    <glyph glyph-name="D" unicode="D" horiz-adv-x="669" 
d="M229 0h-194l137 700h180q126 0 201 -71.5t75 -207.5q0 -179 -111 -300t-288 -121zM244 616l-103 -532h89q138 0 220.5 93.5t82.5 234.5q0 204 -200 204h-89z" />
    <glyph glyph-name="E" unicode="E" horiz-adv-x="563" 
d="M441 0h-406l137 700h396l-17 -84h-307l-39 -201h250l-16 -84h-250l-48 -247h317z" />
    <glyph glyph-name="F" unicode="F" horiz-adv-x="551" 
d="M124 0h-89l137 700h399l-17 -84h-310l-40 -209h250l-17 -84h-250z" />
    <glyph glyph-name="G" unicode="G" horiz-adv-x="698" 
d="M39 277q0 114 44.5 211t134.5 158.5t208 61.5q100 0 162 -59t68 -152l-88 -23q-20 150 -158 150q-124 0 -201.5 -99t-77.5 -235q0 -105 44 -159.5t128 -54.5q82 0 140.5 52t83.5 141h-144l16 84h236l-69 -353h-76l9 96q-42 -55 -92 -79.5t-121 -24.5q-102 0 -174.5 73.5
t-72.5 211.5z" />
    <glyph glyph-name="H" unicode="H" horiz-adv-x="695" 
d="M124 0h-89l137 700h89l-56 -286h310l56 286h89l-137 -700h-89l65 330h-310z" />
    <glyph glyph-name="I" unicode="I" horiz-adv-x="296" 
d="M124 0h-89l137 700h89z" />
    <glyph glyph-name="J" unicode="J" horiz-adv-x="541" 
d="M5 175l89 19q0 -118 99 -118q108 0 136 143l93 481h89l-100 -515q-18 -96 -78 -144.5t-150 -48.5q-80 0 -129 55t-49 128z" />
    <glyph glyph-name="K" unicode="K" horiz-adv-x="597" 
d="M124 0h-89l137 700h89l-55 -281l298 281h120l-341 -318l224 -382h-108l-206 353z" />
    <glyph glyph-name="L" unicode="L" horiz-adv-x="506" 
d="M432 0h-397l137 700h89l-120 -616h308z" />
    <glyph glyph-name="M" unicode="M" horiz-adv-x="790" 
d="M124 0h-89l137 700h104l92 -493l279 493h108l-137 -700h-89l100 510l-254 -446h-66l-85 446z" />
    <glyph glyph-name="N" unicode="N" horiz-adv-x="706" 
d="M124 0h-89l137 700h99l204 -547l107 547h89l-137 -700h-99l-205 545z" />
    <glyph glyph-name="O" unicode="O" horiz-adv-x="713" 
d="M39 275q0 217 151 348q98 85 235 85q110 0 178.5 -75.5t68.5 -207.5q0 -217 -151 -348q-98 -85 -235 -85q-110 0 -178.5 75.5t-68.5 207.5zM131 283q0 -101 43.5 -154t126.5 -53q104 0 181 82q98 104 98 259q0 101 -43.5 154t-126.5 53q-104 0 -181 -82
q-98 -104 -98 -259z" />
    <glyph glyph-name="P" unicode="P" horiz-adv-x="584" 
d="M124 0h-89l137 700h224q85 0 136 -44.5t51 -121.5q0 -114 -69.5 -174t-188.5 -60h-142zM244 616l-45 -232h153q62 0 100 35t38 99q0 98 -100 98h-146z" />
    <glyph glyph-name="Q" unicode="Q" horiz-adv-x="713" 
d="M39 275q0 217 151 348q98 85 235 85q110 0 178.5 -75.5t68.5 -207.5q0 -186 -112 -310l52 -64l-71 -59l-50 61q-85 -61 -205 -61q-110 0 -178.5 75.5t-68.5 207.5zM131 283q0 -101 43.5 -154t126.5 -53q76 0 137 43l-65 81l72 59l59 -74q76 101 76 232q0 101 -43.5 154
t-126.5 53q-104 0 -181 -82q-98 -104 -98 -259z" />
    <glyph glyph-name="R" unicode="R" horiz-adv-x="596" 
d="M124 0h-89l137 700h222q84 0 131 -42t47 -115q0 -87 -49 -141.5t-136 -65.5l143 -336h-99l-139 330h-103zM244 616l-39 -202h139q64 0 100 28.5t36 84.5q0 89 -100 89h-136z" />
    <glyph glyph-name="S" unicode="S" horiz-adv-x="523" 
d="M22 184l80 43q4 -67 36.5 -109t91.5 -42q60 0 100 34t40 97q0 47 -25.5 74t-81.5 54q-63 31 -100 73t-37 106q0 92 57 143t148 51q60 0 101.5 -36.5t54.5 -87.5l-76 -42q-17 44 -40 63t-56 19q-47 0 -72 -25.5t-25 -71.5q0 -43 26 -68.5t85 -56.5q71 -38 102 -74t31 -105
q0 -106 -66 -166q-40 -37 -82.5 -51t-102.5 -14q-75 0 -132 56.5t-57 135.5z" />
    <glyph glyph-name="T" unicode="T" horiz-adv-x="507" 
d="M258 616h-197l17 84h483l-17 -84h-197l-120 -616h-89z" />
    <glyph glyph-name="U" unicode="U" horiz-adv-x="672" 
d="M70 171q0 35 6 67l89 462h89l-91 -468q-4 -17 -4 -40q0 -116 122 -116q77 0 124.5 40.5t61.5 115.5l91 468h89l-89 -462q-47 -246 -288 -246q-90 0 -145 49.5t-55 129.5z" />
    <glyph glyph-name="V" unicode="V" horiz-adv-x="558" 
d="M158 0l-97 700h93l72 -575l300 575h95l-374 -700h-89z" />
    <glyph glyph-name="W" unicode="W" horiz-adv-x="886" 
d="M142 0l-52 700h93l28 -570l233 496h83l50 -496l249 570h94l-319 -700h-89l-55 480l-226 -480h-89z" />
    <glyph glyph-name="X" unicode="X" horiz-adv-x="531" 
d="M47 0h-101l291 384l-118 316h94l86 -234l177 234h98l-243 -321l142 -379h-92l-112 297z" />
    <glyph glyph-name="Y" unicode="Y" horiz-adv-x="484" 
d="M182 302l-126 398h94l91 -310l210 310h99l-279 -398l-59 -302h-89z" />
    <glyph glyph-name="Z" unicode="Z" horiz-adv-x="550" 
d="M434 0h-455l8 42l424 574h-310l17 84h435l-9 -42l-424 -574h331z" />
    <glyph glyph-name="bracketleft" unicode="[" horiz-adv-x="321" 
d="M210 -50h-188l154 800h189l-15 -76h-108l-125 -648h108z" />
    <glyph glyph-name="backslash" unicode="\" horiz-adv-x="495" 
d="M350 -50l-281 800h84l281 -800h-84z" />
    <glyph glyph-name="bracketright" unicode="]" horiz-adv-x="321" 
d="M145 -50h-188l14 76h108l125 648h-108l15 76h189z" />
    <glyph glyph-name="asciicircum" unicode="^" horiz-adv-x="568" 
d="M153 421h-83l186 279h68l186 -279h-83l-137 203z" />
    <glyph glyph-name="underscore" unicode="_" horiz-adv-x="453" 
d="M355 -74h-399l15 74h399z" />
    <glyph glyph-name="grave" unicode="`" horiz-adv-x="206" 
d="M156 560l-101 144h121l48 -144h-68z" />
    <glyph glyph-name="a" unicode="a" horiz-adv-x="586" 
d="M27 197q0 85 30 155t93 115t150 45q50 0 86.5 -21.5t47.5 -46.5l11 60h85l-97 -504h-85l12 62q-63 -70 -149 -70q-91 0 -137.5 57t-46.5 148zM116 220q0 -70 31.5 -111t87.5 -41q58 0 99 38.5t58 90t17 107.5q0 61 -30 96.5t-86 35.5q-58 0 -99.5 -34t-59.5 -81.5
t-18 -100.5z" />
    <glyph glyph-name="b" unicode="b" horiz-adv-x="596" 
d="M115 0h-85l138 708h85l-51 -264q24 28 64.5 48t85.5 20q82 0 130.5 -53.5t48.5 -158.5q0 -130 -70 -219t-201 -89q-41 0 -80.5 21.5t-51.5 48.5zM152 211q0 -70 31 -106.5t84 -36.5q82 0 128.5 66t46.5 154q0 148 -113 148q-75 0 -126 -69t-51 -156z" />
    <glyph glyph-name="c" unicode="c" horiz-adv-x="540" 
d="M27 203q0 78 31.5 147t99 115.5t156.5 46.5q146 0 181 -140l-76 -29q-25 93 -120 93q-81 0 -132 -66.5t-51 -157.5q0 -68 30.5 -106t82.5 -38q49 0 84 24.5t67 77.5l71 -37q-50 -80 -103.5 -110.5t-133.5 -30.5q-86 0 -136.5 58t-50.5 153z" />
    <glyph glyph-name="d" unicode="d" horiz-adv-x="612" 
d="M27 186q0 134 75 230t200 96q47 0 84 -19t55 -49l51 264h85l-138 -708h-85l13 62q-63 -70 -158 -70q-87 0 -134.5 52.5t-47.5 141.5zM116 208q0 -65 30 -102.5t86 -37.5q58 0 102 39.5t63 92t19 106.5q0 64 -32.5 97t-88.5 33q-57 0 -99.5 -37t-61 -87.5t-18.5 -103.5z
" />
    <glyph glyph-name="e" unicode="e" horiz-adv-x="562" 
d="M25 204q0 119 84 213.5t208 94.5q86 0 136 -51t50 -138q0 -21 -5 -50l-8 -39h-373q-3 -20 -3 -36q0 -61 30 -95.5t87 -34.5q53 0 89 24t68 75l72 -35q-51 -75 -107 -107.5t-137 -32.5q-87 0 -139 58.5t-52 153.5zM136 310h278q0 126 -112 126q-55 0 -99.5 -34.5
t-66.5 -91.5z" />
    <glyph glyph-name="f" unicode="f" horiz-adv-x="339" 
d="M115 0h-85l83 428h-72l15 76h72l6 33q17 90 62 130.5t125 40.5q38 0 72 -18l-31 -72q-26 14 -53 14q-37 0 -57.5 -20t-30.5 -68l-8 -40h112l-15 -76h-112z" />
    <glyph glyph-name="g" unicode="g" horiz-adv-x="510" 
d="M-23 -68q0 74 66 127q-21 24 -21 63q0 70 84 113q-22 35 -22 76q0 88 56 144.5t149 56.5q53 0 91 -23l94 48l30 -66l-75 -38q11 -25 11 -64q0 -85 -59 -140t-147 -55q-43 0 -81 20q-47 -18 -47 -55q0 -16 12 -27t33 -11h115q141 0 141 -121q0 -94 -72.5 -143t-177.5 -49
q-78 0 -129 39.5t-51 104.5zM62 -50q0 -38 27 -64t83 -26q59 0 102.5 25t43.5 80q0 64 -77 64h-97q-14 0 -36 2q-46 -24 -46 -81zM168 326q0 -40 21 -60t56 -20q47 0 79 30.5t32 80.5q0 41 -21 62t-56 21q-46 0 -78.5 -32.5t-32.5 -81.5z" />
    <glyph glyph-name="h" unicode="h" horiz-adv-x="584" 
d="M115 0h-85l137 708h85l-58 -298q74 102 190 102q56 0 89.5 -29t33.5 -83q0 -18 -5 -50l-68 -350h-85l64 333q3 12 3 36q0 67 -69 67q-57 0 -114.5 -61.5t-76.5 -160.5z" />
    <glyph glyph-name="i" unicode="i" horiz-adv-x="276" 
d="M115 0h-85l98 504h85zM132 644q0 27 18 45.5t45 18.5t45 -18.5t18 -45.5q0 -26 -18 -44t-45 -18t-45 18t-18 44z" />
    <glyph glyph-name="j" unicode="j" horiz-adv-x="276" 
d="M-80 -212l-8 82q51 13 77.5 36t37.5 76l101 522h85l-103 -530q-18 -89 -62.5 -131.5t-127.5 -54.5zM132 644q0 27 18 45.5t45 18.5t45 -18.5t18 -45.5q0 -26 -18 -44t-45 -18t-45 18t-18 44z" />
    <glyph glyph-name="k" unicode="k" horiz-adv-x="508" 
d="M115 0h-85l137 708h85l-80 -415l216 211h115l-249 -236l171 -268h-103l-158 253z" />
    <glyph glyph-name="l" unicode="l" horiz-adv-x="306" 
d="M134 0h-85l137 708h85z" />
    <glyph glyph-name="m" unicode="m" horiz-adv-x="856" 
d="M115 0h-85l98 504h85l-18 -93q69 101 171 101q53 0 83 -28t33 -77q75 105 179 105q117 0 117 -113q0 -23 -4 -44l-69 -355h-85l65 337q4 16 4 38q0 61 -64 61q-52 0 -103 -62t-72 -167l-40 -207h-85l65 337q3 12 3 38q0 61 -63 61q-52 0 -103 -62t-72 -167z" />
    <glyph glyph-name="n" unicode="n" horiz-adv-x="577" 
d="M115 0h-85l98 504h85l-18 -93q76 101 182 101q58 0 90 -28.5t32 -81.5q0 -32 -3 -47l-69 -355h-85l64 333q4 16 4 35q0 68 -67 68q-54 0 -111 -63t-76 -162z" />
    <glyph glyph-name="o" unicode="o" horiz-adv-x="573" 
d="M27 204q0 124 69 210q78 98 213 98q93 0 146 -55.5t53 -156.5q0 -124 -69 -210q-78 -98 -213 -98q-93 0 -146 55.5t-53 156.5zM116 216q0 -71 29.5 -109.5t88.5 -38.5q86 0 140 71q45 59 45 149q0 71 -29.5 109.5t-88.5 38.5q-86 0 -140 -71q-45 -59 -45 -149z" />
    <glyph glyph-name="p" unicode="p" horiz-adv-x="605" 
d="M75 -204h-85l138 708h85l-13 -62q61 70 158 70q87 0 134.5 -51.5t47.5 -142.5q0 -134 -75 -230t-200 -96q-95 0 -139 68zM151 198q0 -130 121 -130q57 0 99.5 37t61 87.5t18.5 103.5q0 65 -30 102.5t-86 37.5q-58 0 -102 -39.5t-63 -92t-19 -106.5z" />
    <glyph glyph-name="q" unicode="q" horiz-adv-x="578" 
d="M27 204q0 130 70 219t201 89q41 0 80.5 -21.5t51.5 -48.5l13 62h85l-138 -708h-85l51 264q-24 -28 -64.5 -48t-85.5 -20q-82 0 -130.5 53.5t-48.5 158.5zM116 216q0 -148 113 -148q75 0 126 69t51 156q0 70 -31 106.5t-84 36.5q-82 0 -128.5 -66t-46.5 -154z" />
    <glyph glyph-name="r" unicode="r" horiz-adv-x="437" 
d="M115 0h-85l98 504h85l-17 -86q59 94 163 94q45 0 69 -15l-31 -75q-26 14 -53 14q-55 0 -109 -51t-76 -162z" />
    <glyph glyph-name="s" unicode="s" horiz-adv-x="460" 
d="M16 135l74 36q21 -103 114 -103q38 0 60.5 20.5t22.5 53.5q0 35 -21 53t-71 39q-99 43 -99 134q0 68 44 106t119 38q48 0 86.5 -22.5t58.5 -61.5l-66 -49q-38 57 -89 57q-29 0 -48.5 -17t-19.5 -46q0 -27 18 -43.5t51 -31.5q27 -11 44.5 -21t39 -26.5t32 -39.5t10.5 -53
q0 -77 -51 -121.5t-131 -44.5q-74 0 -121.5 42.5t-56.5 100.5z" />
    <glyph glyph-name="t" unicode="t" horiz-adv-x="350" 
d="M116 428h-87l14 76h87l30 151l94 53l-40 -204h127l-14 -76h-127l-52 -268q-5 -18 -5 -36q0 -56 54 -56q32 0 60 16l6 -73q-34 -19 -86 -19q-57 0 -88 30t-31 87q0 14 7 58z" />
    <glyph glyph-name="u" unicode="u" horiz-adv-x="577" 
d="M52 102q0 32 3 47l69 355h85l-64 -333q-4 -16 -4 -35q0 -68 67 -68q54 0 111.5 63t75.5 162l41 211h85l-98 -504h-85l18 93q-76 -101 -182 -101q-58 0 -90 28.5t-32 81.5z" />
    <glyph glyph-name="v" unicode="v" horiz-adv-x="439" 
d="M99 0l-71 504h85l47 -397l200 397h89l-261 -504h-89z" />
    <glyph glyph-name="w" unicode="w" horiz-adv-x="723" 
d="M113 0l-58 504h86l31 -391l173 391h86l19 -391l176 391h89l-245 -504h-82l-22 381l-171 -381h-82z" />
    <glyph glyph-name="x" unicode="x" horiz-adv-x="462" 
d="M65 0h-101l215 275l-98 229h92l67 -160l126 160h98l-192 -238l107 -266h-89l-76 190z" />
    <glyph glyph-name="y" unicode="y" horiz-adv-x="466" 
d="M86 -204h-89l125 236l-81 472h89l58 -364l194 364h89z" />
    <glyph glyph-name="z" unicode="z" horiz-adv-x="468" 
d="M360 0h-365l7 36l307 392h-227l14 76h347l-7 -36l-310 -392h248z" />
    <glyph glyph-name="braceleft" unicode="{" horiz-adv-x="315" 
d="M33 312l15 76q45 0 65.5 17.5t29.5 62.5l36 182q9 47 39.5 73.5t80.5 26.5h48l-15 -76h-23q-24 0 -36 -10.5t-17 -34.5l-35 -181q-9 -47 -31.5 -68.5t-57.5 -29.5q26 -7 39.5 -21.5t13.5 -44.5q0 -14 -3 -32l-35 -181q-2 -14 -2 -15q0 -16 8 -23t31 -7h23l-15 -76h-48
q-41 0 -62.5 20.5t-21.5 57.5q0 6 2 22l36 182q4 16 4 31q0 27 -16 38t-53 11z" />
    <glyph glyph-name="bar" unicode="|" horiz-adv-x="245" 
d="M180 -50h-80v800h80v-800z" />
    <glyph glyph-name="braceright" unicode="}" horiz-adv-x="315" 
d="M15 -50h-47l14 76h23q24 0 36 10.5t17 34.5l35 181q10 48 31.5 68.5t58.5 29.5q-54 14 -54 65q0 15 3 33l35 181q2 14 2 15q0 16 -9 23t-30 7h-23l15 76h48q83 0 83 -77v-10q0 -3 -2 -13l-36 -182q-4 -16 -4 -31q0 -27 16 -38t53 -11l-15 -76q-45 0 -66 -17.5t-29 -62.5
l-36 -182q-9 -48 -40 -74t-79 -26z" />
    <glyph glyph-name="asciitilde" unicode="~" horiz-adv-x="627" 
d="M100 268l-40 54q63 85 149 85q44 0 96.5 -25t86.5 -25q54 0 101 45l40 -55q-61 -84 -149 -84q-44 0 -96.5 25t-86.5 25q-54 0 -101 -45z" />
    <glyph glyph-name="uni00A0" unicode="&#xa0;" horiz-adv-x="232" 
 />
    <glyph glyph-name="exclamdown" unicode="&#xa1;" horiz-adv-x="347" 
d="M259 429q0 -30 -20 -50.5t-50 -20.5t-50 20.5t-20 50.5q0 29 20 48.5t50 19.5t50 -19.5t20 -48.5zM131 294h66l-73 -500h-114z" />
    <glyph glyph-name="cent" unicode="&#xa2;" horiz-adv-x="553" 
d="M59 301q0 111 65.5 200t177.5 106l28 143h81l-27 -143q114 -16 144 -137l-76 -29q-25 93 -120 93q-81 0 -132.5 -66.5t-51.5 -157.5q0 -68 31 -106t83 -38q49 0 84 24.5t67 77.5l71 -37q-45 -70 -92 -102t-109 -38l-27 -141h-81l28 144q-67 14 -105.5 69.5t-38.5 137.5z
" />
    <glyph glyph-name="sterling" unicode="&#xa3;" horiz-adv-x="562" 
d="M35 -8l-44 62q33 28 55.5 49.5t47 52.5t37 66.5t12.5 74.5v13q0 9 -1 14h-80l16 80h53l-3 32v20q-1 6 -1 15q0 111 63.5 174t174.5 63q63 0 110 -39.5t57 -98.5l-78 -31q-14 48 -38 68.5t-66 20.5q-68 0 -104 -46t-36 -126q0 -40 3 -52h169l-16 -80h-143v-20
q0 -73 -27.5 -117.5t-86.5 -96.5q36 21 88 21q28 0 63 -19.5t52 -19.5q28 0 48 16t55 60l57 -52q-42 -58 -81 -81t-89 -23q-40 0 -78.5 20t-67.5 20q-60 0 -121 -40z" />
    <glyph glyph-name="currency" unicode="&#xa4;" horiz-adv-x="569" 
d="M87 56l-69 69l88 67q-35 49 -35 115t35 115l-88 67l69 69l67 -87q51 38 115 38t115 -38l67 87l69 -69l-88 -67q35 -49 35 -115t-35 -115l88 -67l-69 -69l-67 87q-51 -38 -115 -38t-115 38zM152 307q0 -57 31.5 -91.5t85.5 -34.5t85.5 34.5t31.5 91.5t-31.5 91.5
t-85.5 34.5t-85.5 -34.5t-31.5 -91.5z" />
    <glyph glyph-name="yen" unicode="&#xa5;" horiz-adv-x="561" 
d="M212 147h-156l16 80h156l15 80h-156l16 80h119l-97 313h96l82 -302l203 302h100l-218 -313h116l-16 -80h-156l-15 -80h156l-16 -80h-156l-29 -147h-89z" />
    <glyph glyph-name="brokenbar" unicode="&#xa6;" horiz-adv-x="245" 
d="M180 -50h-80v349h80v-349zM180 401h-80v349h80v-349z" />
    <glyph glyph-name="section" unicode="&#xa7;" horiz-adv-x="568" 
d="M24 -64l80 23q5 -47 27.5 -69t66.5 -22q46 0 76 27.5t30 74.5q0 29 -7 49t-24 35t-33 24t-45 23.5t-49 26.5q-83 46 -83 132q0 101 114 154q-33 45 -33 95q0 87 58 143t153 56q67 0 110.5 -40t47.5 -108l-80 -23q-5 47 -27.5 69t-66.5 22q-46 0 -76 -27.5t-30 -74.5
q0 -29 7 -49t24.5 -35.5t32 -24t45.5 -24t49 -25.5q42 -25 63.5 -54.5t21.5 -77.5q0 -102 -116 -154q33 -45 33 -95q0 -87 -58 -143t-153 -56q-67 0 -110.5 40t-47.5 108zM143 272q0 -23 9.5 -41t28.5 -31t37.5 -23t45.5 -23t45 -25q85 31 85 95q0 23 -9.5 41t-28.5 31
t-37.5 23t-45.5 23t-45 25q-85 -31 -85 -95z" />
    <glyph glyph-name="dieresis" unicode="&#xa8;" horiz-adv-x="302" 
d="M58 651q0 24 16.5 40.5t39.5 16.5q25 0 41 -16.5t16 -40.5t-16 -40t-41 -16q-23 0 -39.5 16t-16.5 40zM224 651q0 24 16.5 40.5t39.5 16.5q25 0 41 -16.5t16 -40.5t-16 -40t-41 -16q-23 0 -39.5 16t-16.5 40z" />
    <glyph glyph-name="copyright" unicode="&#xa9;" horiz-adv-x="900" 
d="M70 350q0 167 108 278.5t272 111.5t272 -111.5t108 -278.5t-108 -278.5t-272 -111.5t-272 111.5t-108 278.5zM150 350q0 -134 83 -224t217 -90t217 90t83 224t-83 224t-217 90t-217 -90t-83 -224zM254 350q0 105 59 160.5t137 55.5q65 0 113 -35t60 -96l-70 -17
q-24 78 -103 78q-53 0 -86.5 -36t-33.5 -110t33.5 -110t86.5 -36q79 0 103 78l70 -17q-12 -61 -60 -96t-113 -35q-78 0 -137 55.5t-59 160.5z" />
    <glyph glyph-name="ordfeminine" unicode="&#xaa;" horiz-adv-x="420" 
d="M58 414q0 65 51.5 97.5t142.5 32.5h50v18q0 80 -84 80q-65 0 -81 -61l-65 16q13 51 50.5 79t95.5 28q155 0 155 -143v-261h-56l-11 54q-41 -58 -123 -58q-56 0 -90.5 29.5t-34.5 88.5zM131 414q0 -57 62 -57q42 0 75.5 28t33.5 83v18h-41q-130 0 -130 -72z" />
    <glyph glyph-name="guillemotleft" unicode="&#xab;" horiz-adv-x="616" 
d="M274 80l-239 199l13 62l316 204l-21 -107l-222 -135l170 -135zM504 80l-239 199l13 62l316 204l-21 -107l-222 -135l170 -135z" />
    <glyph glyph-name="logicalnot" unicode="&#xac;" horiz-adv-x="542" 
d="M391 313h-349v76h433v-247h-84v171z" />
    <glyph glyph-name="uni00AD" unicode="&#xad;" horiz-adv-x="479" 
d="M394 280h-339l15 74h339z" />
    <glyph glyph-name="registered" unicode="&#xae;" horiz-adv-x="900" 
d="M70 350q0 167 108 278.5t272 111.5t272 -111.5t108 -278.5t-108 -278.5t-272 -111.5t-272 111.5t-108 278.5zM150 350q0 -134 83 -224t217 -90t217 90t83 224t-83 224t-217 90t-217 -90t-83 -224zM382 137h-72v426h153q64 0 98 -33t34 -89q0 -46 -26 -78t-68 -40
l127 -186h-82l-126 182h-38v-182zM382 493v-104h80q61 0 61 52t-61 52h-80z" />
    <glyph glyph-name="overscore" unicode="&#xaf;" horiz-adv-x="286" 
d="M316 632h-249l15 76h249z" />
    <glyph glyph-name="degree" unicode="&#xb0;" horiz-adv-x="351" 
d="M100 593q0 48 31.5 79.5t80.5 31.5t80.5 -31.5t31.5 -79.5t-31.5 -79.5t-80.5 -31.5t-80.5 31.5t-31.5 79.5zM164 593q0 -22 12.5 -35.5t35.5 -13.5t35.5 13.5t12.5 35.5t-12.5 35.5t-35.5 13.5t-35.5 -13.5t-12.5 -35.5z" />
    <glyph glyph-name="plusminus" unicode="&#xb1;" horiz-adv-x="572" 
d="M506 0h-440v74h440v-74zM249 362h-183v74h183v183h74v-183h183v-74h-183v-183h-74v183z" />
    <glyph glyph-name="uni00B2" unicode="&#xb2;" horiz-adv-x="447" 
d="M335 300h-255l5 25l179 184q18 18 26.5 28t16 26t7.5 34q0 47 -45 47q-24 0 -43.5 -18.5t-28.5 -50.5l-61 17q13 52 50.5 82t91.5 30q46 0 74.5 -25t28.5 -66t-12.5 -69t-47.5 -63l-120 -121h146z" />
    <glyph glyph-name="uni00B3" unicode="&#xb3;" horiz-adv-x="429" 
d="M96 415l66 9q0 -33 16 -50.5t43 -17.5q36 0 57.5 24.5t21.5 63.5q0 58 -54 58q-21 0 -39 -11l-23 41l99 108h-128l12 60h227l-5 -23l-118 -126q45 0 70.5 -26.5t25.5 -73.5q0 -69 -44 -112t-113 -43q-53 0 -83.5 32.5t-30.5 86.5z" />
    <glyph glyph-name="acute" unicode="&#xb4;" horiz-adv-x="210" 
d="M120 560h-72l97 144h123z" />
    <glyph glyph-name="uni00B5" unicode="&#xb5;" horiz-adv-x="578" 
d="M159 -204h-84v708h84v-333q0 -103 87 -103q59 0 101.5 62t42.5 163v211h84v-504h-84v93q-57 -101 -167 -101q-34 0 -64 11v-207z" />
    <glyph glyph-name="paragraph" unicode="&#xb6;" horiz-adv-x="686" 
d="M80 480q0 104 67.5 162t166.5 58h351l-14 -76h-62l-161 -828h-85l161 828h-119l-161 -828h-85l100 518q-67 0 -113 47.5t-46 118.5z" />
    <glyph glyph-name="middot" unicode="&#xb7;" horiz-adv-x="275" 
d="M80 349q0 26 18 44.5t45 18.5q26 0 44.5 -18.5t18.5 -44.5q0 -27 -18.5 -45t-44.5 -18q-27 0 -45 18t-18 45z" />
    <glyph glyph-name="cedilla" unicode="&#xb8;" horiz-adv-x="188" 
d="M29 -235l-89 45l126 130h74z" />
    <glyph glyph-name="uni00B9" unicode="&#xb9;" horiz-adv-x="332" 
d="M190 607l-94 -41l14 73l137 61h25l-77 -400h-65z" />
    <glyph glyph-name="ordmasculine" unicode="&#xba;" horiz-adv-x="420" 
d="M38 500q0 85 51.5 144.5t140.5 59.5q88 0 140 -60t52 -144q0 -85 -52 -144.5t-140 -59.5q-89 0 -140.5 59.5t-51.5 144.5zM111 500q0 -62 30.5 -102t88.5 -40t88 40t30 102t-30 102.5t-88 40.5t-88.5 -40.5t-30.5 -102.5z" />
    <glyph glyph-name="guillemotright" unicode="&#xbb;" horiz-adv-x="616" 
d="M334 284l-316 -204l21 107l222 135l-170 135l17 88l239 -199zM564 284l-316 -204l21 107l222 135l-170 135l17 88l239 -199z" />
    <glyph glyph-name="onequarter" unicode="&#xbc;" horiz-adv-x="902" 
d="M229 607l-94 -41l14 73l137 61h25l-77 -400h-65zM125 -29l-45 44l676 718l46 -43zM618 78h-177l5 26l217 297h81l-51 -263h51l-11 -60h-51l-15 -77h-64zM662 308l-121 -170h88z" />
    <glyph glyph-name="onehalf" unicode="&#xbd;" horiz-adv-x="918" 
d="M229 607l-94 -41l14 73l137 61h25l-77 -400h-65zM764 1h-255l5 25l179 184q18 18 26.5 28t16 26t7.5 34q0 47 -45 47q-24 0 -43.5 -18.5t-28.5 -50.5l-61 17q13 52 50.5 82t91.5 30q46 0 74.5 -25t28.5 -66t-12.5 -69t-47.5 -63l-120 -121h146zM125 -29l-45 44l676 718
l46 -43z" />
    <glyph glyph-name="threequarters" unicode="&#xbe;" horiz-adv-x="973" 
d="M196 -29l-45 44l676 718l46 -43zM96 415l66 9q0 -33 16 -50.5t43 -17.5q36 0 57.5 24.5t21.5 63.5q0 58 -54 58q-21 0 -39 -11l-23 41l99 108h-128l12 60h227l-5 -23l-118 -126q45 0 70.5 -26.5t25.5 -73.5q0 -69 -44 -112t-113 -43q-53 0 -83.5 32.5t-30.5 86.5zM686 78
h-177l5 26l217 297h81l-51 -263h51l-11 -60h-51l-15 -77h-64zM730 308l-121 -170h88z" />
    <glyph glyph-name="questiondown" unicode="&#xbf;" horiz-adv-x="445" 
d="M344 179q0 -52 -28.5 -83t-83.5 -55l-98 -43q-29 -14 -45 -31t-16 -46q0 -31 21 -48t53 -17q76 0 116 97l77 -21q-23 -66 -75.5 -106t-127.5 -40q-68 0 -107.5 35t-39.5 95q0 50 25 81t73 54l119 57q30 15 45.5 30t15.5 40q0 22 -13 33.5t-32 11.5q-27 0 -43.5 -16
t-35.5 -49l-65 29q32 61 63.5 83.5t81.5 22.5q54 0 87 -32t33 -82zM329 431q0 -29 -19 -48.5t-47 -19.5q-29 0 -48.5 19.5t-19.5 48.5q0 28 19.5 47t48.5 19q28 0 47 -19t19 -47z" />
    <glyph glyph-name="Agrave" unicode="&#xc0;" horiz-adv-x="574" 
d="M32 0h-89l372 700h85l106 -700h-89l-25 187h-261zM335 586l-160 -315h205zM330 756l-101 144h121l48 -144h-68z" />
    <glyph glyph-name="Aacute" unicode="&#xc1;" horiz-adv-x="574" 
d="M32 0h-89l372 700h85l106 -700h-89l-25 187h-261zM335 586l-160 -315h205zM371 756h-72l97 144h123z" />
    <glyph glyph-name="Acircumflex" unicode="&#xc2;" horiz-adv-x="574" 
d="M32 0h-89l372 700h85l106 -700h-89l-25 187h-261zM335 586l-160 -315h205zM295 762h-98l179 164h31l124 -164h-89l-61 80z" />
    <glyph glyph-name="Atilde" unicode="&#xc3;" horiz-adv-x="574" 
d="M32 0h-89l372 700h85l106 -700h-89l-25 187h-261zM335 586l-160 -315h205zM226 781l-41 42q54 73 121 73q36 0 66.5 -20t53.5 -20q38 0 73 35l41 -43q-54 -72 -121 -72q-36 0 -66.5 20t-53.5 20q-38 0 -73 -35z" />
    <glyph glyph-name="Adieresis" unicode="&#xc4;" horiz-adv-x="574" 
d="M32 0h-89l372 700h85l106 -700h-89l-25 187h-261zM335 586l-160 -315h205zM246 847q0 24 16.5 40.5t39.5 16.5q25 0 41 -16.5t16 -40.5t-16 -40t-41 -16q-23 0 -39.5 16t-16.5 40zM412 847q0 24 16.5 40.5t39.5 16.5q25 0 41 -16.5t16 -40.5t-16 -40t-41 -16
q-23 0 -39.5 16t-16.5 40z" />
    <glyph glyph-name="Aring" unicode="&#xc5;" horiz-adv-x="574" 
d="M32 0h-89l372 700h85l106 -700h-89l-25 187h-261zM335 586l-160 -315h205zM289 849q0 42 28.5 71t70.5 29q44 0 71.5 -28.5t27.5 -71.5q0 -42 -27.5 -69t-71.5 -27q-42 0 -70.5 28t-28.5 68zM345 850q0 -19 12 -31.5t31 -12.5q20 0 31.5 12.5t11.5 31.5q0 21 -11.5 33.5
t-31.5 12.5q-19 0 -31 -13t-12 -33z" />
    <glyph glyph-name="AE" unicode="&#xc6;" horiz-adv-x="836" 
d="M41 0h-99l444 700h455l-17 -84h-307l-39 -201h250l-16 -84h-250l-48 -247h317l-17 -84h-406l37 187h-187zM406 585l-196 -314h151l61 314h-16z" />
    <glyph glyph-name="Ccedilla" unicode="&#xc7;" horiz-adv-x="662" 
d="M39 272q0 113 45 211t135 161.5t208 63.5q99 0 160 -62t67 -150l-85 -23q-24 151 -158 151q-88 0 -153.5 -51.5t-96 -127.5t-30.5 -163q0 -100 43.5 -153t129.5 -53q69 0 119 35.5t94 117.5l78 -25q-98 -212 -302 -212q-114 0 -184 73t-70 207zM211 -235l-89 45l126 130
h74z" />
    <glyph glyph-name="Egrave" unicode="&#xc8;" horiz-adv-x="563" 
d="M441 0h-406l137 700h396l-17 -84h-307l-39 -201h250l-16 -84h-250l-48 -247h317zM394 756l-101 144h121l48 -144h-68z" />
    <glyph glyph-name="Eacute" unicode="&#xc9;" horiz-adv-x="563" 
d="M441 0h-406l137 700h396l-17 -84h-307l-39 -201h250l-16 -84h-250l-48 -247h317zM372 756h-72l97 144h123z" />
    <glyph glyph-name="Ecircumflex" unicode="&#xca;" horiz-adv-x="563" 
d="M441 0h-406l137 700h396l-17 -84h-307l-39 -201h250l-16 -84h-250l-48 -247h317zM310 762h-98l179 164h31l124 -164h-89l-61 80z" />
    <glyph glyph-name="Edieresis" unicode="&#xcb;" horiz-adv-x="563" 
d="M441 0h-406l137 700h396l-17 -84h-307l-39 -201h250l-16 -84h-250l-48 -247h317zM243 847q0 24 16.5 40.5t39.5 16.5q25 0 41 -16.5t16 -40.5t-16 -40t-41 -16q-23 0 -39.5 16t-16.5 40zM409 847q0 24 16.5 40.5t39.5 16.5q25 0 41 -16.5t16 -40.5t-16 -40t-41 -16
q-23 0 -39.5 16t-16.5 40z" />
    <glyph glyph-name="Igrave" unicode="&#xcc;" horiz-adv-x="296" 
d="M124 0h-89l137 700h89zM215 756l-101 144h121l48 -144h-68z" />
    <glyph glyph-name="Iacute" unicode="&#xcd;" horiz-adv-x="296" 
d="M124 0h-89l137 700h89zM237 756h-72l97 144h123z" />
    <glyph glyph-name="Icircumflex" unicode="&#xce;" horiz-adv-x="296" 
d="M124 0h-89l137 700h89zM154 762h-98l179 164h31l124 -164h-89l-61 80z" />
    <glyph glyph-name="Idieresis" unicode="&#xcf;" horiz-adv-x="296" 
d="M124 0h-89l137 700h89zM100 847q0 24 16.5 40.5t39.5 16.5q25 0 41 -16.5t16 -40.5t-16 -40t-41 -16q-23 0 -39.5 16t-16.5 40zM266 847q0 24 16.5 40.5t39.5 16.5q25 0 41 -16.5t16 -40.5t-16 -40t-41 -16q-23 0 -39.5 16t-16.5 40z" />
    <glyph glyph-name="Eth" unicode="&#xd0;" horiz-adv-x="669" 
d="M229 0h-194l60 308h-58l17 84h57l61 308h180q126 0 201 -71.5t75 -207.5q0 -179 -111 -300t-288 -121zM184 308l-43 -224h89q138 0 220.5 93.5t82.5 234.5q0 204 -200 204h-89l-44 -224h130l-17 -84h-129z" />
    <glyph glyph-name="Ntilde" unicode="&#xd1;" horiz-adv-x="706" 
d="M124 0h-89l137 700h99l204 -547l107 547h89l-137 -700h-99l-205 545zM304 781l-41 42q54 73 121 73q36 0 66.5 -20t53.5 -20q38 0 73 35l41 -43q-54 -72 -121 -72q-36 0 -66.5 20t-53.5 20q-38 0 -73 -35z" />
    <glyph glyph-name="Ograve" unicode="&#xd2;" horiz-adv-x="713" 
d="M39 275q0 217 151 348q98 85 235 85q110 0 178.5 -75.5t68.5 -207.5q0 -217 -151 -348q-98 -85 -235 -85q-110 0 -178.5 75.5t-68.5 207.5zM131 283q0 -101 43.5 -154t126.5 -53q104 0 181 82q98 104 98 259q0 101 -43.5 154t-126.5 53q-104 0 -181 -82
q-98 -104 -98 -259zM415 756l-101 144h121l48 -144h-68z" />
    <glyph glyph-name="Oacute" unicode="&#xd3;" horiz-adv-x="713" 
d="M39 275q0 217 151 348q98 85 235 85q110 0 178.5 -75.5t68.5 -207.5q0 -217 -151 -348q-98 -85 -235 -85q-110 0 -178.5 75.5t-68.5 207.5zM131 283q0 -101 43.5 -154t126.5 -53q104 0 181 82q98 104 98 259q0 101 -43.5 154t-126.5 53q-104 0 -181 -82
q-98 -104 -98 -259zM427 756h-72l97 144h123z" />
    <glyph glyph-name="Ocircumflex" unicode="&#xd4;" horiz-adv-x="713" 
d="M39 275q0 217 151 348q98 85 235 85q110 0 178.5 -75.5t68.5 -207.5q0 -217 -151 -348q-98 -85 -235 -85q-110 0 -178.5 75.5t-68.5 207.5zM131 283q0 -101 43.5 -154t126.5 -53q104 0 181 82q98 104 98 259q0 101 -43.5 154t-126.5 53q-104 0 -181 -82
q-98 -104 -98 -259zM357 762h-98l179 164h31l124 -164h-89l-61 80z" />
    <glyph glyph-name="Otilde" unicode="&#xd5;" horiz-adv-x="713" 
d="M39 275q0 217 151 348q98 85 235 85q110 0 178.5 -75.5t68.5 -207.5q0 -217 -151 -348q-98 -85 -235 -85q-110 0 -178.5 75.5t-68.5 207.5zM131 283q0 -101 43.5 -154t126.5 -53q104 0 181 82q98 104 98 259q0 101 -43.5 154t-126.5 53q-104 0 -181 -82
q-98 -104 -98 -259zM308 781l-41 42q54 73 121 73q36 0 66.5 -20t53.5 -20q38 0 73 35l41 -43q-54 -72 -121 -72q-36 0 -66.5 20t-53.5 20q-38 0 -73 -35z" />
    <glyph glyph-name="Odieresis" unicode="&#xd6;" horiz-adv-x="713" 
d="M39 275q0 217 151 348q98 85 235 85q110 0 178.5 -75.5t68.5 -207.5q0 -217 -151 -348q-98 -85 -235 -85q-110 0 -178.5 75.5t-68.5 207.5zM131 283q0 -101 43.5 -154t126.5 -53q104 0 181 82q98 104 98 259q0 101 -43.5 154t-126.5 53q-104 0 -181 -82
q-98 -104 -98 -259zM305 847q0 24 16.5 40.5t39.5 16.5q25 0 41 -16.5t16 -40.5t-16 -40t-41 -16q-23 0 -39.5 16t-16.5 40zM471 847q0 24 16.5 40.5t39.5 16.5q25 0 41 -16.5t16 -40.5t-16 -40t-41 -16q-23 0 -39.5 16t-16.5 40z" />
    <glyph glyph-name="multiply" unicode="&#xd7;" horiz-adv-x="552" 
d="M118 109l-52 52l158 158l-158 158l52 52l158 -158l158 158l52 -52l-158 -158l158 -158l-52 -52l-158 158z" />
    <glyph glyph-name="Oslash" unicode="&#xd8;" horiz-adv-x="713" 
d="M39 -29l-50 48l88 92q-37 68 -37 164q0 217 151 348q98 85 235 85q101 0 167 -63l81 84l50 -48l-89 -92q38 -70 38 -164q0 -217 -151 -348q-98 -85 -235 -85q-101 0 -167 63zM132 283q0 -59 15 -101l382 397q-42 45 -118 45q-104 0 -181 -82q-98 -104 -98 -259zM566 517
l-383 -397q44 -44 119 -44q104 0 181 82q98 104 98 259q0 53 -15 100z" />
    <glyph glyph-name="Ugrave" unicode="&#xd9;" horiz-adv-x="672" 
d="M70 171q0 35 6 67l89 462h89l-91 -468q-4 -17 -4 -40q0 -116 122 -116q77 0 124.5 40.5t61.5 115.5l91 468h89l-89 -462q-47 -246 -288 -246q-90 0 -145 49.5t-55 129.5zM407 756l-101 144h121l48 -144h-68z" />
    <glyph glyph-name="Uacute" unicode="&#xda;" horiz-adv-x="672" 
d="M70 171q0 35 6 67l89 462h89l-91 -468q-4 -17 -4 -40q0 -116 122 -116q77 0 124.5 40.5t61.5 115.5l91 468h89l-89 -462q-47 -246 -288 -246q-90 0 -145 49.5t-55 129.5zM412 756h-72l97 144h123z" />
    <glyph glyph-name="Ucircumflex" unicode="&#xdb;" horiz-adv-x="672" 
d="M70 171q0 35 6 67l89 462h89l-91 -468q-4 -17 -4 -40q0 -116 122 -116q77 0 124.5 40.5t61.5 115.5l91 468h89l-89 -462q-47 -246 -288 -246q-90 0 -145 49.5t-55 129.5zM342 762h-98l179 164h31l124 -164h-89l-61 80z" />
    <glyph glyph-name="Udieresis" unicode="&#xdc;" horiz-adv-x="671" 
d="M70 171q0 35 6 67l89 462h89l-91 -468q-4 -17 -4 -40q0 -116 122 -116q77 0 124.5 40.5t61.5 115.5l91 468h89l-89 -462q-47 -246 -288 -246q-90 0 -145 49.5t-55 129.5zM288 847q0 24 16.5 40.5t39.5 16.5q25 0 41 -16.5t16 -40.5t-16 -40t-41 -16q-23 0 -39.5 16
t-16.5 40zM454 847q0 24 16.5 40.5t39.5 16.5q25 0 41 -16.5t16 -40.5t-16 -40t-41 -16q-23 0 -39.5 16t-16.5 40z" />
    <glyph glyph-name="Yacute" unicode="&#xdd;" horiz-adv-x="484" 
d="M182 302l-126 398h94l91 -310l210 310h99l-279 -398l-59 -302h-89zM309 756h-72l97 144h123z" />
    <glyph glyph-name="Thorn" unicode="&#xde;" horiz-adv-x="578" 
d="M124 0h-89l136 700h89l-29 -150h135q85 0 136 -44.5t51 -121.5q0 -114 -69.5 -174t-188.5 -60h-142zM214 466l-45 -232h153q62 0 100 35t38 99q0 98 -100 98h-146z" />
    <glyph glyph-name="germandbls" unicode="&#xdf;" horiz-adv-x="578" 
d="M121 0h-83l67 344h-50l14 76h50l17 85q20 98 82 150.5t146 52.5q72 0 113.5 -41t41.5 -111q0 -129 -116 -171q43 -14 72.5 -53.5t29.5 -104.5q0 -112 -71 -173.5t-178 -61.5q-55 0 -83 7l15 76q33 -7 70 -7q78 0 120 38t42 109q0 64 -33.5 96.5t-92.5 32.5h-27l14 76h35
q55 0 88.5 31.5t33.5 86.5q0 45 -23.5 69.5t-65.5 24.5q-49 0 -83.5 -34t-46.5 -96z" />
    <glyph glyph-name="agrave" unicode="&#xe0;" horiz-adv-x="586" 
d="M27 197q0 85 30 155t93 115t150 45q50 0 86.5 -21.5t47.5 -46.5l11 60h85l-97 -504h-85l12 62q-63 -70 -149 -70q-91 0 -137.5 57t-46.5 148zM116 220q0 -70 31.5 -111t87.5 -41q58 0 99 38.5t58 90t17 107.5q0 61 -30 96.5t-86 35.5q-58 0 -99.5 -34t-59.5 -81.5
t-18 -100.5zM312 560l-101 144h121l48 -144h-68z" />
    <glyph glyph-name="aacute" unicode="&#xe1;" horiz-adv-x="586" 
d="M27 197q0 85 30 155t93 115t150 45q50 0 86.5 -21.5t47.5 -46.5l11 60h85l-97 -504h-85l12 62q-63 -70 -149 -70q-91 0 -137.5 57t-46.5 148zM116 220q0 -70 31.5 -111t87.5 -41q58 0 99 38.5t58 90t17 107.5q0 61 -30 96.5t-86 35.5q-58 0 -99.5 -34t-59.5 -81.5
t-18 -100.5zM322 560h-72l97 144h123z" />
    <glyph glyph-name="acircumflex" unicode="&#xe2;" horiz-adv-x="586" 
d="M27 197q0 85 30 155t93 115t150 45q50 0 86.5 -21.5t47.5 -46.5l11 60h85l-97 -504h-85l12 62q-63 -70 -149 -70q-91 0 -137.5 57t-46.5 148zM116 220q0 -70 31.5 -111t87.5 -41q58 0 99 38.5t58 90t17 107.5q0 61 -30 96.5t-86 35.5q-58 0 -99.5 -34t-59.5 -81.5
t-18 -100.5zM268 566h-98l179 164h31l124 -164h-89l-61 80z" />
    <glyph glyph-name="atilde" unicode="&#xe3;" horiz-adv-x="586" 
d="M27 197q0 85 30 155t93 115t150 45q50 0 86.5 -21.5t47.5 -46.5l11 60h85l-97 -504h-85l12 62q-63 -70 -149 -70q-91 0 -137.5 57t-46.5 148zM116 220q0 -70 31.5 -111t87.5 -41q58 0 99 38.5t58 90t17 107.5q0 61 -30 96.5t-86 35.5q-58 0 -99.5 -34t-59.5 -81.5
t-18 -100.5zM214 585l-41 42q54 73 121 73q36 0 66.5 -20t53.5 -20q38 0 73 35l41 -43q-54 -72 -121 -72q-36 0 -66.5 20t-53.5 20q-38 0 -73 -35z" />
    <glyph glyph-name="adieresis" unicode="&#xe4;" horiz-adv-x="586" 
d="M27 197q0 85 30 155t93 115t150 45q50 0 86.5 -21.5t47.5 -46.5l11 60h85l-97 -504h-85l12 62q-63 -70 -149 -70q-91 0 -137.5 57t-46.5 148zM116 220q0 -70 31.5 -111t87.5 -41q58 0 99 38.5t58 90t17 107.5q0 61 -30 96.5t-86 35.5q-58 0 -99.5 -34t-59.5 -81.5
t-18 -100.5zM215 651q0 24 16.5 40.5t39.5 16.5q25 0 41 -16.5t16 -40.5t-16 -40t-41 -16q-23 0 -39.5 16t-16.5 40zM381 651q0 24 16.5 40.5t39.5 16.5q25 0 41 -16.5t16 -40.5t-16 -40t-41 -16q-23 0 -39.5 16t-16.5 40z" />
    <glyph glyph-name="aring" unicode="&#xe5;" horiz-adv-x="586" 
d="M27 197q0 85 30 155t93 115t150 45q50 0 86.5 -21.5t47.5 -46.5l11 60h85l-97 -504h-85l12 62q-63 -70 -149 -70q-91 0 -137.5 57t-46.5 148zM116 220q0 -70 31.5 -111t87.5 -41q58 0 99 38.5t58 90t17 107.5q0 61 -30 96.5t-86 35.5q-58 0 -99.5 -34t-59.5 -81.5
t-18 -100.5zM253 653q0 42 28.5 71t70.5 29q44 0 71.5 -28.5t27.5 -71.5q0 -42 -27.5 -69t-71.5 -27q-42 0 -70.5 28t-28.5 68zM309 654q0 -19 12 -31.5t31 -12.5q20 0 31.5 12.5t11.5 31.5q0 21 -11.5 33.5t-31.5 12.5q-19 0 -31 -13t-12 -33z" />
    <glyph glyph-name="ae" unicode="&#xe6;" horiz-adv-x="891" 
d="M27 131q0 93 62 136t162 43h122l5 22q2 10 2 14v10q0 80 -93 80q-80 0 -113 -81l-76 19q24 65 77 101.5t127 36.5q113 0 149 -83q83 83 195 83q86 0 136 -51t50 -138q0 -21 -5 -50l-8 -39h-374q-3 -20 -3 -36q0 -61 30.5 -95.5t87.5 -34.5q53 0 89 24t68 75l72 -35
q-51 -75 -107 -107.5t-137 -32.5q-125 0 -171 109q-67 -109 -187 -109q-76 0 -118 38.5t-42 100.5zM116 143q0 -35 22 -55t59 -20q54 0 98 37t59 117l2 12h-123q-52 0 -84.5 -22.5t-32.5 -68.5zM465 310h278q0 126 -112 126q-55 0 -99.5 -34.5t-66.5 -91.5z" />
    <glyph glyph-name="ccedilla" unicode="&#xe7;" horiz-adv-x="540" 
d="M27 203q0 78 31.5 147t99 115.5t156.5 46.5q146 0 181 -140l-76 -29q-25 93 -120 93q-81 0 -132 -66.5t-51 -157.5q0 -68 30.5 -106t82.5 -38q49 0 84 24.5t67 77.5l71 -37q-50 -80 -103.5 -110.5t-133.5 -30.5q-86 0 -136.5 58t-50.5 153zM164 -235l-89 45l126 130h74z
" />
    <glyph glyph-name="egrave" unicode="&#xe8;" horiz-adv-x="562" 
d="M25 204q0 119 84 213.5t208 94.5q86 0 136 -51t50 -138q0 -21 -5 -50l-8 -39h-373q-3 -20 -3 -36q0 -61 30 -95.5t87 -34.5q53 0 89 24t68 75l72 -35q-51 -75 -107 -107.5t-137 -32.5q-87 0 -139 58.5t-52 153.5zM136 310h278q0 126 -112 126q-55 0 -99.5 -34.5
t-66.5 -91.5zM326 560l-101 144h121l48 -144h-68z" />
    <glyph glyph-name="eacute" unicode="&#xe9;" horiz-adv-x="562" 
d="M25 204q0 119 84 213.5t208 94.5q86 0 136 -51t50 -138q0 -21 -5 -50l-8 -39h-373q-3 -20 -3 -36q0 -61 30 -95.5t87 -34.5q53 0 89 24t68 75l72 -35q-51 -75 -107 -107.5t-137 -32.5q-87 0 -139 58.5t-52 153.5zM136 310h278q0 126 -112 126q-55 0 -99.5 -34.5
t-66.5 -91.5zM330 560h-72l97 144h123z" />
    <glyph glyph-name="ecircumflex" unicode="&#xea;" horiz-adv-x="562" 
d="M25 204q0 119 84 213.5t208 94.5q86 0 136 -51t50 -138q0 -21 -5 -50l-8 -39h-373q-3 -20 -3 -36q0 -61 30 -95.5t87 -34.5q53 0 89 24t68 75l72 -35q-51 -75 -107 -107.5t-137 -32.5q-87 0 -139 58.5t-52 153.5zM136 310h278q0 126 -112 126q-55 0 -99.5 -34.5
t-66.5 -91.5zM267 566h-98l179 164h31l124 -164h-89l-61 80z" />
    <glyph glyph-name="edieresis" unicode="&#xeb;" horiz-adv-x="562" 
d="M25 204q0 119 84 213.5t208 94.5q86 0 136 -51t50 -138q0 -21 -5 -50l-8 -39h-373q-3 -20 -3 -36q0 -61 30 -95.5t87 -34.5q53 0 89 24t68 75l72 -35q-51 -75 -107 -107.5t-137 -32.5q-87 0 -139 58.5t-52 153.5zM136 310h278q0 126 -112 126q-55 0 -99.5 -34.5
t-66.5 -91.5zM198 651q0 24 16.5 40.5t39.5 16.5q25 0 41 -16.5t16 -40.5t-16 -40t-41 -16q-23 0 -39.5 16t-16.5 40zM364 651q0 24 16.5 40.5t39.5 16.5q25 0 41 -16.5t16 -40.5t-16 -40t-41 -16q-23 0 -39.5 16t-16.5 40z" />
    <glyph glyph-name="igrave" unicode="&#xec;" horiz-adv-x="276" 
d="M115 0h-85l98 504h85zM176 560l-101 144h121l48 -144h-68z" />
    <glyph glyph-name="iacute" unicode="&#xed;" horiz-adv-x="276" 
d="M115 0h-85l98 504h85zM197 560h-72l97 144h123z" />
    <glyph glyph-name="icircumflex" unicode="&#xee;" horiz-adv-x="276" 
d="M115 0h-85l98 504h85zM110 566h-98l179 164h31l124 -164h-89l-61 80z" />
    <glyph glyph-name="idieresis" unicode="&#xef;" horiz-adv-x="276" 
d="M115 0h-85l98 504h85zM55 651q0 24 16.5 40.5t39.5 16.5q25 0 41 -16.5t16 -40.5t-16 -40t-41 -16q-23 0 -39.5 16t-16.5 40zM221 651q0 24 16.5 40.5t39.5 16.5q25 0 41 -16.5t16 -40.5t-16 -40t-41 -16q-23 0 -39.5 16t-16.5 40z" />
    <glyph glyph-name="eth" unicode="&#xf0;" horiz-adv-x="575" 
d="M27 207q0 126 76 215.5t201 89.5q34 0 65.5 -12t45.5 -32q-17 86 -82 136l-53 -62l-51 42l51 60q-32 21 -71 38l49 58q46 -20 72 -39l48 54l49 -42l-43 -51q61 -47 93.5 -126t32.5 -166q0 -166 -74 -272t-221 -106q-89 0 -138.5 61t-49.5 154zM116 208q0 -63 28 -101.5
t86 -38.5q83 0 134 67.5t51 155.5q0 145 -119 145q-83 0 -131.5 -69t-48.5 -159z" />
    <glyph glyph-name="ntilde" unicode="&#xf1;" horiz-adv-x="577" 
d="M115 0h-85l98 504h85l-18 -93q76 101 182 101q58 0 90 -28.5t32 -81.5q0 -32 -3 -47l-69 -355h-85l64 333q4 16 4 35q0 68 -67 68q-54 0 -111 -63t-76 -162zM207 585l-41 42q54 73 121 73q36 0 66.5 -20t53.5 -20q38 0 73 35l41 -43q-54 -72 -121 -72q-36 0 -66.5 20
t-53.5 20q-38 0 -73 -35z" />
    <glyph glyph-name="ograve" unicode="&#xf2;" horiz-adv-x="573" 
d="M27 204q0 124 69 210q78 98 213 98q93 0 146 -55.5t53 -156.5q0 -124 -69 -210q-78 -98 -213 -98q-93 0 -146 55.5t-53 156.5zM116 216q0 -71 29.5 -109.5t88.5 -38.5q86 0 140 71q45 59 45 149q0 71 -29.5 109.5t-88.5 38.5q-86 0 -140 -71q-45 -59 -45 -149zM325 560
l-101 144h121l48 -144h-68z" />
    <glyph glyph-name="oacute" unicode="&#xf3;" horiz-adv-x="573" 
d="M27 204q0 124 69 210q78 98 213 98q93 0 146 -55.5t53 -156.5q0 -124 -69 -210q-78 -98 -213 -98q-93 0 -146 55.5t-53 156.5zM116 216q0 -71 29.5 -109.5t88.5 -38.5q86 0 140 71q45 59 45 149q0 71 -29.5 109.5t-88.5 38.5q-86 0 -140 -71q-45 -59 -45 -149zM332 560
h-72l97 144h123z" />
    <glyph glyph-name="ocircumflex" unicode="&#xf4;" horiz-adv-x="573" 
d="M27 204q0 124 69 210q78 98 213 98q93 0 146 -55.5t53 -156.5q0 -124 -69 -210q-78 -98 -213 -98q-93 0 -146 55.5t-53 156.5zM116 216q0 -71 29.5 -109.5t88.5 -38.5q86 0 140 71q45 59 45 149q0 71 -29.5 109.5t-88.5 38.5q-86 0 -140 -71q-45 -59 -45 -149zM247 566
h-98l179 164h31l124 -164h-89l-61 80z" />
    <glyph glyph-name="otilde" unicode="&#xf5;" horiz-adv-x="573" 
d="M27 204q0 124 69 210q78 98 213 98q93 0 146 -55.5t53 -156.5q0 -124 -69 -210q-78 -98 -213 -98q-93 0 -146 55.5t-53 156.5zM116 216q0 -71 29.5 -109.5t88.5 -38.5q86 0 140 71q45 59 45 149q0 71 -29.5 109.5t-88.5 38.5q-86 0 -140 -71q-45 -59 -45 -149zM200 585
l-41 42q54 73 121 73q36 0 66.5 -20t53.5 -20q38 0 73 35l41 -43q-54 -72 -121 -72q-36 0 -66.5 20t-53.5 20q-38 0 -73 -35z" />
    <glyph glyph-name="odieresis" unicode="&#xf6;" horiz-adv-x="573" 
d="M27 204q0 124 69 210q78 98 213 98q93 0 146 -55.5t53 -156.5q0 -124 -69 -210q-78 -98 -213 -98q-93 0 -146 55.5t-53 156.5zM116 216q0 -71 29.5 -109.5t88.5 -38.5q86 0 140 71q45 59 45 149q0 71 -29.5 109.5t-88.5 38.5q-86 0 -140 -71q-45 -59 -45 -149zM207 651
q0 24 16.5 40.5t39.5 16.5q25 0 41 -16.5t16 -40.5t-16 -40t-41 -16q-23 0 -39.5 16t-16.5 40zM373 651q0 24 16.5 40.5t39.5 16.5q25 0 41 -16.5t16 -40.5t-16 -40t-41 -16q-23 0 -39.5 16t-16.5 40z" />
    <glyph glyph-name="divide" unicode="&#xf7;" horiz-adv-x="576" 
d="M510 280h-440v74h440v-74zM227 128q0 26 18 44.5t45 18.5q26 0 44.5 -18.5t18.5 -44.5q0 -27 -18.5 -45t-44.5 -18q-27 0 -45 18t-18 45zM227 502q0 26 18 44.5t45 18.5q26 0 44.5 -18.5t18.5 -44.5q0 -27 -18.5 -45t-44.5 -18q-27 0 -45 18t-18 45z" />
    <glyph glyph-name="oslash" unicode="&#xf8;" horiz-adv-x="573" 
d="M27 -45l-51 48l79 81q-28 49 -28 120q0 124 69 210q78 98 213 98q76 0 127 -39l74 76l51 -48l-80 -82q27 -48 27 -119q0 -123 -68 -210q-78 -98 -214 -98q-76 0 -125 39zM116 216q0 -48 6 -64l254 259q-28 25 -75 25q-86 0 -140 -71q-45 -59 -45 -149zM413 350l-253 -259
q29 -23 74 -23q86 0 140 71q45 59 45 149q0 39 -6 62z" />
    <glyph glyph-name="ugrave" unicode="&#xf9;" horiz-adv-x="577" 
d="M52 102q0 32 3 47l69 355h85l-64 -333q-4 -16 -4 -35q0 -68 67 -68q54 0 111.5 63t75.5 162l41 211h85l-98 -504h-85l18 93q-76 -101 -182 -101q-58 0 -90 28.5t-32 81.5zM337 560l-101 144h121l48 -144h-68z" />
    <glyph glyph-name="uacute" unicode="&#xfa;" horiz-adv-x="577" 
d="M52 102q0 32 3 47l69 355h85l-64 -333q-4 -16 -4 -35q0 -68 67 -68q54 0 111.5 63t75.5 162l41 211h85l-98 -504h-85l18 93q-76 -101 -182 -101q-58 0 -90 28.5t-32 81.5zM327 560h-72l97 144h123z" />
    <glyph glyph-name="ucircumflex" unicode="&#xfb;" horiz-adv-x="577" 
d="M52 102q0 32 3 47l69 355h85l-64 -333q-4 -16 -4 -35q0 -68 67 -68q54 0 111.5 63t75.5 162l41 211h85l-98 -504h-85l18 93q-76 -101 -182 -101q-58 0 -90 28.5t-32 81.5zM273 566h-98l179 164h31l124 -164h-89l-61 80z" />
    <glyph glyph-name="udieresis" unicode="&#xfc;" horiz-adv-x="577" 
d="M52 102q0 32 3 47l69 355h85l-64 -333q-4 -16 -4 -35q0 -68 67 -68q54 0 111.5 63t75.5 162l41 211h85l-98 -504h-85l18 93q-76 -101 -182 -101q-58 0 -90 28.5t-32 81.5zM202 651q0 24 16.5 40.5t39.5 16.5q25 0 41 -16.5t16 -40.5t-16 -40t-41 -16q-23 0 -39.5 16
t-16.5 40zM368 651q0 24 16.5 40.5t39.5 16.5q25 0 41 -16.5t16 -40.5t-16 -40t-41 -16q-23 0 -39.5 16t-16.5 40z" />
    <glyph glyph-name="yacute" unicode="&#xfd;" horiz-adv-x="472" 
d="M86 -204h-89l125 236l-81 472h89l58 -364l194 364h89zM259 560h-72l97 144h123z" />
    <glyph glyph-name="thorn" unicode="&#xfe;" horiz-adv-x="594" 
d="M74 -204h-84l176 912h85l-51 -264q24 28 64.5 48t85.5 20q82 0 130.5 -53.5t48.5 -158.5q0 -130 -70 -219t-201 -89q-41 0 -80.5 21.5t-51.5 48.5zM150 211q0 -70 31 -106.5t84 -36.5q82 0 128.5 66t46.5 154q0 148 -113 148q-75 0 -126 -69t-51 -156z" />
    <glyph glyph-name="ydieresis" unicode="&#xff;" horiz-adv-x="466" 
d="M86 -204h-89l125 236l-81 472h89l58 -364l194 364h89zM133 651q0 24 16.5 40.5t39.5 16.5q25 0 41 -16.5t16 -40.5t-16 -40t-41 -16q-23 0 -39.5 16t-16.5 40zM299 651q0 24 16.5 40.5t39.5 16.5q25 0 41 -16.5t16 -40.5t-16 -40t-41 -16q-23 0 -39.5 16t-16.5 40z" />
    <glyph glyph-name="Amacron" unicode="&#x100;" horiz-adv-x="574" 
d="M32 0h-89l372 700h85l106 -700h-89l-25 187h-261zM335 586l-160 -315h205zM492 808h-249l15 76h249z" />
    <glyph glyph-name="amacron" unicode="&#x101;" horiz-adv-x="586" 
d="M27 197q0 85 30 155t93 115t150 45q50 0 86.5 -21.5t47.5 -46.5l11 60h85l-97 -504h-85l12 62q-63 -70 -149 -70q-91 0 -137.5 57t-46.5 148zM116 220q0 -70 31.5 -111t87.5 -41q58 0 99 38.5t58 90t17 107.5q0 61 -30 96.5t-86 35.5q-58 0 -99.5 -34t-59.5 -81.5
t-18 -100.5zM453 613h-249l15 76h249z" />
    <glyph glyph-name="Abreve" unicode="&#x102;" horiz-adv-x="574" 
d="M32 0h-89l372 700h85l106 -700h-89l-25 187h-261zM335 586l-160 -315h205zM274 874q0 8 2 22h67q-1 -3 -1 -10q0 -35 36 -35q45 0 53 45h67q-13 -53 -48 -81t-84 -28q-40 0 -66 24t-26 63z" />
    <glyph glyph-name="abreve" unicode="&#x103;" horiz-adv-x="586" 
d="M27 197q0 85 30 155t93 115t150 45q50 0 86.5 -21.5t47.5 -46.5l11 60h85l-97 -504h-85l12 62q-63 -70 -149 -70q-91 0 -137.5 57t-46.5 148zM116 220q0 -70 31.5 -111t87.5 -41q58 0 99 38.5t58 90t17 107.5q0 61 -30 96.5t-86 35.5q-58 0 -99.5 -34t-59.5 -81.5
t-18 -100.5zM234 678q0 8 2 22h67q-1 -3 -1 -10q0 -35 36 -35q45 0 53 45h67q-13 -53 -48 -81t-84 -28q-40 0 -66 24t-26 63z" />
    <glyph glyph-name="Aogonek" unicode="&#x104;" horiz-adv-x="574" 
d="M32 0h-89l372 700h85l106 -700q-73 -45 -73 -85q0 -25 25 -25q16 0 29 9t34 32l36 -35q-31 -39 -58.5 -55t-63.5 -16q-32 0 -51.5 18t-19.5 49q0 58 80 108h-27l-25 187h-261zM335 586l-160 -315h205z" />
    <glyph glyph-name="aogonek" unicode="&#x105;" horiz-adv-x="586" 
d="M27 197q0 85 30 155t93 115t150 45q50 0 86.5 -21.5t47.5 -46.5l11 60h85l-97 -504q-73 -45 -73 -85q0 -25 25 -25q16 0 29 9t34 32l36 -35q-31 -39 -58.5 -55t-63.5 -16q-32 0 -51.5 18t-19.5 49q0 58 80 108h-23l12 62q-63 -70 -149 -70q-91 0 -137.5 57t-46.5 148z
M116 220q0 -70 31.5 -111t87.5 -41q58 0 99 38.5t58 90t17 107.5q0 61 -30 96.5t-86 35.5q-58 0 -99.5 -34t-59.5 -81.5t-18 -100.5z" />
    <glyph glyph-name="Cacute" unicode="&#x106;" horiz-adv-x="662" 
d="M39 272q0 113 45 211t135 161.5t208 63.5q99 0 160 -62t67 -150l-85 -23q-24 151 -158 151q-88 0 -153.5 -51.5t-96 -127.5t-30.5 -163q0 -100 43.5 -153t129.5 -53q69 0 119 35.5t94 117.5l78 -25q-98 -212 -302 -212q-114 0 -184 73t-70 207zM443 756h-72l97 144h123z
" />
    <glyph glyph-name="cacute" unicode="&#x107;" horiz-adv-x="540" 
d="M27 203q0 78 31.5 147t99 115.5t156.5 46.5q146 0 181 -140l-76 -29q-25 93 -120 93q-81 0 -132 -66.5t-51 -157.5q0 -68 30.5 -106t82.5 -38q49 0 84 24.5t67 77.5l71 -37q-50 -80 -103.5 -110.5t-133.5 -30.5q-86 0 -136.5 58t-50.5 153zM330 560h-72l97 144h123z" />
    <glyph glyph-name="Ccircumflex" unicode="&#x108;" horiz-adv-x="662" 
d="M39 272q0 113 45 211t135 161.5t208 63.5q99 0 160 -62t67 -150l-85 -23q-24 151 -158 151q-88 0 -153.5 -51.5t-96 -127.5t-30.5 -163q0 -100 43.5 -153t129.5 -53q69 0 119 35.5t94 117.5l78 -25q-98 -212 -302 -212q-114 0 -184 73t-70 207zM362 762h-98l179 164h31
l124 -164h-89l-61 80z" />
    <glyph glyph-name="ccircumflex" unicode="&#x109;" horiz-adv-x="540" 
d="M27 203q0 78 31.5 147t99 115.5t156.5 46.5q146 0 181 -140l-76 -29q-25 93 -120 93q-81 0 -132 -66.5t-51 -157.5q0 -68 30.5 -106t82.5 -38q49 0 84 24.5t67 77.5l71 -37q-50 -80 -103.5 -110.5t-133.5 -30.5q-86 0 -136.5 58t-50.5 153zM249 566h-98l179 164h31
l124 -164h-89l-61 80z" />
    <glyph glyph-name="Cdotaccent" unicode="&#x10a;" horiz-adv-x="662" 
d="M39 272q0 113 45 211t135 161.5t208 63.5q99 0 160 -62t67 -150l-85 -23q-24 151 -158 151q-88 0 -153.5 -51.5t-96 -127.5t-30.5 -163q0 -100 43.5 -153t129.5 -53q69 0 119 35.5t94 117.5l78 -25q-98 -212 -302 -212q-114 0 -184 73t-70 207zM388 840q0 27 18.5 45.5
t44.5 18.5q27 0 45 -18.5t18 -45.5q0 -26 -18 -44t-45 -18q-26 0 -44.5 18t-18.5 44z" />
    <glyph glyph-name="cdotaccent" unicode="&#x10b;" horiz-adv-x="540" 
d="M27 203q0 78 31.5 147t99 115.5t156.5 46.5q146 0 181 -140l-76 -29q-25 93 -120 93q-81 0 -132 -66.5t-51 -157.5q0 -68 30.5 -106t82.5 -38q49 0 84 24.5t67 77.5l71 -37q-50 -80 -103.5 -110.5t-133.5 -30.5q-86 0 -136.5 58t-50.5 153zM267 644q0 27 18.5 45.5
t44.5 18.5q27 0 45 -18.5t18 -45.5q0 -26 -18 -44t-45 -18q-26 0 -44.5 18t-18.5 44z" />
    <glyph glyph-name="Ccaron" unicode="&#x10c;" horiz-adv-x="662" 
d="M39 272q0 113 45 211t135 161.5t208 63.5q99 0 160 -62t67 -150l-85 -23q-24 151 -158 151q-88 0 -153.5 -51.5t-96 -127.5t-30.5 -163q0 -100 43.5 -153t129.5 -53q69 0 119 35.5t94 117.5l78 -25q-98 -212 -302 -212q-114 0 -184 73t-70 207zM408 762l-124 164h89
l61 -80l86 80h98l-179 -164h-31z" />
    <glyph glyph-name="ccaron" unicode="&#x10d;" horiz-adv-x="540" 
d="M27 203q0 78 31.5 147t99 115.5t156.5 46.5q146 0 181 -140l-76 -29q-25 93 -120 93q-81 0 -132 -66.5t-51 -157.5q0 -68 30.5 -106t82.5 -38q49 0 84 24.5t67 77.5l71 -37q-50 -80 -103.5 -110.5t-133.5 -30.5q-86 0 -136.5 58t-50.5 153zM300 566l-124 164h89l61 -80
l86 80h98l-179 -164h-31z" />
    <glyph glyph-name="Dcaron" unicode="&#x10e;" horiz-adv-x="669" 
d="M229 0h-194l137 700h180q126 0 201 -71.5t75 -207.5q0 -179 -111 -300t-288 -121zM244 616l-103 -532h89q138 0 220.5 93.5t82.5 234.5q0 204 -200 204h-89zM351 762l-124 164h89l61 -80l86 80h98l-179 -164h-31z" />
    <glyph glyph-name="dcaron" unicode="&#x10f;" horiz-adv-x="770" 
d="M27 186q0 134 75 230t200 96q47 0 84 -19t55 -49l51 264h85l-138 -708h-85l13 62q-63 -70 -158 -70q-87 0 -134.5 52.5t-47.5 141.5zM116 208q0 -65 30 -102.5t86 -37.5q58 0 102 39.5t63 92t19 106.5q0 64 -32.5 97t-88.5 33q-57 0 -99.5 -37t-61 -87.5t-18.5 -103.5z
M667 503h-64l103 205h125z" />
    <glyph glyph-name="Dcroat" unicode="&#x110;" horiz-adv-x="669" 
d="M229 0h-194l60 308h-58l17 84h57l61 308h180q126 0 201 -71.5t75 -207.5q0 -179 -111 -300t-288 -121zM184 308l-43 -224h89q138 0 220.5 93.5t82.5 234.5q0 204 -200 204h-89l-44 -224h130l-17 -84h-129z" />
    <glyph glyph-name="dslash" unicode="&#x111;" horiz-adv-x="612" 
d="M27 186q0 134 75 230t200 96q47 0 84 -19t55 -49l24 128h-125l14 68h125l13 68h85l-13 -68h73l-14 -68h-73l-111 -572h-85l13 62q-63 -70 -158 -70q-87 0 -134.5 52.5t-47.5 141.5zM116 208q0 -65 30 -102.5t86 -37.5q58 0 102 39.5t63 92t19 106.5q0 64 -32.5 97
t-88.5 33q-57 0 -99.5 -37t-61 -87.5t-18.5 -103.5z" />
    <glyph glyph-name="Emacron" unicode="&#x112;" horiz-adv-x="563" 
d="M441 0h-406l137 700h396l-17 -84h-307l-39 -201h250l-16 -84h-250l-48 -247h317zM504 808h-249l15 76h249z" />
    <glyph glyph-name="emacron" unicode="&#x113;" horiz-adv-x="562" 
d="M25 204q0 119 84 213.5t208 94.5q86 0 136 -51t50 -138q0 -21 -5 -50l-8 -39h-373q-3 -20 -3 -36q0 -61 30 -95.5t87 -34.5q53 0 89 24t68 75l72 -35q-51 -75 -107 -107.5t-137 -32.5q-87 0 -139 58.5t-52 153.5zM136 310h278q0 126 -112 126q-55 0 -99.5 -34.5
t-66.5 -91.5zM466 613h-249l15 76h249z" />
    <glyph glyph-name="Ebreve" unicode="&#x114;" horiz-adv-x="563" 
d="M441 0h-406l137 700h396l-17 -84h-307l-39 -201h250l-16 -84h-250l-48 -247h317zM284 874q0 8 2 22h67q-1 -3 -1 -10q0 -35 36 -35q45 0 53 45h67q-13 -53 -48 -81t-84 -28q-40 0 -66 24t-26 63z" />
    <glyph glyph-name="ebreve" unicode="&#x115;" horiz-adv-x="562" 
d="M25 204q0 119 84 213.5t208 94.5q86 0 136 -51t50 -138q0 -21 -5 -50l-8 -39h-373q-3 -20 -3 -36q0 -61 30 -95.5t87 -34.5q53 0 89 24t68 75l72 -35q-51 -75 -107 -107.5t-137 -32.5q-87 0 -139 58.5t-52 153.5zM136 310h278q0 126 -112 126q-55 0 -99.5 -34.5
t-66.5 -91.5zM241 678q0 8 2 22h67q-1 -3 -1 -10q0 -35 36 -35q45 0 53 45h67q-13 -53 -48 -81t-84 -28q-40 0 -66 24t-26 63z" />
    <glyph glyph-name="Edotaccent" unicode="&#x116;" horiz-adv-x="563" 
d="M441 0h-406l137 700h396l-17 -84h-307l-39 -201h250l-16 -84h-250l-48 -247h317zM326 840q0 27 18.5 45.5t44.5 18.5q27 0 45 -18.5t18 -45.5q0 -26 -18 -44t-45 -18q-26 0 -44.5 18t-18.5 44z" />
    <glyph glyph-name="edotaccent" unicode="&#x117;" horiz-adv-x="562" 
d="M25 204q0 119 84 213.5t208 94.5q86 0 136 -51t50 -138q0 -21 -5 -50l-8 -39h-373q-3 -20 -3 -36q0 -61 30 -95.5t87 -34.5q53 0 89 24t68 75l72 -35q-51 -75 -107 -107.5t-137 -32.5q-87 0 -139 58.5t-52 153.5zM136 310h278q0 126 -112 126q-55 0 -99.5 -34.5
t-66.5 -91.5zM291 644q0 27 18.5 45.5t44.5 18.5q27 0 45 -18.5t18 -45.5q0 -26 -18 -44t-45 -18q-26 0 -44.5 18t-18.5 44z" />
    <glyph glyph-name="Eogonek" unicode="&#x118;" horiz-adv-x="563" 
d="M379 0h-344l137 700h396l-17 -84h-307l-39 -201h250l-16 -84h-250l-48 -247h317l-17 -84q-73 -45 -73 -85q0 -25 25 -25q16 0 29 9t34 32l36 -35q-31 -39 -58.5 -55t-63.5 -16q-32 0 -51.5 18t-19.5 49q0 58 80 108z" />
    <glyph glyph-name="eogonek" unicode="&#x119;" horiz-adv-x="562" 
d="M25 204q0 119 84 213.5t208 94.5q86 0 136 -51t50 -138q0 -21 -5 -50l-8 -39h-373q-3 -20 -3 -36q0 -61 30 -95.5t87 -34.5q53 0 89 24t68 75l72 -35q-42 -63 -89 -96t-109 -41q-65 -42 -65 -80q0 -25 25 -25q16 0 29 9t34 32l36 -35q-31 -39 -58.5 -55t-63.5 -16
q-32 0 -51.5 18t-19.5 49q0 57 69 101q-80 7 -126 64t-46 147zM136 310h278q0 126 -112 126q-55 0 -99.5 -34.5t-66.5 -91.5z" />
    <glyph glyph-name="Ecaron" unicode="&#x11a;" horiz-adv-x="563" 
d="M441 0h-406l137 700h396l-17 -84h-307l-39 -201h250l-16 -84h-250l-48 -247h317zM357 762l-124 164h89l61 -80l86 80h98l-179 -164h-31z" />
    <glyph glyph-name="ecaron" unicode="&#x11b;" horiz-adv-x="562" 
d="M25 204q0 119 84 213.5t208 94.5q86 0 136 -51t50 -138q0 -21 -5 -50l-8 -39h-373q-3 -20 -3 -36q0 -61 30 -95.5t87 -34.5q53 0 89 24t68 75l72 -35q-51 -75 -107 -107.5t-137 -32.5q-87 0 -139 58.5t-52 153.5zM136 310h278q0 126 -112 126q-55 0 -99.5 -34.5
t-66.5 -91.5zM305 566l-124 164h89l61 -80l86 80h98l-179 -164h-31z" />
    <glyph glyph-name="Gcircumflex" unicode="&#x11c;" horiz-adv-x="698" 
d="M39 277q0 114 44.5 211t134.5 158.5t208 61.5q100 0 162 -59t68 -152l-88 -23q-20 150 -158 150q-124 0 -201.5 -99t-77.5 -235q0 -105 44 -159.5t128 -54.5q82 0 140.5 52t83.5 141h-144l16 84h236l-69 -353h-76l9 96q-42 -55 -92 -79.5t-121 -24.5q-102 0 -174.5 73.5
t-72.5 211.5zM357 762h-98l179 164h31l124 -164h-89l-61 80z" />
    <glyph glyph-name="gcircumflex" unicode="&#x11d;" horiz-adv-x="510" 
d="M-23 -68q0 74 66 127q-21 24 -21 63q0 70 84 113q-22 35 -22 76q0 88 56 144.5t149 56.5q53 0 91 -23l94 48l30 -66l-75 -38q11 -25 11 -64q0 -85 -59 -140t-147 -55q-43 0 -81 20q-47 -18 -47 -55q0 -16 12 -27t33 -11h115q141 0 141 -121q0 -94 -72.5 -143t-177.5 -49
q-78 0 -129 39.5t-51 104.5zM62 -50q0 -38 27 -64t83 -26q59 0 102.5 25t43.5 80q0 64 -77 64h-97q-14 0 -36 2q-46 -24 -46 -81zM168 326q0 -40 21 -60t56 -20q47 0 79 30.5t32 80.5q0 41 -21 62t-56 21q-46 0 -78.5 -32.5t-32.5 -81.5zM216 566h-98l179 164h31l124 -164
h-89l-61 80z" />
    <glyph glyph-name="Gbreve" unicode="&#x11e;" horiz-adv-x="698" 
d="M39 277q0 114 44.5 211t134.5 158.5t208 61.5q100 0 162 -59t68 -152l-88 -23q-20 150 -158 150q-124 0 -201.5 -99t-77.5 -235q0 -105 44 -159.5t128 -54.5q82 0 140.5 52t83.5 141h-144l16 84h236l-69 -353h-76l9 96q-42 -55 -92 -79.5t-121 -24.5q-102 0 -174.5 73.5
t-72.5 211.5zM331 874q0 8 2 22h67q-1 -3 -1 -10q0 -35 36 -35q45 0 53 45h67q-13 -53 -48 -81t-84 -28q-40 0 -66 24t-26 63z" />
    <glyph glyph-name="gbreve" unicode="&#x11f;" horiz-adv-x="510" 
d="M-23 -68q0 74 66 127q-21 24 -21 63q0 70 84 113q-22 35 -22 76q0 88 56 144.5t149 56.5q53 0 91 -23l94 48l30 -66l-75 -38q11 -25 11 -64q0 -85 -59 -140t-147 -55q-43 0 -81 20q-47 -18 -47 -55q0 -16 12 -27t33 -11h115q141 0 141 -121q0 -94 -72.5 -143t-177.5 -49
q-78 0 -129 39.5t-51 104.5zM62 -50q0 -38 27 -64t83 -26q59 0 102.5 25t43.5 80q0 64 -77 64h-97q-14 0 -36 2q-46 -24 -46 -81zM168 326q0 -40 21 -60t56 -20q47 0 79 30.5t32 80.5q0 41 -21 62t-56 21q-46 0 -78.5 -32.5t-32.5 -81.5zM207 678q0 8 2 22h67q-1 -3 -1 -10
q0 -35 36 -35q45 0 53 45h67q-13 -53 -48 -81t-84 -28q-40 0 -66 24t-26 63z" />
    <glyph glyph-name="Gdotaccent" unicode="&#x120;" horiz-adv-x="698" 
d="M39 277q0 114 44.5 211t134.5 158.5t208 61.5q100 0 162 -59t68 -152l-88 -23q-20 150 -158 150q-124 0 -201.5 -99t-77.5 -235q0 -105 44 -159.5t128 -54.5q82 0 140.5 52t83.5 141h-144l16 84h236l-69 -353h-76l9 96q-42 -55 -92 -79.5t-121 -24.5q-102 0 -174.5 73.5
t-72.5 211.5zM385 840q0 27 18.5 45.5t44.5 18.5q27 0 45 -18.5t18 -45.5q0 -26 -18 -44t-45 -18q-26 0 -44.5 18t-18.5 44z" />
    <glyph glyph-name="gdotaccent" unicode="&#x121;" horiz-adv-x="510" 
d="M-23 -68q0 74 66 127q-21 24 -21 63q0 70 84 113q-22 35 -22 76q0 88 56 144.5t149 56.5q53 0 91 -23l94 48l30 -66l-75 -38q11 -25 11 -64q0 -85 -59 -140t-147 -55q-43 0 -81 20q-47 -18 -47 -55q0 -16 12 -27t33 -11h115q141 0 141 -121q0 -94 -72.5 -143t-177.5 -49
q-78 0 -129 39.5t-51 104.5zM62 -50q0 -38 27 -64t83 -26q59 0 102.5 25t43.5 80q0 64 -77 64h-97q-14 0 -36 2q-46 -24 -46 -81zM168 326q0 -40 21 -60t56 -20q47 0 79 30.5t32 80.5q0 41 -21 62t-56 21q-46 0 -78.5 -32.5t-32.5 -81.5zM244 644q0 27 18.5 45.5t44.5 18.5
q27 0 45 -18.5t18 -45.5q0 -26 -18 -44t-45 -18q-26 0 -44.5 18t-18.5 44z" />
    <glyph glyph-name="Gcommaaccent" unicode="&#x122;" horiz-adv-x="698" 
d="M39 277q0 114 44.5 211t134.5 158.5t208 61.5q100 0 162 -59t68 -152l-88 -23q-20 150 -158 150q-124 0 -201.5 -99t-77.5 -235q0 -105 44 -159.5t128 -54.5q82 0 140.5 52t83.5 141h-144l16 84h236l-69 -353h-76l9 96q-42 -55 -92 -79.5t-121 -24.5q-102 0 -174.5 73.5
t-72.5 211.5zM195 -268h-63l102 217h117z" />
    <glyph glyph-name="gcommaaccent" unicode="&#x123;" horiz-adv-x="510" 
d="M-23 -68q0 74 66 127q-21 24 -21 63q0 70 84 113q-22 35 -22 76q0 88 56 144.5t149 56.5q53 0 91 -23l94 48l30 -66l-75 -38q11 -25 11 -64q0 -85 -59 -140t-147 -55q-43 0 -81 20q-47 -18 -47 -55q0 -16 12 -27t33 -11h115q141 0 141 -121q0 -94 -72.5 -143t-177.5 -49
q-78 0 -129 39.5t-51 104.5zM62 -50q0 -38 27 -64t83 -26q59 0 102.5 25t43.5 80q0 64 -77 64h-97q-14 0 -36 2q-46 -24 -46 -81zM168 326q0 -40 21 -60t56 -20q47 0 79 30.5t32 80.5q0 41 -21 62t-56 21q-46 0 -78.5 -32.5t-32.5 -81.5zM270 576l-87 205h119l29 -205h-61z
" />
    <glyph glyph-name="Hcircumflex" unicode="&#x124;" horiz-adv-x="695" 
d="M124 0h-89l137 700h89l-56 -286h310l56 286h89l-137 -700h-89l65 330h-310zM351 762h-98l179 164h31l124 -164h-89l-61 80z" />
    <glyph glyph-name="hcircumflex" unicode="&#x125;" horiz-adv-x="584" 
d="M115 0h-85l137 708h85l-58 -298q74 102 190 102q56 0 89.5 -29t33.5 -83q0 -18 -5 -50l-68 -350h-85l64 333q3 12 3 36q0 67 -69 67q-57 0 -114.5 -61.5t-76.5 -160.5zM263 762h-98l179 164h31l124 -164h-89l-61 80z" />
    <glyph glyph-name="Hbar" unicode="&#x126;" horiz-adv-x="695" 
d="M124 0h-89l101 516h-75l15 76h75l21 108h89l-21 -108h310l21 108h89l-21 -108h75l-15 -76h-75l-101 -516h-89l65 330h-310zM225 516l-20 -102h310l20 102h-310z" />
    <glyph glyph-name="hbar" unicode="&#x127;" horiz-adv-x="584" 
d="M115 0h-85l110 572h-71l14 68h70l14 68h85l-14 -68h127l-14 -68h-126l-31 -162q74 102 190 102q56 0 89.5 -29t33.5 -83q0 -18 -5 -50l-68 -350h-85l64 333q3 12 3 36q0 67 -69 67q-57 0 -114.5 -61.5t-76.5 -160.5z" />
    <glyph glyph-name="Itilde" unicode="&#x128;" horiz-adv-x="296" 
d="M124 0h-89l137 700h89zM108 781l-41 42q54 73 121 73q36 0 66.5 -20t53.5 -20q38 0 73 35l41 -43q-54 -72 -121 -72q-36 0 -66.5 20t-53.5 20q-38 0 -73 -35z" />
    <glyph glyph-name="itilde" unicode="&#x129;" horiz-adv-x="276" 
d="M115 0h-85l98 504h85zM65 585l-41 42q54 73 121 73q36 0 66.5 -20t53.5 -20q38 0 73 35l41 -43q-54 -72 -121 -72q-36 0 -66.5 20t-53.5 20q-38 0 -73 -35z" />
    <glyph glyph-name="Imacron" unicode="&#x12a;" horiz-adv-x="296" 
d="M124 0h-89l137 700h89zM362 808h-249l15 76h249z" />
    <glyph glyph-name="imacron" unicode="&#x12b;" horiz-adv-x="276" 
d="M115 0h-85l98 504h85zM314 613h-249l15 76h249z" />
    <glyph glyph-name="Ibreve" unicode="&#x12c;" horiz-adv-x="296" 
d="M124 0h-89l137 700h89zM139 874q0 8 2 22h67q-1 -3 -1 -10q0 -35 36 -35q45 0 53 45h67q-13 -53 -48 -81t-84 -28q-40 0 -66 24t-26 63z" />
    <glyph glyph-name="ibreve" unicode="&#x12d;" horiz-adv-x="276" 
d="M115 0h-85l98 504h85zM104 678q0 8 2 22h67q-1 -3 -1 -10q0 -35 36 -35q45 0 53 45h67q-13 -53 -48 -81t-84 -28q-40 0 -66 24t-26 63z" />
    <glyph glyph-name="Iogonek" unicode="&#x12e;" horiz-adv-x="296" 
d="M-18 -108q0 58 80 108h-27l137 700h89l-137 -700q-73 -45 -73 -85q0 -25 25 -25q16 0 29 9t34 32l36 -35q-31 -39 -58.5 -55t-63.5 -16q-32 0 -51.5 18t-19.5 49z" />
    <glyph glyph-name="iogonek" unicode="&#x12f;" horiz-adv-x="276" 
d="M-27 -108q0 58 80 108h-23l98 504h85l-98 -504q-73 -45 -73 -85q0 -25 25 -25q16 0 29 9t34 32l36 -35q-31 -39 -58.5 -55t-63.5 -16q-32 0 -51.5 18t-19.5 49zM132 644q0 27 18 45.5t45 18.5t45 -18.5t18 -45.5q0 -26 -18 -44t-45 -18t-45 18t-18 44z" />
    <glyph glyph-name="Idot" unicode="&#x130;" horiz-adv-x="296" 
d="M124 0h-89l137 700h89zM174 840q0 27 18.5 45.5t44.5 18.5q27 0 45 -18.5t18 -45.5q0 -26 -18 -44t-45 -18q-26 0 -44.5 18t-18.5 44z" />
    <glyph glyph-name="dotlessi" unicode="&#x131;" horiz-adv-x="276" 
d="M115 0h-85l98 504h85z" />
    <glyph glyph-name="IJ" unicode="&#x132;" horiz-adv-x="837" 
d="M124 0h-89l137 700h89zM301 175l89 19q0 -118 99 -118q108 0 136 143l93 481h89l-100 -515q-18 -96 -78 -144.5t-150 -48.5q-80 0 -129 55t-49 128z" />
    <glyph glyph-name="ij" unicode="&#x133;" horiz-adv-x="521" 
d="M115 0h-85l98 504h85zM132 644q0 27 18 45.5t45 18.5t45 -18.5t18 -45.5q0 -26 -18 -44t-45 -18t-45 18t-18 44zM165 -212l-8 82q51 13 77.5 36t37.5 76l101 522h85l-103 -530q-18 -89 -62.5 -131.5t-127.5 -54.5zM377 644q0 27 18 45.5t45 18.5t45 -18.5t18 -45.5
q0 -26 -18 -44t-45 -18t-45 18t-18 44z" />
    <glyph glyph-name="Jcircumflex" unicode="&#x134;" horiz-adv-x="541" 
d="M5 175l89 19q0 -118 99 -118q108 0 136 143l93 481h89l-100 -515q-18 -96 -78 -144.5t-150 -48.5q-80 0 -129 55t-49 128zM401 762h-98l179 164h31l124 -164h-89l-61 80z" />
    <glyph glyph-name="jcircumflex" unicode="&#x135;" horiz-adv-x="276" 
d="M-80 -212l-8 82q51 13 77.5 36t37.5 76l101 522h85l-103 -530q-18 -89 -62.5 -131.5t-127.5 -54.5zM107 566h-98l179 164h31l124 -164h-89l-61 80z" />
    <glyph glyph-name="Kcommaaccent" unicode="&#x136;" horiz-adv-x="597" 
d="M124 0h-89l137 700h89l-55 -281l298 281h120l-341 -318l224 -382h-108l-206 353zM174 -268h-63l102 217h117z" />
    <glyph glyph-name="kcommaaccent" unicode="&#x137;" horiz-adv-x="508" 
d="M115 0h-85l137 708h85l-80 -415l216 211h115l-249 -236l171 -268h-103l-158 253zM124 -268h-63l102 217h117z" />
    <glyph glyph-name="kgreenlandic" unicode="&#x138;" horiz-adv-x="508" 
d="M115 0h-85l98 504h85l-41 -211l216 211h115l-249 -236l171 -268h-103l-158 253z" />
    <glyph glyph-name="Lacute" unicode="&#x139;" horiz-adv-x="506" 
d="M432 0h-397l137 700h89l-120 -616h308zM252 756h-72l97 144h123z" />
    <glyph glyph-name="lacute" unicode="&#x13a;" horiz-adv-x="306" 
d="M134 0h-85l137 708h85zM265 756h-72l97 144h123z" />
    <glyph glyph-name="Lcommaaccent" unicode="&#x13b;" horiz-adv-x="506" 
d="M432 0h-397l137 700h89l-120 -616h308zM153 -268h-63l102 217h117z" />
    <glyph glyph-name="lcommaaccent" unicode="&#x13c;" horiz-adv-x="306" 
d="M134 0h-85l137 708h85zM-13 -268h-63l102 217h117z" />
    <glyph glyph-name="Lcaron" unicode="&#x13d;" horiz-adv-x="506" 
d="M432 0h-397l137 700h89l-120 -616h308zM403 496h-64l103 205h125z" />
    <glyph glyph-name="lcaron" unicode="&#x13e;" horiz-adv-x="470" 
d="M134 0h-85l137 708h85zM367 503h-64l103 205h125z" />
    <glyph glyph-name="Ldot" unicode="&#x13f;" horiz-adv-x="506" 
d="M432 0h-397l137 700h89l-120 -616h308zM339 369q0 26 18 44.5t45 18.5q26 0 44.5 -18.5t18.5 -44.5q0 -27 -18.5 -45t-44.5 -18q-27 0 -45 18t-18 45z" />
    <glyph glyph-name="ldot" unicode="&#x140;" horiz-adv-x="487" 
d="M134 0h-85l137 708h85zM292 369q0 26 18 44.5t45 18.5q26 0 44.5 -18.5t18.5 -44.5q0 -27 -18.5 -45t-44.5 -18q-27 0 -45 18t-18 45z" />
    <glyph glyph-name="Lslash" unicode="&#x141;" horiz-adv-x="506" 
d="M15 228l-23 65l111 56l69 351h89l-59 -302l129 65l24 -65l-170 -85l-44 -229h308l-17 -84h-397l52 264z" />
    <glyph glyph-name="lslash" unicode="&#x142;" horiz-adv-x="324" 
d="M40 259l-22 65l112 56l63 328h85l-55 -282l74 37l23 -65l-113 -56l-66 -342h-85l57 295z" />
    <glyph glyph-name="Nacute" unicode="&#x143;" horiz-adv-x="706" 
d="M124 0h-89l137 700h99l204 -547l107 547h89l-137 -700h-99l-205 545zM421 756h-72l97 144h123z" />
    <glyph glyph-name="nacute" unicode="&#x144;" horiz-adv-x="577" 
d="M115 0h-85l98 504h85l-18 -93q76 101 182 101q58 0 90 -28.5t32 -81.5q0 -32 -3 -47l-69 -355h-85l64 333q4 16 4 35q0 68 -67 68q-54 0 -111 -63t-76 -162zM342 560h-72l97 144h123z" />
    <glyph glyph-name="Ncommaaccent" unicode="&#x145;" horiz-adv-x="706" 
d="M124 0h-89l137 700h99l204 -547l107 547h89l-137 -700h-99l-205 545zM187 -268h-63l102 217h117z" />
    <glyph glyph-name="ncommaaccent" unicode="&#x146;" horiz-adv-x="577" 
d="M115 0h-85l98 504h85l-18 -93q76 101 182 101q58 0 90 -28.5t32 -81.5q0 -32 -3 -47l-69 -355h-85l64 333q4 16 4 35q0 68 -67 68q-54 0 -111 -63t-76 -162zM135 -268h-63l102 217h117z" />
    <glyph glyph-name="Ncaron" unicode="&#x147;" horiz-adv-x="706" 
d="M124 0h-89l137 700h99l204 -547l107 547h89l-137 -700h-99l-205 545zM392 766l-124 164h89l61 -80l86 80h98l-179 -164h-31z" />
    <glyph glyph-name="ncaron" unicode="&#x148;" horiz-adv-x="577" 
d="M115 0h-85l98 504h85l-18 -93q76 101 182 101q58 0 90 -28.5t32 -81.5q0 -32 -3 -47l-69 -355h-85l64 333q4 16 4 35q0 68 -67 68q-54 0 -111 -63t-76 -162zM314 566l-124 164h89l61 -80l86 80h98l-179 -164h-31z" />
    <glyph glyph-name="napostrophe" unicode="&#x149;" horiz-adv-x="687" 
d="M225 0h-85l98 504h85l-18 -93q76 101 182 101q58 0 90 -28.5t32 -81.5q0 -32 -3 -47l-69 -355h-85l64 333q4 16 4 35q0 68 -67 68q-54 0 -111 -63t-76 -162zM140 503h-64l103 205h125z" />
    <glyph glyph-name="Eng" unicode="&#x14a;" horiz-adv-x="706" 
d="M124 0h-89l137 700h99l204 -547l107 547h89l-137 -700q-21 -105 -84.5 -158.5t-154.5 -53.5l17 84q105 0 133 128l-215 545z" />
    <glyph glyph-name="eng" unicode="&#x14b;" horiz-adv-x="577" 
d="M115 0h-85l98 504h85l-18 -93q76 101 182 101q58 0 90 -28.5t32 -81.5q0 -32 -3 -47l-74 -381q-18 -89 -62.5 -131.5t-127.5 -54.5l-8 82q51 13 77.5 36t37.5 76l67 351q4 16 4 35q0 68 -67 68q-54 0 -111 -63t-76 -162z" />
    <glyph glyph-name="Omacron" unicode="&#x14c;" horiz-adv-x="713" 
d="M39 275q0 217 151 348q98 85 235 85q110 0 178.5 -75.5t68.5 -207.5q0 -217 -151 -348q-98 -85 -235 -85q-110 0 -178.5 75.5t-68.5 207.5zM131 283q0 -101 43.5 -154t126.5 -53q104 0 181 82q98 104 98 259q0 101 -43.5 154t-126.5 53q-104 0 -181 -82
q-98 -104 -98 -259zM577 808h-249l15 76h249z" />
    <glyph glyph-name="omacron" unicode="&#x14d;" horiz-adv-x="573" 
d="M27 204q0 124 69 210q78 98 213 98q93 0 146 -55.5t53 -156.5q0 -124 -69 -210q-78 -98 -213 -98q-93 0 -146 55.5t-53 156.5zM116 216q0 -71 29.5 -109.5t88.5 -38.5q86 0 140 71q45 59 45 149q0 71 -29.5 109.5t-88.5 38.5q-86 0 -140 -71q-45 -59 -45 -149zM449 613
h-249l15 76h249z" />
    <glyph glyph-name="Obreve" unicode="&#x14e;" horiz-adv-x="713" 
d="M39 275q0 217 151 348q98 85 235 85q110 0 178.5 -75.5t68.5 -207.5q0 -217 -151 -348q-98 -85 -235 -85q-110 0 -178.5 75.5t-68.5 207.5zM131 283q0 -101 43.5 -154t126.5 -53q104 0 181 82q98 104 98 259q0 101 -43.5 154t-126.5 53q-104 0 -181 -82
q-98 -104 -98 -259zM354 874q0 8 2 22h67q-1 -3 -1 -10q0 -35 36 -35q45 0 53 45h67q-13 -53 -48 -81t-84 -28q-40 0 -66 24t-26 63z" />
    <glyph glyph-name="obreve" unicode="&#x14f;" horiz-adv-x="573" 
d="M27 204q0 124 69 210q78 98 213 98q93 0 146 -55.5t53 -156.5q0 -124 -69 -210q-78 -98 -213 -98q-93 0 -146 55.5t-53 156.5zM116 216q0 -71 29.5 -109.5t88.5 -38.5q86 0 140 71q45 59 45 149q0 71 -29.5 109.5t-88.5 38.5q-86 0 -140 -71q-45 -59 -45 -149zM235 678
q0 8 2 22h67q-1 -3 -1 -10q0 -35 36 -35q45 0 53 45h67q-13 -53 -48 -81t-84 -28q-40 0 -66 24t-26 63z" />
    <glyph glyph-name="Ohungarumlaut" unicode="&#x150;" horiz-adv-x="713" 
d="M39 275q0 217 151 348q98 85 235 85q110 0 178.5 -75.5t68.5 -207.5q0 -217 -151 -348q-98 -85 -235 -85q-110 0 -178.5 75.5t-68.5 207.5zM131 283q0 -101 43.5 -154t126.5 -53q104 0 181 82q98 104 98 259q0 101 -43.5 154t-126.5 53q-104 0 -181 -82
q-98 -104 -98 -259zM348 756h-72l97 144h123zM528 756h-72l97 144h123z" />
    <glyph glyph-name="ohungarumlaut" unicode="&#x151;" horiz-adv-x="573" 
d="M27 204q0 124 69 210q78 98 213 98q93 0 146 -55.5t53 -156.5q0 -124 -69 -210q-78 -98 -213 -98q-93 0 -146 55.5t-53 156.5zM116 216q0 -71 29.5 -109.5t88.5 -38.5q86 0 140 71q45 59 45 149q0 71 -29.5 109.5t-88.5 38.5q-86 0 -140 -71q-45 -59 -45 -149zM228 560
h-72l97 144h123zM408 560h-72l97 144h123z" />
    <glyph glyph-name="OE" unicode="&#x152;" horiz-adv-x="1038" 
d="M39 275q0 217 151 348q98 85 235 85t202 -108l20 100h396l-17 -84h-307l-39 -201h250l-16 -84h-250l-48 -247h317l-17 -84h-406l16 81l-5 -4q-98 -85 -235 -85q-110 0 -178.5 75.5t-68.5 207.5zM131 283q0 -101 43.5 -154t126.5 -53q107 0 183 81q96 102 96 260
q0 101 -43.5 154t-126.5 53q-104 0 -181 -82q-98 -104 -98 -259z" />
    <glyph glyph-name="oe" unicode="&#x153;" horiz-adv-x="950" 
d="M27 204q0 124 69 210q78 98 213 98q130 0 179 -108q88 108 217 108q86 0 136 -51t50 -138q0 -21 -5 -50l-8 -39h-374q-3 -20 -3 -36q0 -61 30.5 -95.5t87.5 -34.5q53 0 89 24t68 75l72 -35q-51 -75 -107 -107.5t-137 -32.5q-115 0 -165 97q-79 -97 -213 -97
q-89 0 -144 57t-55 155zM116 216q0 -72 30.5 -110t87.5 -38q87 0 141 71q44 57 44 149q0 72 -30.5 110t-87.5 38q-86 0 -140 -71q-45 -59 -45 -149zM524 310h278q0 126 -112 126q-55 0 -99.5 -34.5t-66.5 -91.5z" />
    <glyph glyph-name="Racute" unicode="&#x154;" horiz-adv-x="596" 
d="M124 0h-89l137 700h222q84 0 131 -42t47 -115q0 -87 -49 -141.5t-136 -65.5l143 -336h-99l-139 330h-103zM244 616l-39 -202h139q64 0 100 28.5t36 84.5q0 89 -100 89h-136zM350 756h-72l97 144h123z" />
    <glyph glyph-name="racute" unicode="&#x155;" horiz-adv-x="437" 
d="M115 0h-85l98 504h85l-17 -86q59 94 163 94q45 0 69 -15l-31 -75q-26 14 -53 14q-55 0 -109 -51t-76 -162zM277 560h-72l97 144h123z" />
    <glyph glyph-name="Rcommaaccent" unicode="&#x156;" horiz-adv-x="596" 
d="M124 0h-89l137 700h222q84 0 131 -42t47 -115q0 -87 -49 -141.5t-136 -65.5l143 -336h-99l-139 330h-103zM244 616l-39 -202h139q64 0 100 28.5t36 84.5q0 89 -100 89h-136zM180 -268h-63l102 217h117z" />
    <glyph glyph-name="rcommaaccent" unicode="&#x157;" horiz-adv-x="437" 
d="M115 0h-85l98 504h85l-17 -86q59 94 163 94q45 0 69 -15l-31 -75q-26 14 -53 14q-55 0 -109 -51t-76 -162zM-2 -268h-63l102 217h117z" />
    <glyph glyph-name="Rcaron" unicode="&#x158;" horiz-adv-x="596" 
d="M124 0h-89l137 700h222q84 0 131 -42t47 -115q0 -87 -49 -141.5t-136 -65.5l143 -336h-99l-139 330h-103zM244 616l-39 -202h139q64 0 100 28.5t36 84.5q0 89 -100 89h-136zM346 762l-124 164h89l61 -80l86 80h98l-179 -164h-31z" />
    <glyph glyph-name="rcaron" unicode="&#x159;" horiz-adv-x="437" 
d="M115 0h-85l98 504h85l-17 -86q59 94 163 94q45 0 69 -15l-31 -75q-26 14 -53 14q-55 0 -109 -51t-76 -162zM264 566l-124 164h89l61 -80l86 80h98l-179 -164h-31z" />
    <glyph glyph-name="Sacute" unicode="&#x15a;" horiz-adv-x="523" 
d="M22 184l80 43q4 -67 36.5 -109t91.5 -42q60 0 100 34t40 97q0 47 -25.5 74t-81.5 54q-63 31 -100 73t-37 106q0 92 57 143t148 51q60 0 101.5 -36.5t54.5 -87.5l-76 -42q-17 44 -40 63t-56 19q-47 0 -72 -25.5t-25 -71.5q0 -43 26 -68.5t85 -56.5q71 -38 102 -74t31 -105
q0 -106 -66 -166q-40 -37 -82.5 -51t-102.5 -14q-75 0 -132 56.5t-57 135.5zM333 756h-72l97 144h123z" />
    <glyph glyph-name="sacute" unicode="&#x15b;" horiz-adv-x="460" 
d="M16 135l74 36q21 -103 114 -103q38 0 60.5 20.5t22.5 53.5q0 35 -21 53t-71 39q-99 43 -99 134q0 68 44 106t119 38q48 0 86.5 -22.5t58.5 -61.5l-66 -49q-38 57 -89 57q-29 0 -48.5 -17t-19.5 -46q0 -27 18 -43.5t51 -31.5q27 -11 44.5 -21t39 -26.5t32 -39.5t10.5 -53
q0 -77 -51 -121.5t-131 -44.5q-74 0 -121.5 42.5t-56.5 100.5zM274 560h-72l97 144h123z" />
    <glyph glyph-name="Scircumflex" unicode="&#x15c;" horiz-adv-x="523" 
d="M22 184l80 43q4 -67 36.5 -109t91.5 -42q60 0 100 34t40 97q0 47 -25.5 74t-81.5 54q-63 31 -100 73t-37 106q0 92 57 143t148 51q60 0 101.5 -36.5t54.5 -87.5l-76 -42q-17 44 -40 63t-56 19q-47 0 -72 -25.5t-25 -71.5q0 -43 26 -68.5t85 -56.5q71 -38 102 -74t31 -105
q0 -106 -66 -166q-40 -37 -82.5 -51t-102.5 -14q-75 0 -132 56.5t-57 135.5zM269 762h-98l179 164h31l124 -164h-89l-61 80z" />
    <glyph glyph-name="scircumflex" unicode="&#x15d;" horiz-adv-x="460" 
d="M16 135l74 36q21 -103 114 -103q38 0 60.5 20.5t22.5 53.5q0 35 -21 53t-71 39q-99 43 -99 134q0 68 44 106t119 38q48 0 86.5 -22.5t58.5 -61.5l-66 -49q-38 57 -89 57q-29 0 -48.5 -17t-19.5 -46q0 -27 18 -43.5t51 -31.5q27 -11 44.5 -21t39 -26.5t32 -39.5t10.5 -53
q0 -77 -51 -121.5t-131 -44.5q-74 0 -121.5 42.5t-56.5 100.5zM213 566h-98l179 164h31l124 -164h-89l-61 80z" />
    <glyph glyph-name="Scedilla" unicode="&#x15e;" horiz-adv-x="523" 
d="M22 184l80 43q4 -67 36.5 -109t91.5 -42q60 0 100 34t40 97q0 47 -25.5 74t-81.5 54q-63 31 -100 73t-37 106q0 92 57 143t148 51q60 0 101.5 -36.5t54.5 -87.5l-76 -42q-17 44 -40 63t-56 19q-47 0 -72 -25.5t-25 -71.5q0 -43 26 -68.5t85 -56.5q71 -38 102 -74t31 -105
q0 -106 -66 -166q-40 -37 -82.5 -51t-102.5 -14q-75 0 -132 56.5t-57 135.5zM160 -235l-89 45l126 130h74z" />
    <glyph glyph-name="scedilla" unicode="&#x15f;" horiz-adv-x="460" 
d="M16 135l74 36q21 -103 114 -103q38 0 60.5 20.5t22.5 53.5q0 35 -21 53t-71 39q-99 43 -99 134q0 68 44 106t119 38q48 0 86.5 -22.5t58.5 -61.5l-66 -49q-38 57 -89 57q-29 0 -48.5 -17t-19.5 -46q0 -27 18 -43.5t51 -31.5q27 -11 44.5 -21t39 -26.5t32 -39.5t10.5 -53
q0 -77 -51 -121.5t-131 -44.5q-74 0 -121.5 42.5t-56.5 100.5zM111 -235l-89 45l126 130h74z" />
    <glyph glyph-name="Scaron" unicode="&#x160;" horiz-adv-x="523" 
d="M22 184l80 43q4 -67 36.5 -109t91.5 -42q60 0 100 34t40 97q0 47 -25.5 74t-81.5 54q-63 31 -100 73t-37 106q0 92 57 143t148 51q60 0 101.5 -36.5t54.5 -87.5l-76 -42q-17 44 -40 63t-56 19q-47 0 -72 -25.5t-25 -71.5q0 -43 26 -68.5t85 -56.5q71 -38 102 -74t31 -105
q0 -106 -66 -166q-40 -37 -82.5 -51t-102.5 -14q-75 0 -132 56.5t-57 135.5zM318 762l-124 164h89l61 -80l86 80h98l-179 -164h-31z" />
    <glyph glyph-name="scaron" unicode="&#x161;" horiz-adv-x="460" 
d="M16 135l74 36q21 -103 114 -103q38 0 60.5 20.5t22.5 53.5q0 35 -21 53t-71 39q-99 43 -99 134q0 68 44 106t119 38q48 0 86.5 -22.5t58.5 -61.5l-66 -49q-38 57 -89 57q-29 0 -48.5 -17t-19.5 -46q0 -27 18 -43.5t51 -31.5q27 -11 44.5 -21t39 -26.5t32 -39.5t10.5 -53
q0 -77 -51 -121.5t-131 -44.5q-74 0 -121.5 42.5t-56.5 100.5zM265 566l-124 164h89l61 -80l86 80h98l-179 -164h-31z" />
    <glyph glyph-name="Tcommaaccent" unicode="&#x162;" horiz-adv-x="507" 
d="M258 616h-197l17 84h483l-17 -84h-197l-120 -616h-89zM79 -268h-63l102 217h117z" />
    <glyph glyph-name="tcommaaccent" unicode="&#x163;" horiz-adv-x="350" 
d="M116 428h-87l14 76h87l30 151l94 53l-40 -204h127l-14 -76h-127l-52 -268q-5 -18 -5 -36q0 -56 54 -56q32 0 60 16l6 -73q-34 -19 -86 -19q-57 0 -88 30t-31 87q0 14 7 58zM58 -268h-63l102 217h117z" />
    <glyph glyph-name="Tcaron" unicode="&#x164;" horiz-adv-x="507" 
d="M258 616h-197l17 84h483l-17 -84h-197l-120 -616h-89zM311 762l-124 164h89l61 -80l86 80h98l-179 -164h-31z" />
    <glyph glyph-name="tcaron" unicode="&#x165;" horiz-adv-x="567" 
d="M116 428h-87l14 76h87l30 151l94 53l-40 -204h127l-14 -76h-127l-52 -268q-5 -18 -5 -36q0 -56 54 -56q32 0 60 16l6 -73q-34 -19 -86 -19q-57 0 -88 30t-31 87q0 14 7 58zM464 503h-64l103 205h125z" />
    <glyph glyph-name="Tbar" unicode="&#x166;" horiz-adv-x="507" 
d="M214 392h-170l14 76h171l29 148h-197l17 84h483l-17 -84h-197l-29 -148h170l-14 -76h-171l-76 -392h-89z" />
    <glyph glyph-name="tbar" unicode="&#x167;" horiz-adv-x="350" 
d="M83 259h-71l13 68h71l20 101h-87l14 76h87l30 151l94 53l-40 -204h127l-14 -76h-127l-20 -101h115l-13 -68h-115l-19 -99q-5 -18 -5 -36q0 -56 54 -56q32 0 60 16l6 -73q-34 -19 -86 -19q-57 0 -88 30t-31 87q0 14 7 58z" />
    <glyph glyph-name="Utilde" unicode="&#x168;" horiz-adv-x="672" 
d="M70 171q0 35 6 67l89 462h89l-91 -468q-4 -17 -4 -40q0 -116 122 -116q77 0 124.5 40.5t61.5 115.5l91 468h89l-89 -462q-47 -246 -288 -246q-90 0 -145 49.5t-55 129.5zM286 781l-41 42q54 73 121 73q36 0 66.5 -20t53.5 -20q38 0 73 35l41 -43q-54 -72 -121 -72
q-36 0 -66.5 20t-53.5 20q-38 0 -73 -35z" />
    <glyph glyph-name="utilde" unicode="&#x169;" horiz-adv-x="577" 
d="M52 102q0 32 3 47l69 355h85l-64 -333q-4 -16 -4 -35q0 -68 67 -68q54 0 111.5 63t75.5 162l41 211h85l-98 -504h-85l18 93q-76 -101 -182 -101q-58 0 -90 28.5t-32 81.5zM203 585l-41 42q54 73 121 73q36 0 66.5 -20t53.5 -20q38 0 73 35l41 -43q-54 -72 -121 -72
q-36 0 -66.5 20t-53.5 20q-38 0 -73 -35z" />
    <glyph glyph-name="Umacron" unicode="&#x16a;" horiz-adv-x="672" 
d="M70 171q0 35 6 67l89 462h89l-91 -468q-4 -17 -4 -40q0 -116 122 -116q77 0 124.5 40.5t61.5 115.5l91 468h89l-89 -462q-47 -246 -288 -246q-90 0 -145 49.5t-55 129.5zM548 808h-249l15 76h249z" />
    <glyph glyph-name="umacron" unicode="&#x16b;" horiz-adv-x="577" 
d="M52 102q0 32 3 47l69 355h85l-64 -333q-4 -16 -4 -35q0 -68 67 -68q54 0 111.5 63t75.5 162l41 211h85l-98 -504h-85l18 93q-76 -101 -182 -101q-58 0 -90 28.5t-32 81.5zM465 613h-249l15 76h249z" />
    <glyph glyph-name="Ubreve" unicode="&#x16c;" horiz-adv-x="672" 
d="M70 171q0 35 6 67l89 462h89l-91 -468q-4 -17 -4 -40q0 -116 122 -116q77 0 124.5 40.5t61.5 115.5l91 468h89l-89 -462q-47 -246 -288 -246q-90 0 -145 49.5t-55 129.5zM324 874q0 8 2 22h67q-1 -3 -1 -10q0 -35 36 -35q45 0 53 45h67q-13 -53 -48 -81t-84 -28
q-40 0 -66 24t-26 63z" />
    <glyph glyph-name="ubreve" unicode="&#x16d;" horiz-adv-x="577" 
d="M52 102q0 32 3 47l69 355h85l-64 -333q-4 -16 -4 -35q0 -68 67 -68q54 0 111.5 63t75.5 162l41 211h85l-98 -504h-85l18 93q-76 -101 -182 -101q-58 0 -90 28.5t-32 81.5zM238 678q0 8 2 22h67q-1 -3 -1 -10q0 -35 36 -35q45 0 53 45h67q-13 -53 -48 -81t-84 -28
q-40 0 -66 24t-26 63z" />
    <glyph glyph-name="Uring" unicode="&#x16e;" horiz-adv-x="672" 
d="M70 171q0 35 6 67l89 462h89l-91 -468q-4 -17 -4 -40q0 -116 122 -116q77 0 124.5 40.5t61.5 115.5l91 468h89l-89 -462q-47 -246 -288 -246q-90 0 -145 49.5t-55 129.5zM310 849q0 42 28.5 71t70.5 29q44 0 71.5 -28.5t27.5 -71.5q0 -42 -27.5 -69t-71.5 -27
q-42 0 -70.5 28t-28.5 68zM366 850q0 -19 12 -31.5t31 -12.5q20 0 31.5 12.5t11.5 31.5q0 21 -11.5 33.5t-31.5 12.5q-19 0 -31 -13t-12 -33z" />
    <glyph glyph-name="uring" unicode="&#x16f;" horiz-adv-x="577" 
d="M52 102q0 32 3 47l69 355h85l-64 -333q-4 -16 -4 -35q0 -68 67 -68q54 0 111.5 63t75.5 162l41 211h85l-98 -504h-85l18 93q-76 -101 -182 -101q-58 0 -90 28.5t-32 81.5zM241 653q0 42 28.5 71t70.5 29q44 0 71.5 -28.5t27.5 -71.5q0 -42 -27.5 -69t-71.5 -27
q-42 0 -70.5 28t-28.5 68zM297 654q0 -19 12 -31.5t31 -12.5q20 0 31.5 12.5t11.5 31.5q0 21 -11.5 33.5t-31.5 12.5q-19 0 -31 -13t-12 -33z" />
    <glyph glyph-name="Uhungarumlaut" unicode="&#x170;" horiz-adv-x="672" 
d="M70 171q0 35 6 67l89 462h89l-91 -468q-4 -17 -4 -40q0 -116 122 -116q77 0 124.5 40.5t61.5 115.5l91 468h89l-89 -462q-47 -246 -288 -246q-90 0 -145 49.5t-55 129.5zM306 756h-72l97 144h123zM486 756h-72l97 144h123z" />
    <glyph glyph-name="uhungarumlaut" unicode="&#x171;" horiz-adv-x="577" 
d="M52 102q0 32 3 47l69 355h85l-64 -333q-4 -16 -4 -35q0 -68 67 -68q54 0 111.5 63t75.5 162l41 211h85l-98 -504h-85l18 93q-76 -101 -182 -101q-58 0 -90 28.5t-32 81.5zM220 560h-72l97 144h123zM400 560h-72l97 144h123z" />
    <glyph glyph-name="Uogonek" unicode="&#x172;" horiz-adv-x="672" 
d="M70 171q0 35 6 67l89 462h89l-91 -468q-4 -17 -4 -40q0 -116 122 -116q77 0 124.5 40.5t61.5 115.5l91 468h89l-89 -462q-40 -204 -207 -238q-73 -45 -73 -85q0 -25 25 -25q16 0 29 9t34 32l36 -35q-31 -39 -58.5 -55t-63.5 -16q-32 0 -51.5 18t-19.5 49q0 55 67 100h-6
q-90 0 -145 49.5t-55 129.5z" />
    <glyph glyph-name="uogonek" unicode="&#x173;" horiz-adv-x="577" 
d="M52 102q0 32 3 47l69 355h85l-64 -333q-4 -16 -4 -35q0 -68 67 -68q54 0 111.5 63t75.5 162l41 211h85l-98 -504q-73 -45 -73 -85q0 -25 25 -25q16 0 29 9t34 32l36 -35q-31 -39 -58.5 -55t-63.5 -16q-32 0 -51.5 18t-19.5 49q0 58 80 108h-23l18 93q-76 -101 -182 -101
q-58 0 -90 28.5t-32 81.5z" />
    <glyph glyph-name="Wcircumflex" unicode="&#x174;" horiz-adv-x="886" 
d="M142 0l-52 700h93l28 -570l233 496h83l50 -496l249 570h94l-319 -700h-89l-55 480l-226 -480h-89zM438 762h-98l179 164h31l124 -164h-89l-61 80z" />
    <glyph glyph-name="wcircumflex" unicode="&#x175;" horiz-adv-x="723" 
d="M113 0l-58 504h86l31 -391l173 391h86l19 -391l176 391h89l-245 -504h-82l-22 381l-171 -381h-82zM321 566h-98l179 164h31l124 -164h-89l-61 80z" />
    <glyph glyph-name="Ycircumflex" unicode="&#x176;" horiz-adv-x="484" 
d="M182 302l-126 398h94l91 -310l210 310h99l-279 -398l-59 -302h-89zM224 762h-98l179 164h31l124 -164h-89l-61 80z" />
    <glyph glyph-name="ycircumflex" unicode="&#x177;" horiz-adv-x="466" 
d="M86 -204h-89l125 236l-81 472h89l58 -364l194 364h89zM181 566h-98l179 164h31l124 -164h-89l-61 80z" />
    <glyph glyph-name="Ydieresis" unicode="&#x178;" horiz-adv-x="484" 
d="M182 302l-126 398h94l91 -310l210 310h99l-279 -398l-59 -302h-89zM175 847q0 24 16.5 40.5t39.5 16.5q25 0 41 -16.5t16 -40.5t-16 -40t-41 -16q-23 0 -39.5 16t-16.5 40zM341 847q0 24 16.5 40.5t39.5 16.5q25 0 41 -16.5t16 -40.5t-16 -40t-41 -16q-23 0 -39.5 16
t-16.5 40z" />
    <glyph glyph-name="Zacute" unicode="&#x179;" horiz-adv-x="550" 
d="M434 0h-455l8 42l424 574h-310l17 84h435l-9 -42l-424 -574h331zM332 756h-72l97 144h123z" />
    <glyph glyph-name="zacute" unicode="&#x17a;" horiz-adv-x="468" 
d="M360 0h-365l7 36l307 392h-227l14 76h347l-7 -36l-310 -392h248zM263 560h-72l97 144h123z" />
    <glyph glyph-name="Zdotaccent" unicode="&#x17b;" horiz-adv-x="550" 
d="M434 0h-455l8 42l424 574h-310l17 84h435l-9 -42l-424 -574h331zM276 840q0 27 18.5 45.5t44.5 18.5q27 0 45 -18.5t18 -45.5q0 -26 -18 -44t-45 -18q-26 0 -44.5 18t-18.5 44z" />
    <glyph glyph-name="zdotaccent" unicode="&#x17c;" horiz-adv-x="468" 
d="M360 0h-365l7 36l307 392h-227l14 76h347l-7 -36l-310 -392h248zM231 644q0 27 18.5 45.5t44.5 18.5q27 0 45 -18.5t18 -45.5q0 -26 -18 -44t-45 -18q-26 0 -44.5 18t-18.5 44z" />
    <glyph glyph-name="Zcaron" unicode="&#x17d;" horiz-adv-x="550" 
d="M434 0h-455l8 42l424 574h-310l17 84h435l-9 -42l-424 -574h331zM316 762l-124 164h89l61 -80l86 80h98l-179 -164h-31z" />
    <glyph glyph-name="zcaron" unicode="&#x17e;" horiz-adv-x="468" 
d="M360 0h-365l7 36l307 392h-227l14 76h347l-7 -36l-310 -392h248zM260 566l-124 164h89l61 -80l86 80h98l-179 -164h-31z" />
    <glyph glyph-name="longs" unicode="&#x17f;" horiz-adv-x="339" 
d="M115 0h-85l83 428h-72l15 76h72l6 33q17 90 62 130.5t125 40.5q38 0 72 -18l-31 -72q-26 14 -53 14q-37 0 -57.5 -20t-30.5 -68z" />
    <glyph glyph-name="uni018E" unicode="&#x18e;" horiz-adv-x="563" 
d="M122 700h406l-137 -700h-396l17 84h307l39 201h-250l16 84h250l48 247h-317z" />
    <glyph glyph-name="uni018F" unicode="&#x18f;" horiz-adv-x="562" 
d="M537 300q0 -119 -84 -213.5t-208 -94.5q-86 0 -136 51t-50 138q0 21 5 50l8 39h373q3 20 3 36q0 61 -30 95.5t-87 34.5q-53 0 -89 -24t-68 -75l-72 35q51 75 107 107.5t137 32.5q87 0 139 -58.5t52 -153.5zM426 194h-278q0 -126 112 -126q55 0 99.5 34.5t66.5 91.5z" />
    <glyph glyph-name="florin" unicode="&#x192;" horiz-adv-x="438" 
d="M-60 -196l31 74q26 -14 54 -14q41 0 63.5 22.5t32.5 72.5l91 469h-89l14 76h89l7 33q34 171 196 171q41 0 69 -16l-31 -74q-26 14 -54 14q-41 0 -63.5 -22.5t-32.5 -72.5l-7 -33h114l-14 -76h-114l-91 -469q-33 -171 -196 -171q-41 0 -69 16z" />
    <glyph glyph-name="uni01B5" unicode="&#x1b5;" horiz-adv-x="550" 
d="M434 0h-455l8 42l207 281h-126l15 76h167l161 217h-310l17 84h435l-9 -42l-192 -259h118l-15 -76h-159l-176 -239h331z" />
    <glyph glyph-name="uni01B6" unicode="&#x1b6;" horiz-adv-x="468" 
d="M360 0h-365l7 36l152 194h-87l13 68h127l102 130h-227l14 76h347l-7 -36l-135 -170h83l-13 -68h-124l-121 -154h248z" />
    <glyph glyph-name="Aringacute" unicode="&#x1fa;" horiz-adv-x="574" 
d="M32 0h-89l372 700h85l106 -700h-89l-25 187h-261zM335 586l-160 -315h205zM273 823q0 42 28.5 71t70.5 29q44 0 71.5 -28.5t27.5 -71.5q0 -42 -27.5 -69t-71.5 -27q-42 0 -70.5 28t-28.5 68zM329 824q0 -19 12 -31.5t31 -12.5q20 0 31.5 12.5t11.5 31.5q0 21 -11.5 33.5
t-31.5 12.5q-19 0 -31 -13t-12 -33zM415 958h-72l97 144h123z" />
    <glyph glyph-name="aringacute" unicode="&#x1fb;" horiz-adv-x="586" 
d="M27 197q0 85 30 155t93 115t150 45q50 0 86.5 -21.5t47.5 -46.5l11 60h85l-97 -504h-85l12 62q-63 -70 -149 -70q-91 0 -137.5 57t-46.5 148zM116 220q0 -70 31.5 -111t87.5 -41q58 0 99 38.5t58 90t17 107.5q0 61 -30 96.5t-86 35.5q-58 0 -99.5 -34t-59.5 -81.5
t-18 -100.5zM236 653q0 42 28.5 71t70.5 29q44 0 71.5 -28.5t27.5 -71.5q0 -42 -27.5 -69t-71.5 -27q-42 0 -70.5 28t-28.5 68zM292 654q0 -19 12 -31.5t31 -12.5q20 0 31.5 12.5t11.5 31.5q0 21 -11.5 33.5t-31.5 12.5q-19 0 -31 -13t-12 -33zM380 786h-72l97 144h123z" />
    <glyph glyph-name="AEacute" unicode="&#x1fc;" horiz-adv-x="836" 
d="M41 0h-99l444 700h455l-17 -84h-307l-39 -201h250l-16 -84h-250l-48 -247h317l-17 -84h-406l37 187h-187zM406 585l-196 -314h151l61 314h-16zM610 756h-72l97 144h123z" />
    <glyph glyph-name="aeacute" unicode="&#x1fd;" horiz-adv-x="891" 
d="M27 131q0 93 62 136t162 43h122l5 22q2 10 2 14v10q0 80 -93 80q-80 0 -113 -81l-76 19q24 65 77 101.5t127 36.5q113 0 149 -83q83 83 195 83q86 0 136 -51t50 -138q0 -21 -5 -50l-8 -39h-374q-3 -20 -3 -36q0 -61 30.5 -95.5t87.5 -34.5q53 0 89 24t68 75l72 -35
q-51 -75 -107 -107.5t-137 -32.5q-125 0 -171 109q-67 -109 -187 -109q-76 0 -118 38.5t-42 100.5zM116 143q0 -35 22 -55t59 -20q54 0 98 37t59 117l2 12h-123q-52 0 -84.5 -22.5t-32.5 -68.5zM465 310h278q0 126 -112 126q-55 0 -99.5 -34.5t-66.5 -91.5zM487 560h-72
l97 144h123z" />
    <glyph glyph-name="circumflex" unicode="&#x2c6;" horiz-adv-x="396" 
d="M166 566h-98l179 164h31l124 -164h-89l-61 80z" />
    <glyph glyph-name="caron" unicode="&#x2c7;" horiz-adv-x="373" 
d="M208 566l-124 164h89l61 -80l86 80h98l-179 -164h-31z" />
    <glyph glyph-name="breve" unicode="&#x2d8;" horiz-adv-x="245" 
d="M70 678q0 8 2 22h67q-1 -3 -1 -10q0 -35 36 -35q45 0 53 45h67q-13 -53 -48 -81t-84 -28q-40 0 -66 24t-26 63z" />
    <glyph glyph-name="dotaccent" unicode="&#x2d9;" horiz-adv-x="276" 
d="M132 644q0 27 18.5 45.5t44.5 18.5q27 0 45 -18.5t18 -45.5q0 -26 -18 -44t-45 -18q-26 0 -44.5 18t-18.5 44z" />
    <glyph glyph-name="ring" unicode="&#x2da;" horiz-adv-x="209" 
d="M58 653q0 42 28.5 71t70.5 29q44 0 71.5 -28.5t27.5 -71.5q0 -42 -27.5 -69t-71.5 -27q-42 0 -70.5 28t-28.5 68zM114 654q0 -19 12 -31.5t31 -12.5q20 0 31.5 12.5t11.5 31.5q0 21 -11.5 33.5t-31.5 12.5q-19 0 -31 -13t-12 -33z" />
    <glyph glyph-name="ogonek" unicode="&#x2db;" horiz-adv-x="225" 
d="M-36 -168q0 58 80 108h62q-73 -45 -73 -85q0 -25 25 -25q16 0 29 9t34 32l36 -35q-31 -39 -58.5 -55t-63.5 -16q-32 0 -51.5 18t-19.5 49z" />
    <glyph glyph-name="tilde" unicode="&#x2dc;" horiz-adv-x="387" 
d="M108 585l-41 42q54 73 121 73q36 0 66.5 -20t53.5 -20q38 0 73 35l41 -43q-54 -72 -121 -72q-36 0 -66.5 20t-53.5 20q-38 0 -73 -35z" />
    <glyph glyph-name="hungarumlaut" unicode="&#x2dd;" horiz-adv-x="395" 
d="M120 560h-72l97 144h123zM300 560h-72l97 144h123z" />
    <glyph glyph-name="pi" unicode="&#x3c0;" horiz-adv-x="559" 
d="M126 428h-88v76h494v-76h-88v-428h-84v428h-150v-428h-84v428z" />
    <glyph glyph-name="uni0400" unicode="&#x400;" horiz-adv-x="563" 
d="M441 0h-406l137 700h396l-17 -84h-307l-39 -201h250l-16 -84h-250l-48 -247h317zM394 756l-101 144h121l48 -144h-68z" />
    <glyph glyph-name="afii10023" unicode="&#x401;" horiz-adv-x="563" 
d="M441 0h-406l137 700h396l-17 -84h-307l-39 -201h250l-16 -84h-250l-48 -247h317zM243 847q0 24 16.5 40.5t39.5 16.5q25 0 41 -16.5t16 -40.5t-16 -40t-41 -16q-23 0 -39.5 16t-16.5 40zM409 847q0 24 16.5 40.5t39.5 16.5q25 0 41 -16.5t16 -40.5t-16 -40t-41 -16
q-23 0 -39.5 16t-16.5 40z" />
    <glyph glyph-name="afii10051" unicode="&#x402;" horiz-adv-x="696" 
d="M258 616h-197l17 84h483l-17 -84h-197l-40 -205q74 101 189 101q56 0 89.5 -29t33.5 -83q0 -18 -5 -50l-34 -172q-18 -89 -62.5 -131.5t-127.5 -54.5l-8 82q51 13 77.5 36t37.5 76l28 147q3 12 3 36q0 67 -69 67q-57 0 -114.5 -61.5t-76.5 -160.5l-41 -214h-89z" />
    <glyph glyph-name="afii10052" unicode="&#x403;" horiz-adv-x="529" 
d="M123 0h-88l137 700h411l-17 -84h-323zM386 756h-72l97 144h123z" />
    <glyph glyph-name="afii10053" unicode="&#x404;" horiz-adv-x="662" 
d="M39 275q0 75 25 150t70.5 139t118.5 104t160 40q101 0 165 -58.5t76 -153.5l-84 -23q-27 151 -178 151q-84 0 -149.5 -62.5t-91.5 -169.5h330l-17 -84h-330q-4 -27 -4 -49q0 -87 42.5 -135t117.5 -48q151 0 227 153l80 -25q-43 -95 -126 -153.5t-187 -58.5
q-108 0 -176.5 72.5t-68.5 210.5z" />
    <glyph glyph-name="afii10054" unicode="&#x405;" horiz-adv-x="523" 
d="M22 184l80 43q4 -67 36.5 -109t91.5 -42q60 0 100 34t40 97q0 47 -25.5 74t-81.5 54q-63 31 -100 73t-37 106q0 92 57 143t148 51q60 0 101.5 -36.5t54.5 -87.5l-76 -42q-17 44 -40 63t-56 19q-47 0 -72 -25.5t-25 -71.5q0 -43 26 -68.5t85 -56.5q71 -38 102 -74t31 -105
q0 -106 -66 -166q-40 -37 -82.5 -51t-102.5 -14q-75 0 -132 56.5t-57 135.5z" />
    <glyph glyph-name="afii10055" unicode="&#x406;" horiz-adv-x="296" 
d="M124 0h-89l137 700h89z" />
    <glyph glyph-name="afii10056" unicode="&#x407;" horiz-adv-x="296" 
d="M124 0h-89l137 700h89zM100 847q0 24 16.5 40.5t39.5 16.5q25 0 41 -16.5t16 -40.5t-16 -40t-41 -16q-23 0 -39.5 16t-16.5 40zM266 847q0 24 16.5 40.5t39.5 16.5q25 0 41 -16.5t16 -40.5t-16 -40t-41 -16q-23 0 -39.5 16t-16.5 40z" />
    <glyph glyph-name="afii10057" unicode="&#x408;" horiz-adv-x="541" 
d="M5 175l89 19q0 -118 99 -118q108 0 136 143l93 481h89l-100 -515q-18 -96 -78 -144.5t-150 -48.5q-80 0 -129 55t-49 128z" />
    <glyph glyph-name="afii10058" unicode="&#x409;" horiz-adv-x="893" 
d="M-55 0l17 84q47 0 78.5 23t48.5 82l137 511h318l-55 -285h140q94 0 147 -46t53 -130q0 -115 -73.5 -177t-189.5 -62h-247l120 616h-147l-114 -430q-25 -95 -81 -140.5t-152 -45.5zM473 331l-48 -247h145q75 0 121 35.5t46 102.5q0 54 -31 81.5t-88 27.5h-145z" />
    <glyph glyph-name="afii10059" unicode="&#x40a;" horiz-adv-x="944" 
d="M124 0h-89l137 700h89l-56 -285h246l55 285h89l-55 -285h140q94 0 147 -46t53 -130q0 -115 -73.5 -177t-189.5 -62h-247l65 331h-246zM524 331l-48 -247h145q75 0 121 35.5t46 102.5q0 54 -31 81.5t-88 27.5h-145z" />
    <glyph glyph-name="afii10060" unicode="&#x40b;" horiz-adv-x="696" 
d="M258 616h-197l17 84h483l-17 -84h-197l-41 -206q74 102 190 102q56 0 89.5 -29t33.5 -83q0 -18 -5 -50l-68 -350h-85l64 333q3 12 3 36q0 67 -69 67q-57 0 -114.5 -61.5t-76.5 -160.5l-41 -214h-89z" />
    <glyph glyph-name="afii10061" unicode="&#x40c;" horiz-adv-x="597" 
d="M124 0h-89l137 700h89l-55 -281l298 281h120l-341 -318l224 -382h-108l-206 353zM400 756h-72l97 144h123z" />
    <glyph glyph-name="uni040D" unicode="&#x40d;" horiz-adv-x="706" 
d="M138 0h-103l137 700h88l-107 -547l415 547h103l-137 -700h-88l106 545zM386 756l-101 144h121l48 -144h-68z" />
    <glyph glyph-name="afii10062" unicode="&#x40e;" horiz-adv-x="524" 
d="M139 -8h-89l129 216l-108 492h89l81 -385l230 385h95zM231 874q0 8 2 22h67q-1 -3 -1 -10q0 -35 36 -35q45 0 53 45h67q-13 -53 -48 -81t-84 -28q-40 0 -66 24t-26 63z" />
    <glyph glyph-name="afii10145" unicode="&#x40f;" horiz-adv-x="702" 
d="M239 0h-204l136 700h89l-120 -616h318l120 616h89l-136 -700h-204l-25 -124h-88z" />
    <glyph glyph-name="afii10017" unicode="&#x410;" horiz-adv-x="574" 
d="M32 0h-89l372 700h85l106 -700h-89l-25 187h-261zM335 586l-160 -315h205z" />
    <glyph glyph-name="afii10018" unicode="&#x411;" horiz-adv-x="609" 
d="M282 0h-247l137 700h389l-16 -84h-301l-39 -201h140q94 0 147 -46t53 -130q0 -115 -73.5 -177t-189.5 -62zM189 331l-48 -247h145q75 0 121 35.5t46 102.5q0 54 -31 81.5t-88 27.5h-145z" />
    <glyph glyph-name="afii10019" unicode="&#x412;" horiz-adv-x="609" 
d="M282 0h-247l137 700h222q84 0 128.5 -40.5t44.5 -115.5q0 -58 -30 -100t-81 -63q89 -42 89 -142q0 -115 -73.5 -177t-189.5 -62zM189 331l-48 -247h145q75 0 121 35.5t46 102.5q0 54 -31 81.5t-88 27.5h-145zM244 616l-39 -201h140q55 0 94 28.5t39 84.5q0 88 -96 88
h-138z" />
    <glyph glyph-name="afii10020" unicode="&#x413;" horiz-adv-x="529" 
d="M123 0h-88l137 700h411l-17 -84h-323z" />
    <glyph glyph-name="afii10021" unicode="&#x414;" horiz-adv-x="680" 
d="M52 -124h-83l26 208h56l223 616h371l-120 -616h63l-50 -208h-84l22 124h-401zM333 616l-190 -532h293l104 532h-207z" />
    <glyph glyph-name="afii10022" unicode="&#x415;" horiz-adv-x="563" 
d="M441 0h-406l137 700h396l-17 -84h-307l-39 -201h250l-16 -84h-250l-48 -247h317z" />
    <glyph glyph-name="afii10024" unicode="&#x416;" horiz-adv-x="847" 
d="M1 0h-111l382 386l-222 314h112l205 -280l55 280h89l-55 -281l298 281h120l-341 -318l224 -382h-108l-206 353l-69 -353h-89l69 352z" />
    <glyph glyph-name="afii10025" unicode="&#x417;" 
d="M52 184v8l84 11v-6q0 -56 33 -90.5t91 -34.5q145 0 145 173q0 61 -30 92t-85 31q-38 0 -65 -13l-26 47l189 218h-243l15 80h381l-5 -27l-222 -241q7 3 26 3q73 0 113.5 -49t40.5 -139q0 -114 -65 -184.5t-179 -70.5q-88 0 -143 57t-55 135z" />
    <glyph glyph-name="afii10026" unicode="&#x418;" horiz-adv-x="706" 
d="M138 0h-103l137 700h88l-107 -547l415 547h103l-137 -700h-88l106 545z" />
    <glyph glyph-name="afii10027" unicode="&#x419;" horiz-adv-x="706" 
d="M138 0h-103l137 700h88l-107 -547l415 547h103l-137 -700h-88l106 545zM331 874q0 8 2 22h67q-1 -3 -1 -10q0 -35 36 -35q45 0 53 45h67q-13 -53 -48 -81t-84 -28q-40 0 -66 24t-26 63z" />
    <glyph glyph-name="afii10028" unicode="&#x41a;" horiz-adv-x="597" 
d="M124 0h-89l137 700h89l-55 -281l298 281h120l-341 -318l224 -382h-108l-206 353z" />
    <glyph glyph-name="afii10029" unicode="&#x41b;" horiz-adv-x="649" 
d="M-55 0l17 84q49 0 79.5 22.5t47.5 82.5l137 511h388l-137 -700h-88l120 616h-219l-113 -430q-25 -95 -80.5 -140.5t-151.5 -45.5z" />
    <glyph glyph-name="afii10030" unicode="&#x41c;" horiz-adv-x="790" 
d="M124 0h-89l137 700h104l92 -493l279 493h108l-137 -700h-89l100 510l-254 -446h-66l-85 446z" />
    <glyph glyph-name="afii10031" unicode="&#x41d;" horiz-adv-x="695" 
d="M124 0h-89l137 700h89l-56 -286h310l56 286h89l-137 -700h-89l65 330h-310z" />
    <glyph glyph-name="afii10032" unicode="&#x41e;" horiz-adv-x="713" 
d="M39 275q0 217 151 348q98 85 235 85q110 0 178.5 -75.5t68.5 -207.5q0 -217 -151 -348q-98 -85 -235 -85q-110 0 -178.5 75.5t-68.5 207.5zM131 283q0 -101 43.5 -154t126.5 -53q104 0 181 82q98 104 98 259q0 101 -43.5 154t-126.5 53q-104 0 -181 -82
q-98 -104 -98 -259z" />
    <glyph glyph-name="afii10033" unicode="&#x41f;" horiz-adv-x="699" 
d="M124 0h-89l137 700h492l-137 -700h-89l120 616h-314z" />
    <glyph glyph-name="afii10034" unicode="&#x420;" horiz-adv-x="584" 
d="M124 0h-89l137 700h224q85 0 136 -44.5t51 -121.5q0 -114 -69.5 -174t-188.5 -60h-142zM244 616l-45 -232h153q62 0 100 35t38 99q0 98 -100 98h-146z" />
    <glyph glyph-name="afii10035" unicode="&#x421;" horiz-adv-x="662" 
d="M39 272q0 113 45 211t135 161.5t208 63.5q99 0 160 -62t67 -150l-85 -23q-24 151 -158 151q-88 0 -153.5 -51.5t-96 -127.5t-30.5 -163q0 -100 43.5 -153t129.5 -53q69 0 119 35.5t94 117.5l78 -25q-98 -212 -302 -212q-114 0 -184 73t-70 207z" />
    <glyph glyph-name="afii10036" unicode="&#x422;" horiz-adv-x="507" 
d="M258 616h-197l17 84h483l-17 -84h-197l-120 -616h-89z" />
    <glyph glyph-name="afii10037" unicode="&#x423;" horiz-adv-x="524" 
d="M139 -8h-89l129 216l-108 492h89l81 -385l230 385h95z" />
    <glyph glyph-name="afii10038" unicode="&#x424;" horiz-adv-x="802" 
d="M52 311q0 128 100 222.5t244 94.5h8l14 72h89l-14 -72h5q105 0 171.5 -64t66.5 -175q0 -128 -100 -222.5t-244 -94.5h-8l-14 -72h-89l14 72h-5q-105 0 -171.5 64t-66.5 175zM145 325q0 -82 40 -125.5t117 -43.5h10l75 388h-10q-97 0 -164.5 -66.5t-67.5 -152.5zM476 544
l-75 -388h10q97 0 164.5 66.5t67.5 152.5q0 82 -40 125.5t-117 43.5h-10z" />
    <glyph glyph-name="afii10039" unicode="&#x425;" horiz-adv-x="531" 
d="M47 0h-101l291 384l-118 316h94l86 -234l177 234h98l-243 -321l142 -379h-92l-112 297z" />
    <glyph glyph-name="afii10040" unicode="&#x426;" horiz-adv-x="698" 
d="M499 0h-464l136 700h89l-120 -616h314l120 616h89l-120 -616h68l-53 -208h-84z" />
    <glyph glyph-name="afii10041" unicode="&#x427;" horiz-adv-x="655" 
d="M88 365q0 32 7 70l52 265h88l-52 -263q-6 -32 -6 -55q0 -102 120 -102q87 0 166 72l68 348h89l-137 -700h-89l49 251q-87 -55 -175 -55q-85 0 -132.5 43t-47.5 126z" />
    <glyph glyph-name="afii10042" unicode="&#x428;" horiz-adv-x="985" 
d="M813 0h-778l137 700h89l-120 -616h256l120 616h89l-120 -616h256l120 616h88z" />
    <glyph glyph-name="afii10043" unicode="&#x429;" horiz-adv-x="985" 
d="M785 0h-750l137 700h89l-120 -616h256l120 616h88l-119 -616h256l120 616h88l-121 -616h68l-53 -208h-84z" />
    <glyph glyph-name="afii10044" unicode="&#x42a;" horiz-adv-x="609" 
d="M156 616h-128l17 84h215l-55 -285h140q94 0 147 -46t53 -130q0 -115 -73.5 -177t-189.5 -62h-247zM189 331l-48 -247h145q75 0 121 35.5t46 102.5q0 54 -31 81.5t-88 27.5h-145z" />
    <glyph glyph-name="afii10045" unicode="&#x42b;" horiz-adv-x="891" 
d="M282 0h-247l137 700h88l-55 -285h140q94 0 147 -46t53 -130q0 -115 -73.5 -177t-189.5 -62zM189 331l-48 -247h145q75 0 121 35.5t46 102.5q0 54 -31 81.5t-88 27.5h-145zM719 0h-85l137 708h85z" />
    <glyph glyph-name="afii10046" unicode="&#x42c;" horiz-adv-x="609" 
d="M282 0h-247l137 700h88l-55 -285h140q94 0 147 -46t53 -130q0 -115 -73.5 -177t-189.5 -62zM189 331l-48 -247h145q75 0 121 35.5t46 102.5q0 54 -31 81.5t-88 27.5h-145z" />
    <glyph glyph-name="afii10047" unicode="&#x42d;" horiz-adv-x="682" 
d="M30 205l86 24q11 -80 52.5 -116.5t114.5 -36.5q186 0 246 232h-330l17 84h330q4 27 4 47q0 185 -160 185q-151 0 -227 -153l-80 25q43 95 128 153.5t190 58.5q109 0 174.5 -73.5t65.5 -205.5q0 -80 -25 -157.5t-70 -140t-115 -101t-152 -38.5q-109 0 -174 59.5t-75 153.5
z" />
    <glyph glyph-name="afii10048" unicode="&#x42e;" horiz-adv-x="1018" 
d="M124 0h-89l137 700h89l-60 -308h148q33 140 139 231q98 85 235 85q110 0 178.5 -75.5t68.5 -207.5q0 -217 -151 -348q-98 -85 -235 -85q-110 0 -178.5 75.5t-68.5 207.5v17q0 11 1 16h-153zM429 283q0 -101 43.5 -154t126.5 -53q104 0 181 82q98 104 98 259
q0 101 -43.5 154t-126.5 53q-104 0 -181 -82q-98 -104 -98 -259z" />
    <glyph glyph-name="afii10049" unicode="&#x42f;" horiz-adv-x="627" 
d="M61 0h-107l274 336q-49 15 -82 53t-33 95q0 100 70.5 158t175.5 58h233l-137 -700h-88l65 330h-105zM205 496q0 -41 26 -61.5t70 -20.5h147l39 202h-147q-62 -2 -98.5 -35t-36.5 -85z" />
    <glyph glyph-name="afii10065" unicode="&#x430;" horiz-adv-x="586" 
d="M27 197q0 85 30 155t93 115t150 45q50 0 86.5 -21.5t47.5 -46.5l11 60h85l-97 -504h-85l12 62q-63 -70 -149 -70q-91 0 -137.5 57t-46.5 148zM116 220q0 -70 31.5 -111t87.5 -41q58 0 99 38.5t58 90t17 107.5q0 61 -30 96.5t-86 35.5q-58 0 -99.5 -34t-59.5 -81.5
t-18 -100.5z" />
    <glyph glyph-name="afii10066" unicode="&#x431;" horiz-adv-x="582" 
d="M27 236q0 79 20 157.5t59.5 149t107.5 114t154 43.5h47q32 0 50.5 10.5t31.5 36.5h55q-17 -123 -147 -123h-46q-76 0 -134 -50.5t-76 -131.5q76 70 182 70q89 0 137.5 -61t48.5 -167q0 -113 -83.5 -202.5t-198.5 -89.5q-88 0 -148 61.5t-60 182.5zM108 220
q0 -70 36.5 -111t97.5 -41q77 0 132 64.5t55 145.5q0 74 -31 116t-94 42q-84 0 -140 -65.5t-56 -150.5z" />
    <glyph glyph-name="afii10067" unicode="&#x432;" horiz-adv-x="516" 
d="M229 0h-199l97 504h187q63 0 97.5 -29.5t34.5 -80.5q0 -76 -79 -118q56 -34 56 -106q0 -75 -54.5 -122.5t-139.5 -47.5zM158 230l-30 -154h107q44 0 72.5 22t28.5 62q0 70 -71 70h-107zM197 428l-24 -122h107q35 0 57 18t22 47q0 57 -59 57h-103z" />
    <glyph glyph-name="afii10068" unicode="&#x433;" horiz-adv-x="441" 
d="M114 0h-84l97 504h316l-14 -76h-232z" />
    <glyph glyph-name="afii10069" unicode="&#x434;" horiz-adv-x="577" 
d="M36 -114h-73l21 190h34l154 428h344l-84 -428h35l-49 -190h-74l23 114h-310zM221 428l-123 -352h250l69 352h-196z" />
    <glyph glyph-name="afii10070" unicode="&#x435;" horiz-adv-x="562" 
d="M25 204q0 119 84 213.5t208 94.5q86 0 136 -51t50 -138q0 -21 -5 -50l-8 -39h-373q-3 -20 -3 -36q0 -61 30 -95.5t87 -34.5q53 0 89 24t68 75l72 -35q-51 -75 -107 -107.5t-137 -32.5q-87 0 -139 58.5t-52 153.5zM136 310h278q0 126 -112 126q-55 0 -99.5 -34.5
t-66.5 -91.5z" />
    <glyph glyph-name="afii10072" unicode="&#x436;" horiz-adv-x="698" 
d="M19 0h-112l282 273l-172 231h102l158 -211l41 211h85l-41 -211l216 211h115l-249 -236l171 -268h-103l-158 253l-49 -253h-85l49 252z" />
    <glyph glyph-name="afii10073" unicode="&#x437;" horiz-adv-x="417" 
d="M5 138l81 10q0 -36 21.5 -58t59.5 -22q43 0 72 29t29 75q0 36 -19 57t-52 21q-19 0 -41 -8l-32 52l121 134h-161l15 76h288l-5 -28l-157 -165q5 1 10 1h8q49 0 78 -34t29 -93q0 -80 -56.5 -136.5t-138.5 -56.5q-71 0 -110.5 41.5t-39.5 104.5z" />
    <glyph glyph-name="afii10074" unicode="&#x438;" horiz-adv-x="587" 
d="M122 0h-92l97 504h84l-72 -372l298 372h92l-97 -504h-84l72 372z" />
    <glyph glyph-name="afii10075" unicode="&#x439;" horiz-adv-x="587" 
d="M122 0h-92l97 504h84l-72 -372l298 372h92l-97 -504h-84l72 372zM245 678q0 8 2 22h67q-1 -3 -1 -10q0 -35 36 -35q45 0 53 45h67q-13 -53 -48 -81t-84 -28q-40 0 -66 24t-26 63z" />
    <glyph glyph-name="afii10076" unicode="&#x43a;" horiz-adv-x="508" 
d="M115 0h-85l98 504h85l-41 -211l216 211h115l-249 -236l171 -268h-103l-158 253z" />
    <glyph glyph-name="afii10077" unicode="&#x43b;" horiz-adv-x="610" 
d="M-7 0l13 76q51 0 77 20.5t41 71.5l98 336h330l-97 -504h-84l83 428h-173l-87 -291q-21 -73 -70 -105t-131 -32z" />
    <glyph glyph-name="afii10078" unicode="&#x43c;" horiz-adv-x="651" 
d="M114 0h-84l97 504h102l67 -332l192 332h105l-97 -504h-84l68 352l-175 -306h-56l-67 306z" />
    <glyph glyph-name="afii10079" unicode="&#x43d;" horiz-adv-x="569" 
d="M114 0h-84l97 504h84l-38 -198h216l38 198h84l-97 -504h-84l44 230h-216z" />
    <glyph glyph-name="afii10080" unicode="&#x43e;" horiz-adv-x="573" 
d="M27 204q0 124 69 210q78 98 213 98q93 0 146 -55.5t53 -156.5q0 -124 -69 -210q-78 -98 -213 -98q-93 0 -146 55.5t-53 156.5zM116 216q0 -71 29.5 -109.5t88.5 -38.5q86 0 140 71q45 59 45 149q0 71 -29.5 109.5t-88.5 38.5q-86 0 -140 -71q-45 -59 -45 -149z" />
    <glyph glyph-name="afii10081" unicode="&#x43f;" horiz-adv-x="565" 
d="M114 0h-84l97 504h380l-97 -504h-84l83 428h-212z" />
    <glyph glyph-name="afii10082" unicode="&#x440;" horiz-adv-x="605" 
d="M75 -204h-85l138 708h85l-13 -62q61 70 158 70q87 0 134.5 -51.5t47.5 -142.5q0 -134 -75 -230t-200 -96q-95 0 -139 68zM151 198q0 -130 121 -130q57 0 99.5 37t61 87.5t18.5 103.5q0 65 -30 102.5t-86 37.5q-58 0 -102 -39.5t-63 -92t-19 -106.5z" />
    <glyph glyph-name="afii10083" unicode="&#x441;" horiz-adv-x="540" 
d="M27 203q0 78 31.5 147t99 115.5t156.5 46.5q146 0 181 -140l-76 -29q-25 93 -120 93q-81 0 -132 -66.5t-51 -157.5q0 -68 30.5 -106t82.5 -38q49 0 84 24.5t67 77.5l71 -37q-50 -80 -103.5 -110.5t-133.5 -30.5q-86 0 -136.5 58t-50.5 153z" />
    <glyph glyph-name="afii10084" unicode="&#x442;" horiz-adv-x="430" 
d="M184 428h-135l14 76h354l-14 -76h-135l-83 -428h-84z" />
    <glyph glyph-name="afii10085" unicode="&#x443;" horiz-adv-x="466" 
d="M86 -204h-89l125 236l-81 472h89l58 -364l194 364h89z" />
    <glyph glyph-name="afii10086" unicode="&#x444;" horiz-adv-x="707" 
d="M27 216q0 123 88 208.5t228 87.5l36 188h84l-36 -188q97 0 156 -61t59 -163q0 -123 -88 -208.5t-228 -87.5l-38 -196h-84l38 196q-97 0 -156 61t-59 163zM114 224q0 -75 35.5 -115.5t99.5 -40.5h8l71 368h-8q-91 0 -148.5 -61.5t-57.5 -150.5zM412 436l-71 -368h8
q90 0 148 62t58 150q0 75 -35.5 115.5t-99.5 40.5h-8z" />
    <glyph glyph-name="afii10087" unicode="&#x445;" horiz-adv-x="462" 
d="M65 0h-101l215 275l-98 229h92l67 -160l126 160h98l-192 -238l107 -266h-89l-76 190z" />
    <glyph glyph-name="afii10088" unicode="&#x446;" horiz-adv-x="569" 
d="M362 0h-332l98 504h84l-84 -428h215l84 428h84l-84 -428h34l-55 -190h-67z" />
    <glyph glyph-name="afii10089" unicode="&#x447;" horiz-adv-x="536" 
d="M34 213q0 17 5 44l47 247h84l-45 -238q-4 -16 -4 -31q0 -33 18 -51t48 -18q78 0 162 104l45 234h84l-97 -504h-84l33 170q-81 -78 -169 -78q-59 0 -93 33.5t-34 87.5z" />
    <glyph glyph-name="afii10090" unicode="&#x448;" horiz-adv-x="821" 
d="M666 0h-636l97 504h84l-83 -428h192l83 428h84l-83 -428h192l83 428h84z" />
    <glyph glyph-name="afii10091" unicode="&#x449;" horiz-adv-x="822" 
d="M615 0h-585l98 504h84l-84 -428h192l84 428h84l-84 -428h192l84 428h84l-84 -428h34l-55 -190h-67z" />
    <glyph glyph-name="afii10092" unicode="&#x44a;" horiz-adv-x="492" 
d="M113 428h-86l14 76h170l-37 -192h106q68 0 108.5 -34.5t40.5 -98.5q0 -78 -57.5 -128.5t-144.5 -50.5h-197zM159 236l-31 -160h92q123 0 123 94q0 30 -21.5 48t-62.5 18h-100z" />
    <glyph glyph-name="afii10093" unicode="&#x44b;" horiz-adv-x="728" 
d="M227 0h-197l97 504h84l-37 -192h106q68 0 108.5 -34.5t40.5 -98.5q0 -78 -57.5 -128.5t-144.5 -50.5zM159 236l-31 -160h92q123 0 123 94q0 30 -21.5 48t-62.5 18h-100zM572 0h-85l98 504h85z" />
    <glyph glyph-name="afii10094" unicode="&#x44c;" horiz-adv-x="492" 
d="M227 0h-197l97 504h84l-37 -192h106q68 0 108.5 -34.5t40.5 -98.5q0 -78 -57.5 -128.5t-144.5 -50.5zM159 236l-31 -160h92q123 0 123 94q0 30 -21.5 48t-62.5 18h-100z" />
    <glyph glyph-name="afii10095" unicode="&#x44d;" horiz-adv-x="565" 
d="M29 128l72 33q12 -42 46 -67.5t80 -25.5q65 0 109 39t62 107h-239l15 76h239q0 4 0.5 9t0.5 9q0 59 -30 93.5t-91 34.5q-95 0 -155 -96l-65 40q40 61 101 96.5t134 35.5q92 0 142 -60t50 -161q0 -73 -34 -141t-100 -113t-149 -45q-75 0 -123 38t-65 98z" />
    <glyph glyph-name="afii10096" unicode="&#x44e;" horiz-adv-x="806" 
d="M119 0h-84l97 504h84l-41 -214h94q14 64 60 124q78 98 213 98q93 0 146 -55.5t53 -156.5q0 -124 -69 -210q-78 -98 -213 -98q-93 0 -146 55.5t-53 156.5v10h-100zM349 216q0 -71 29.5 -109.5t88.5 -38.5q86 0 140 71q45 59 45 149q0 71 -29.5 109.5t-88.5 38.5
q-86 0 -140 -71q-45 -59 -45 -149z" />
    <glyph glyph-name="afii10097" unicode="&#x44f;" horiz-adv-x="501" 
d="M63 0h-89l170 233q-73 32 -73 112q0 69 53 114t129 45h183l-97 -504h-84l43 226h-71zM152 357q0 -26 18.5 -40.5t48.5 -14.5h94l25 126h-94q-39 0 -65.5 -18.5t-26.5 -52.5z" />
    <glyph glyph-name="uni0450" unicode="&#x450;" horiz-adv-x="562" 
d="M25 204q0 119 84 213.5t208 94.5q86 0 136 -51t50 -138q0 -21 -5 -50l-8 -39h-373q-3 -20 -3 -36q0 -61 30 -95.5t87 -34.5q53 0 89 24t68 75l72 -35q-51 -75 -107 -107.5t-137 -32.5q-87 0 -139 58.5t-52 153.5zM136 310h278q0 126 -112 126q-55 0 -99.5 -34.5
t-66.5 -91.5zM326 560l-101 144h121l48 -144h-68z" />
    <glyph glyph-name="afii10071" unicode="&#x451;" horiz-adv-x="562" 
d="M25 204q0 119 84 213.5t208 94.5q86 0 136 -51t50 -138q0 -21 -5 -50l-8 -39h-373q-3 -20 -3 -36q0 -61 30 -95.5t87 -34.5q53 0 89 24t68 75l72 -35q-51 -75 -107 -107.5t-137 -32.5q-87 0 -139 58.5t-52 153.5zM136 310h278q0 126 -112 126q-55 0 -99.5 -34.5
t-66.5 -91.5zM198 651q0 24 16.5 40.5t39.5 16.5q25 0 41 -16.5t16 -40.5t-16 -40t-41 -16q-23 0 -39.5 16t-16.5 40zM364 651q0 24 16.5 40.5t39.5 16.5q25 0 41 -16.5t16 -40.5t-16 -40t-41 -16q-23 0 -39.5 16t-16.5 40z" />
    <glyph glyph-name="afii10099" unicode="&#x452;" horiz-adv-x="584" 
d="M115 0h-85l110 572h-71l14 68h70l14 68h85l-14 -68h127l-14 -68h-126l-31 -162q74 102 190 102q56 0 89.5 -29t33.5 -83q0 -18 -5 -50l-73 -376q-18 -89 -62.5 -131.5t-127.5 -54.5l-8 82q51 13 77.5 36t37.5 76l67 351q3 12 3 36q0 67 -69 67q-57 0 -114.5 -61.5
t-76.5 -160.5z" />
    <glyph glyph-name="afii10100" unicode="&#x453;" horiz-adv-x="441" 
d="M114 0h-84l97 504h316l-14 -76h-232zM297 560h-72l97 144h123z" />
    <glyph glyph-name="afii10101" unicode="&#x454;" horiz-adv-x="548" 
d="M27 201q0 121 79 216t202 95q79 0 128 -35t67 -97l-74 -36q-12 43 -44.5 67.5t-79.5 24.5q-129 0 -176 -146h239l-15 -76h-239q-1 -3 -1 -8v-8q0 -59 31.5 -94.5t89.5 -35.5q99 0 157 93l63 -37q-44 -66 -98 -99t-127 -33q-94 0 -148 57.5t-54 151.5z" />
    <glyph glyph-name="afii10102" unicode="&#x455;" horiz-adv-x="460" 
d="M16 135l74 36q21 -103 114 -103q38 0 60.5 20.5t22.5 53.5q0 35 -21 53t-71 39q-99 43 -99 134q0 68 44 106t119 38q48 0 86.5 -22.5t58.5 -61.5l-66 -49q-38 57 -89 57q-29 0 -48.5 -17t-19.5 -46q0 -27 18 -43.5t51 -31.5q27 -11 44.5 -21t39 -26.5t32 -39.5t10.5 -53
q0 -77 -51 -121.5t-131 -44.5q-74 0 -121.5 42.5t-56.5 100.5z" />
    <glyph glyph-name="afii10103" unicode="&#x456;" horiz-adv-x="276" 
d="M115 0h-85l98 504h85zM132 644q0 27 18 45.5t45 18.5t45 -18.5t18 -45.5q0 -26 -18 -44t-45 -18t-45 18t-18 44z" />
    <glyph glyph-name="afii10104" unicode="&#x457;" horiz-adv-x="276" 
d="M115 0h-85l98 504h85zM55 651q0 24 16.5 40.5t39.5 16.5q25 0 41 -16.5t16 -40.5t-16 -40t-41 -16q-23 0 -39.5 16t-16.5 40zM221 651q0 24 16.5 40.5t39.5 16.5q25 0 41 -16.5t16 -40.5t-16 -40t-41 -16q-23 0 -39.5 16t-16.5 40z" />
    <glyph glyph-name="afii10105" unicode="&#x458;" horiz-adv-x="276" 
d="M-80 -212l-8 82q51 13 77.5 36t37.5 76l101 522h85l-103 -530q-18 -89 -62.5 -131.5t-127.5 -54.5zM132 644q0 27 18 45.5t45 18.5t45 -18.5t18 -45.5q0 -26 -18 -44t-45 -18t-45 18t-18 44z" />
    <glyph glyph-name="afii10106" unicode="&#x459;" horiz-adv-x="785" 
d="M-7 0l13 76q51 0 77 20.5t41 71.5l98 336h282l-37 -192h106q68 0 108.5 -34.5t40.5 -98.5q0 -78 -57.5 -128.5t-144.5 -50.5h-197l83 428h-125l-87 -291q-23 -74 -71 -105.5t-130 -31.5zM452 236l-31 -160h92q123 0 123 94q0 30 -21.5 48t-62.5 18h-100z" />
    <glyph glyph-name="afii10107" unicode="&#x45a;" horiz-adv-x="792" 
d="M114 0h-84l97 504h84l-37 -192h216l37 192h84l-37 -192h106q68 0 108.5 -34.5t40.5 -98.5q0 -78 -57.5 -128.5t-144.5 -50.5h-197l45 236h-216zM459 236l-31 -160h92q123 0 123 94q0 30 -21.5 48t-62.5 18h-100z" />
    <glyph glyph-name="afii10108" unicode="&#x45b;" horiz-adv-x="584" 
d="M115 0h-85l110 572h-71l14 68h70l14 68h85l-14 -68h127l-14 -68h-126l-31 -162q74 102 190 102q56 0 89.5 -29t33.5 -83q0 -18 -5 -50l-68 -350h-85l64 333q3 12 3 36q0 67 -69 67q-57 0 -114.5 -61.5t-76.5 -160.5z" />
    <glyph glyph-name="afii10109" unicode="&#x45c;" horiz-adv-x="508" 
d="M115 0h-85l98 504h85l-41 -211l216 211h115l-249 -236l171 -268h-103l-158 253zM314 560h-72l97 144h123z" />
    <glyph glyph-name="uni045D" unicode="&#x45d;" horiz-adv-x="592" 
d="M122 0h-92l97 504h84l-72 -372l298 372h92l-97 -504h-84l72 372zM314 560l-101 144h121l48 -144h-68z" />
    <glyph glyph-name="afii10110" unicode="&#x45e;" horiz-adv-x="466" 
d="M86 -204h-89l125 236l-81 472h89l58 -364l194 364h89zM167 678q0 8 2 22h67q-1 -3 -1 -10q0 -35 36 -35q45 0 53 45h67q-13 -53 -48 -81t-84 -28q-40 0 -66 24t-26 63z" />
    <glyph glyph-name="afii10193" unicode="&#x45f;" horiz-adv-x="577" 
d="M181 0h-151l98 504h84l-84 -428h218l84 428h84l-98 -504h-151l-23 -114h-84z" />
    <glyph glyph-name="uni2000" unicode="&#x2000;" horiz-adv-x="551" 
 />
    <glyph glyph-name="uni2001" unicode="&#x2001;" horiz-adv-x="1102" 
 />
    <glyph glyph-name="uni2002" unicode="&#x2002;" horiz-adv-x="551" 
 />
    <glyph glyph-name="uni2003" unicode="&#x2003;" horiz-adv-x="1102" 
 />
    <glyph glyph-name="uni2004" unicode="&#x2004;" horiz-adv-x="367" 
 />
    <glyph glyph-name="uni2005" unicode="&#x2005;" horiz-adv-x="275" 
 />
    <glyph glyph-name="uni2006" unicode="&#x2006;" horiz-adv-x="183" 
 />
    <glyph glyph-name="uni2007" unicode="&#x2007;" horiz-adv-x="183" 
 />
    <glyph glyph-name="uni2008" unicode="&#x2008;" horiz-adv-x="137" 
 />
    <glyph glyph-name="uni2009" unicode="&#x2009;" horiz-adv-x="220" 
 />
    <glyph glyph-name="uni200A" unicode="&#x200a;" horiz-adv-x="61" 
 />
    <glyph glyph-name="uni2010" unicode="&#x2010;" horiz-adv-x="479" 
d="M394 280h-339l15 74h339z" />
    <glyph glyph-name="uni2011" unicode="&#x2011;" horiz-adv-x="479" 
d="M394 280h-339l15 74h339z" />
    <glyph glyph-name="figuredash" unicode="&#x2012;" horiz-adv-x="479" 
d="M394 280h-339l15 74h339z" />
    <glyph glyph-name="endash" unicode="&#x2013;" horiz-adv-x="545" 
d="M467 280h-412l15 74h412z" />
    <glyph glyph-name="emdash" unicode="&#x2014;" horiz-adv-x="736" 
d="M658 280h-603l15 74h603z" />
    <glyph glyph-name="quoteleft" unicode="&#x2018;" horiz-adv-x="242" 
d="M158 503l-87 205h119l29 -205h-61z" />
    <glyph glyph-name="quoteright" unicode="&#x2019;" horiz-adv-x="243" 
d="M140 503h-64l103 205h125z" />
    <glyph glyph-name="quotesinglbase" unicode="&#x201a;" horiz-adv-x="328" 
d="M59 -14h-64l103 205h125z" />
    <glyph glyph-name="quotedblleft" unicode="&#x201c;" horiz-adv-x="412" 
d="M158 503l-87 205h119l29 -205h-61zM328 503l-87 205h119l29 -205h-61z" />
    <glyph glyph-name="quotedblright" unicode="&#x201d;" horiz-adv-x="423" 
d="M140 503h-64l103 205h125zM320 503h-64l103 205h125z" />
    <glyph glyph-name="quotedblbase" unicode="&#x201e;" horiz-adv-x="508" 
d="M59 -14h-64l103 205h125zM239 -14h-64l103 205h125z" />
    <glyph glyph-name="dagger" unicode="&#x2020;" horiz-adv-x="454" 
d="M199 424h-129l14 80h130l48 246h81l-48 -246h130l-15 -80h-130l-92 -474h-81z" />
    <glyph glyph-name="daggerdbl" unicode="&#x2021;" horiz-adv-x="454" 
d="M155 196h-129l15 80h129l29 148h-129l14 80h130l48 246h81l-48 -246h130l-15 -80h-130l-29 -148h130l-15 -80h-130l-48 -246h-81z" />
    <glyph glyph-name="bullet" unicode="&#x2022;" horiz-adv-x="321" 
d="M75 330q0 32 22.5 54.5t54.5 22.5t54.5 -22.5t22.5 -54.5t-22.5 -54.5t-54.5 -22.5t-54.5 22.5t-22.5 54.5z" />
    <glyph glyph-name="ellipsis" unicode="&#x2026;" horiz-adv-x="805" 
d="M25 59q0 26 18 44.5t45 18.5q26 0 44.5 -18.5t18.5 -44.5q0 -27 -18.5 -45t-44.5 -18q-27 0 -45 18t-18 45zM290 59q0 26 18 44.5t45 18.5q26 0 44.5 -18.5t18.5 -44.5q0 -27 -18.5 -45t-44.5 -18q-27 0 -45 18t-18 45zM555 59q0 26 18 44.5t45 18.5q26 0 44.5 -18.5
t18.5 -44.5q0 -27 -18.5 -45t-44.5 -18q-27 0 -45 18t-18 45z" />
    <glyph glyph-name="uni202F" unicode="&#x202f;" horiz-adv-x="220" 
 />
    <glyph glyph-name="perthousand" unicode="&#x2030;" horiz-adv-x="1254" 
d="M116 -29l-45 44l676 718l46 -43zM77 526q0 82 58 134q51 48 131 48q56 0 95 -38t39 -100q0 -82 -58 -134q-51 -48 -131 -48q-56 0 -95 38t-39 100zM151 536q0 -38 20 -58t52 -20q41 0 70 26q33 31 33 76q0 38 -20 58t-52 20q-41 0 -70 -26q-33 -31 -33 -76zM447 130
q0 82 58 134q51 48 131 48q56 0 95 -38t39 -100q0 -82 -58 -134q-51 -48 -131 -48q-56 0 -95 38t-39 100zM521 140q0 -38 20 -58t52 -20q41 0 70 26q33 31 33 76q0 38 -20 58t-52 20q-41 0 -70 -26q-33 -31 -33 -76zM847 130q0 82 58 134q51 48 131 48q56 0 95 -38t39 -100
q0 -82 -58 -134q-51 -48 -131 -48q-56 0 -95 38t-39 100zM921 140q0 -38 20 -58t52 -20q41 0 70 26q33 31 33 76q0 38 -20 58t-52 20q-41 0 -70 -26q-33 -31 -33 -76z" />
    <glyph glyph-name="guilsinglleft" unicode="&#x2039;" horiz-adv-x="386" 
d="M274 80l-239 199l13 62l316 204l-21 -107l-222 -135l170 -135z" />
    <glyph glyph-name="guilsinglright" unicode="&#x203a;" horiz-adv-x="386" 
d="M334 284l-316 -204l21 107l222 135l-170 135l17 88l239 -199z" />
    <glyph glyph-name="fraction" unicode="&#x2044;" horiz-adv-x="742" 
d="M55 -29l-45 44l676 718l46 -43z" />
    <glyph glyph-name="uni205F" unicode="&#x205f;" horiz-adv-x="275" 
 />
    <glyph glyph-name="uni2070" unicode="&#x2070;" horiz-adv-x="365" 
d="M42 443q0 104 50.5 182.5t146.5 78.5q58 0 88 -38.5t30 -108.5q0 -104 -50.5 -182.5t-146.5 -78.5q-58 0 -88 38.5t-30 108.5zM110 454q0 -98 62 -98q39 0 67 33.5t39 75t11 81.5q0 98 -62 98q-39 0 -67 -33.5t-39 -75t-11 -81.5z" />
    <glyph glyph-name="uni2074" unicode="&#x2074;" horiz-adv-x="389" 
d="M214 377h-177l5 26l217 297h81l-51 -263h51l-11 -60h-51l-15 -77h-64zM258 607l-121 -170h88z" />
    <glyph glyph-name="uni2075" unicode="&#x2075;" horiz-adv-x="354" 
d="M42 408l59 9q0 -27 14 -44t40 -17q39 0 62 23.5t23 64.5q0 65 -55 65q-44 0 -78 -37l-48 11l63 217h210l-12 -60h-153l-32 -98q32 23 73 23q47 0 73.5 -28.5t26.5 -79.5q0 -76 -43 -119q-43 -42 -117 -42q-48 0 -77 30.5t-29 81.5z" />
    <glyph glyph-name="uni2076" unicode="&#x2076;" horiz-adv-x="357" 
d="M55 407q0 56 37 101l152 196h74l-118 -152q14 7 31 7q46 0 72.5 -27t26.5 -75q0 -70 -46 -115.5t-116 -45.5q-50 0 -81.5 31.5t-31.5 79.5zM123 418q0 -28 15.5 -45t41.5 -17q35 0 58.5 24t23.5 59q0 60 -55 60q-34 0 -59 -22t-25 -59z" />
    <glyph glyph-name="uni2077" unicode="&#x2077;" horiz-adv-x="314" 
d="M108 300h-67l205 340h-162l11 60h244l-4 -25z" />
    <glyph glyph-name="uni2078" unicode="&#x2078;" horiz-adv-x="312" 
d="M43 399q0 80 82 117q-34 23 -34 66q0 56 48 94q37 28 91 28q45 0 71 -23.5t26 -66.5q0 -59 -64 -98q43 -23 43 -82q0 -62 -44 -100t-111 -38q-50 0 -79 28.5t-29 74.5zM111 410q0 -54 52 -54q32 0 54 20t22 55q0 52 -52 52q-32 0 -54 -19.5t-22 -53.5zM153 590
q0 -22 12.5 -34.5t33.5 -12.5q29 0 48 17t19 46q0 20 -13.5 31t-34.5 11q-27 0 -46 -16t-19 -42z" />
    <glyph glyph-name="uni2079" unicode="&#x2079;" horiz-adv-x="357" 
d="M64 543q0 70 46 115.5t116 45.5q50 0 81.5 -31.5t31.5 -79.5q0 -56 -37 -101l-152 -196h-74l118 152q-14 -7 -31 -7q-46 0 -72.5 27t-26.5 75zM132 561q0 -60 55 -60q34 0 59 22t25 59q0 28 -15.5 45t-41.5 17q-35 0 -58.5 -24t-23.5 -59z" />
    <glyph glyph-name="uni2080" unicode="&#x2080;" horiz-adv-x="365" 
d="M-47 -60q0 104 50.5 182.5t146.5 78.5q58 0 88 -38.5t30 -108.5q0 -104 -50.5 -182.5t-146.5 -78.5q-58 0 -88 38.5t-30 108.5zM21 -49q0 -98 62 -98q39 0 67 33.5t39 75t11 81.5q0 98 -62 98q-39 0 -67 -33.5t-39 -75t-11 -81.5z" />
    <glyph glyph-name="uni2081" unicode="&#x2081;" horiz-adv-x="332" 
d="M101 104l-94 -41l14 73l137 61h25l-77 -400h-65z" />
    <glyph glyph-name="uni2082" unicode="&#x2082;" horiz-adv-x="447" 
d="M229 -203h-255l5 25l179 184q18 18 26.5 28t16 26t7.5 34q0 47 -45 47q-24 0 -43.5 -18.5t-28.5 -50.5l-61 17q13 52 50.5 82t91.5 30q46 0 74.5 -25t28.5 -66t-12.5 -69t-47.5 -63l-120 -121h146z" />
    <glyph glyph-name="uni2083" unicode="&#x2083;" horiz-adv-x="429" 
d="M-14 -88l66 9q0 -33 16 -50.5t43 -17.5q36 0 57.5 24.5t21.5 63.5q0 58 -54 58q-21 0 -39 -11l-23 41l99 108h-128l12 60h227l-5 -23l-118 -126q45 0 70.5 -26.5t25.5 -73.5q0 -69 -44 -112t-113 -43q-53 0 -83.5 32.5t-30.5 86.5z" />
    <glyph glyph-name="uni2084" unicode="&#x2084;" horiz-adv-x="389" 
d="M122 -126h-177l5 26l217 297h81l-51 -263h51l-11 -60h-51l-15 -77h-64zM166 104l-121 -170h88z" />
    <glyph glyph-name="uni2085" unicode="&#x2085;" horiz-adv-x="354" 
d="M-47 -95l59 9q0 -27 14 -44t40 -17q39 0 62 23.5t23 64.5q0 65 -55 65q-44 0 -78 -37l-48 11l63 217h210l-12 -60h-153l-32 -98q32 23 73 23q47 0 73.5 -28.5t26.5 -79.5q0 -76 -43 -119q-43 -42 -117 -42q-48 0 -77 30.5t-29 81.5z" />
    <glyph glyph-name="uni2086" unicode="&#x2086;" horiz-adv-x="357" 
d="M-44 -96q0 56 37 101l152 196h74l-118 -152q14 7 31 7q46 0 72.5 -27t26.5 -75q0 -70 -46 -115.5t-116 -45.5q-50 0 -81.5 31.5t-31.5 79.5zM24 -85q0 -28 15.5 -45t41.5 -17q35 0 58.5 24t23.5 59q0 60 -55 60q-34 0 -59 -22t-25 -59z" />
    <glyph glyph-name="uni2087" unicode="&#x2087;" horiz-adv-x="314" 
d="M10 -203h-67l205 340h-162l11 60h244l-4 -25z" />
    <glyph glyph-name="uni2088" unicode="&#x2088;" horiz-adv-x="312" 
d="M-63 -104q0 80 82 117q-34 23 -34 66q0 56 48 94q37 28 91 28q45 0 71 -23.5t26 -66.5q0 -59 -64 -98q43 -23 43 -82q0 -62 -44 -100t-111 -38q-50 0 -79 28.5t-29 74.5zM5 -93q0 -54 52 -54q32 0 54 20t22 55q0 52 -52 52q-32 0 -54 -19.5t-22 -53.5zM47 87
q0 -22 12.5 -34.5t33.5 -12.5q29 0 48 17t19 46q0 20 -13.5 31t-34.5 11q-27 0 -46 -16t-19 -42z" />
    <glyph glyph-name="uni2089" unicode="&#x2089;" horiz-adv-x="357" 
d="M-17 40q0 70 46 115.5t116 45.5q50 0 81.5 -31.5t31.5 -79.5q0 -56 -37 -101l-152 -196h-74l118 152q-14 -7 -31 -7q-46 0 -72.5 27t-26.5 75zM51 58q0 -60 55 -60q34 0 59 22t25 59q0 28 -15.5 45t-41.5 17q-35 0 -58.5 -24t-23.5 -59z" />
    <glyph glyph-name="Euro" unicode="&#x20ac;" horiz-adv-x="603" 
d="M106 233h-96l54 80h50l15 74h-90l55 80h57q84 241 302 241q136 0 175 -114l-75 -37q-30 71 -115 71q-140 0 -202 -161h236l-55 -80h-204l-15 -74h244l-55 -80h-196q0 -161 143 -161q43 0 73.5 17t62.5 56l63 -39q-83 -114 -214 -114q-98 0 -155.5 63t-57.5 178z" />
    <glyph glyph-name="trademark" unicode="&#x2122;" horiz-adv-x="818" 
d="M186 641h-105l11 59h282l-11 -59h-105l-66 -341h-72zM442 300h-72l77 400h75l53 -258l154 258h78l-77 -400h-72l48 250l-128 -213h-42l-45 216z" />
    <glyph glyph-name="uni2126" unicode="&#x2126;" horiz-adv-x="682" 
d="M295 0h-220v76h129q-31 55 -54 115q-54 138 -54 249q0 119 65.5 193.5t179.5 74.5t179.5 -74.5t65.5 -193.5q0 -111 -54 -249q-23 -60 -54 -115h129v-76h-220v23q27 56 55 131q55 161 55 286q0 90 -41 141t-115 51t-115 -51t-41 -141q0 -131 55 -286q26 -74 55 -131v-23z
" />
    <glyph glyph-name="onethird" unicode="&#x2153;" horiz-adv-x="867" 
d="M534 116l66 9q0 -33 16 -50.5t43 -17.5q36 0 57.5 24.5t21.5 63.5q0 58 -54 58q-21 0 -39 -11l-23 41l99 108h-128l12 60h227l-5 -23l-118 -126q45 0 70.5 -26.5t25.5 -73.5q0 -69 -44 -112t-113 -43q-53 0 -83.5 32.5t-30.5 86.5zM229 607l-94 -41l14 73l137 61h25
l-77 -400h-65zM125 -29l-45 44l676 718l46 -43z" />
    <glyph glyph-name="twothirds" unicode="&#x2154;" horiz-adv-x="933" 
d="M185 -29l-45 44l676 718l46 -43zM326 300h-255l5 25l179 184q18 18 26.5 28t16 26t7.5 34q0 47 -45 47q-24 0 -43.5 -18.5t-28.5 -50.5l-61 17q13 52 50.5 82t91.5 30q46 0 74.5 -25t28.5 -66t-12.5 -69t-47.5 -63l-120 -121h146zM593 116l66 9q0 -33 16 -50.5t43 -17.5
q36 0 57.5 24.5t21.5 63.5q0 58 -54 58q-21 0 -39 -11l-23 41l99 108h-128l12 60h227l-5 -23l-118 -126q45 0 70.5 -26.5t25.5 -73.5q0 -69 -44 -112t-113 -43q-53 0 -83.5 32.5t-30.5 86.5z" />
    <glyph glyph-name="oneeighth" unicode="&#x215b;" horiz-adv-x="836" 
d="M125 -29l-45 44l676 718l46 -43zM229 607l-94 -41l14 73l137 61h25l-77 -400h-65zM536 100q0 80 82 117q-34 23 -34 66q0 56 48 94q37 28 91 28q45 0 71 -23.5t26 -66.5q0 -59 -64 -98q43 -23 43 -82q0 -62 -44 -100t-111 -38q-50 0 -79 28.5t-29 74.5zM604 111
q0 -54 52 -54q32 0 54 20t22 55q0 52 -52 52q-32 0 -54 -19.5t-22 -53.5zM646 291q0 -22 12.5 -34.5t33.5 -12.5q29 0 48 17t19 46q0 20 -13.5 31t-34.5 11q-27 0 -46 -16t-19 -42z" />
    <glyph glyph-name="threeeighths" unicode="&#x215c;" horiz-adv-x="931" 
d="M96 415l66 9q0 -33 16 -50.5t43 -17.5q36 0 57.5 24.5t21.5 63.5q0 58 -54 58q-21 0 -39 -11l-23 41l99 108h-128l12 60h227l-5 -23l-118 -126q45 0 70.5 -26.5t25.5 -73.5q0 -69 -44 -112t-113 -43q-53 0 -83.5 32.5t-30.5 86.5zM607 100q0 80 82 117q-34 23 -34 66
q0 56 48 94q37 28 91 28q45 0 71 -23.5t26 -66.5q0 -59 -64 -98q43 -23 43 -82q0 -62 -44 -100t-111 -38q-50 0 -79 28.5t-29 74.5zM675 111q0 -54 52 -54q32 0 54 20t22 55q0 52 -52 52q-32 0 -54 -19.5t-22 -53.5zM717 291q0 -22 12.5 -34.5t33.5 -12.5q29 0 48 17t19 46
q0 20 -13.5 31t-34.5 11q-27 0 -46 -16t-19 -42zM196 -29l-45 44l676 718l46 -43z" />
    <glyph glyph-name="fiveeighths" unicode="&#x215d;" horiz-adv-x="940" 
d="M196 -29l-45 44l676 718l46 -43zM607 100q0 80 82 117q-34 23 -34 66q0 56 48 94q37 28 91 28q45 0 71 -23.5t26 -66.5q0 -59 -64 -98q43 -23 43 -82q0 -62 -44 -100t-111 -38q-50 0 -79 28.5t-29 74.5zM675 111q0 -54 52 -54q32 0 54 20t22 55q0 52 -52 52
q-32 0 -54 -19.5t-22 -53.5zM717 291q0 -22 12.5 -34.5t33.5 -12.5q29 0 48 17t19 46q0 20 -13.5 31t-34.5 11q-27 0 -46 -16t-19 -42zM91 408l59 9q0 -27 14 -44t40 -17q39 0 62 23.5t23 64.5q0 65 -55 65q-44 0 -78 -37l-48 11l63 217h210l-12 -60h-153l-32 -98
q32 23 73 23q47 0 73.5 -28.5t26.5 -79.5q0 -76 -43 -119q-43 -42 -117 -42q-48 0 -77 30.5t-29 81.5z" />
    <glyph glyph-name="seveneighths" unicode="&#x215e;" horiz-adv-x="838" 
d="M96 -29l-45 44l676 718l46 -43zM507 100q0 80 82 117q-34 23 -34 66q0 56 48 94q37 28 91 28q45 0 71 -23.5t26 -66.5q0 -59 -64 -98q43 -23 43 -82q0 -62 -44 -100t-111 -38q-50 0 -79 28.5t-29 74.5zM575 111q0 -54 52 -54q32 0 54 20t22 55q0 52 -52 52
q-32 0 -54 -19.5t-22 -53.5zM617 291q0 -22 12.5 -34.5t33.5 -12.5q29 0 48 17t19 46q0 20 -13.5 31t-34.5 11q-27 0 -46 -16t-19 -42zM174 300h-67l205 340h-162l11 60h244l-4 -25z" />
    <glyph glyph-name="partialdiff" unicode="&#x2202;" horiz-adv-x="607" 
d="M48 211q0 130 79 215.5t204 85.5q78 0 121 -50q-8 80 -47 125t-99 45q-80 0 -118 -84l-82 21q25 64 77.5 101.5t125.5 37.5q118 0 174 -92t56 -259q0 -71 -16.5 -134.5t-49 -116t-89 -83.5t-130.5 -31q-92 0 -149 61t-57 158zM137 209q0 -64 31.5 -102.5t90.5 -38.5
q85 0 135.5 66.5t50.5 161.5q0 66 -30.5 103t-91.5 37q-83 0 -134.5 -69.5t-51.5 -157.5z" />
    <glyph glyph-name="uni2206" unicode="&#x2206;" horiz-adv-x="649" 
d="M561 0h-558v20l240 680h78l240 -680v-20zM282 579l-174 -503h348z" />
    <glyph glyph-name="product" unicode="&#x220f;" horiz-adv-x="518" 
d="M159 0h-84v700h368v-700h-84v624h-200v-624z" />
    <glyph glyph-name="summation" unicode="&#x2211;" horiz-adv-x="554" 
d="M482 0h-427v20l212 330l-212 330v20h427v-76h-300l169 -264v-20l-169 -264h300v-76z" />
    <glyph glyph-name="minus" unicode="&#x2212;" horiz-adv-x="550" 
d="M460 280h-412l15 74h412z" />
    <glyph glyph-name="radical" unicode="&#x221a;" horiz-adv-x="532" 
d="M142 313h-104v76h153l86 -257l170 576h80l-217 -708h-67z" />
    <glyph glyph-name="infinity" unicode="&#x221e;" horiz-adv-x="875" 
d="M60 359q0 86 49 138.5t135 52.5q53 0 105.5 -28.5t92.5 -82.5q40 54 92.5 82.5t105.5 28.5q86 0 135 -52.5t49 -138.5t-49 -138.5t-135 -52.5q-53 0 -105.5 28.5t-92.5 82.5q-40 -54 -92.5 -82.5t-105.5 -28.5q-86 0 -135 52.5t-49 138.5zM146 359q0 -54 30.5 -84.5
t82.5 -30.5q35 0 74 30t67 85q-28 55 -67 85t-74 30q-52 0 -82.5 -30.5t-30.5 -84.5zM484 359q28 -55 67 -85t74 -30q52 0 82.5 30.5t30.5 84.5t-30.5 84.5t-82.5 30.5q-35 0 -74 -30t-67 -85z" />
    <glyph glyph-name="integral" unicode="&#x222b;" horiz-adv-x="438" 
d="M-60 -196l31 74q26 -14 54 -14q41 0 63.5 22.5t32.5 72.5l112 578q33 171 196 171q41 0 69 -16l-31 -74q-26 14 -54 14q-41 0 -63.5 -22.5t-32.5 -72.5l-112 -578q-33 -171 -196 -171q-41 0 -69 16z" />
    <glyph glyph-name="approxequal" unicode="&#x2248;" horiz-adv-x="557" 
d="M76 169l-40 54q63 85 149 85q44 0 96.5 -25t86.5 -25q54 0 101 45l40 -55q-61 -84 -149 -84q-44 0 -96.5 25t-86.5 25q-54 0 -101 -45zM76 368l-40 54q63 85 149 85q44 0 96.5 -25t86.5 -25q54 0 101 45l40 -55q-61 -84 -149 -84q-44 0 -96.5 25t-86.5 25q-54 0 -101 -45
z" />
    <glyph glyph-name="notequal" unicode="&#x2260;" horiz-adv-x="595" 
d="M186 190h-88v74h131l52 92h-183v74h225l59 102l64 -37l-37 -65h88v-74h-131l-52 -92h183v-74h-225l-59 -102l-64 37z" />
    <glyph glyph-name="lessequal" unicode="&#x2264;" horiz-adv-x="563" 
d="M488 0h-440v74h440v-74zM443 172l-349 186v88l349 186v-87l-267 -143l267 -143v-87z" />
    <glyph glyph-name="greaterequal" unicode="&#x2265;" horiz-adv-x="563" 
d="M495 0h-440v74h440v-74zM449 358l-349 -186v87l267 143l-267 143v87l349 -186v-88z" />
    <glyph glyph-name="lozenge" unicode="&#x25ca;" horiz-adv-x="512" 
d="M215 0l-180 350l180 350h82l180 -350l-180 -350h-82zM256 624l-137 -274l137 -274l137 274z" />
    <glyph glyph-name="uniE000" unicode="&#xe000;" horiz-adv-x="505" 
d="M0 0v505h505v-505h-505z" />
    <glyph glyph-name="uniF8FF" unicode="&#xf8ff;" horiz-adv-x="786" 
d="M97 22v595q0 18 16 22l270 78q8 2 10 2t10 -2l270 -78q16 -4 16 -22v-595q0 -9 -6.5 -15.5t-15.5 -6.5q-4 0 -7 1l-267 77l-267 -77q-3 -1 -7 -1q-9 0 -15.5 6.5t-6.5 15.5zM140 463v-412l231 67v204q-74 6 -134.5 43t-96.5 98zM371 669l-230 -67q6 -93 71.5 -160.5
t158.5 -75.5v303zM415 322v-204l231 -67v412q-37 -61 -97.5 -98t-133.5 -43zM415 669v-303q93 8 158.5 75.5t71.5 160.5z" />
    <glyph glyph-name="No" horiz-adv-x="1271" 
d="M124 0h-89l137 700h99l204 -547l107 547h89l-137 -700h-99l-205 545zM1095 0h-438l15 76h438zM725 400q0 124 69 210q78 98 213 98q93 0 146 -55.5t53 -156.5q0 -124 -69 -210q-78 -98 -213 -98q-93 0 -146 55.5t-53 156.5zM814 412q0 -71 29.5 -109.5t88.5 -38.5
q86 0 140 71q45 59 45 149q0 71 -29.5 109.5t-88.5 38.5q-86 0 -140 -71q-45 -59 -45 -149z" />
    <glyph glyph-name="zero.tn" 
d="M34 243q0 224 105 358q42 53 92.5 80t123.5 27q92 0 141.5 -63.5t49.5 -187.5q0 -224 -105 -358q-83 -107 -216 -107q-91 0 -141 64t-50 187zM123 254q0 -96 28 -139t86 -43t103 39t69 99t36 120.5t12 115.5q0 96 -28 139t-86 43t-103 -39t-69 -99t-36 -120.5t-12 -115.5
z" />
    <glyph glyph-name="one.tn" 
d="M312 574l-141 -74l18 92l199 108h32l-137 -700h-83z" />
    <glyph glyph-name="two.tn" 
d="M435 0h-415l7 39l322 342q27 28 43 46.5t29.5 47t13.5 56.5q0 97 -90 97q-46 0 -80 -32.5t-50 -87.5l-85 16q21 82 78 133t144 51q78 0 125 -44t47 -111q0 -59 -21.5 -102t-69.5 -94l-260 -277h277z" />
    <glyph glyph-name="three.tn" 
d="M52 184v8l84 11v-6q0 -56 33 -90.5t91 -34.5q145 0 145 173q0 61 -30 92t-85 31q-38 0 -65 -13l-26 47l189 218h-243l15 80h381l-5 -27l-222 -241q7 3 26 3q73 0 113.5 -49t40.5 -139q0 -114 -65 -184.5t-179 -70.5q-88 0 -143 57t-55 135z" />
    <glyph glyph-name="four.tn" 
d="M310 149h-293l7 35l386 516h97l-92 -471h83l-16 -80h-83l-29 -149h-89zM388 554l-241 -325h179z" />
    <glyph glyph-name="five.tn" 
d="M38 173v11l82 15v-8q0 -53 28 -86t80 -33q72 0 117.5 51.5t45.5 134.5q0 66 -27 96t-80 30q-87 0 -156 -78l-53 12l105 382h343l-15 -80h-267l-60 -203q55 47 124 47q81 0 128 -47.5t47 -145.5q0 -126 -70.5 -202.5t-192.5 -76.5q-76 0 -127.5 50.5t-51.5 130.5z" />
    <glyph glyph-name="six.tn" 
d="M44 178q0 93 66 182l266 348h102l-204 -267q15 7 36 7q79 0 127 -48t48 -140q0 -117 -72.5 -192.5t-188.5 -75.5q-85 0 -132.5 51t-47.5 135zM133 191q0 -119 103 -119q69 0 114.5 51.5t45.5 124.5q0 60 -29 90.5t-79 30.5q-69 0 -112 -53t-43 -125z" />
    <glyph glyph-name="seven.tn" 
d="M165 0h-91l374 620h-286l16 80h393l-8 -37z" />
    <glyph glyph-name="eight.tn" 
d="M42 171q0 69 36.5 122.5t105.5 83.5q-55 41 -55 121q0 97 72 157q62 53 160 53q77 0 120 -44t43 -117q0 -61 -32 -105t-86 -67q33 -17 55.5 -54t22.5 -90q0 -108 -63 -171q-68 -68 -194 -68q-79 0 -132 50t-53 129zM131 185q0 -53 29.5 -83t80.5 -30q67 0 110.5 40.5
t43.5 107.5q0 52 -27 81t-80 29q-65 0 -111 -41.5t-46 -103.5zM214 503q0 -43 24 -68t65 -25q54 0 95 35t41 90q0 97 -93 97q-55 0 -93.5 -37t-38.5 -92z" />
    <glyph glyph-name="nine.tn" 
d="M88 440q0 117 72.5 192.5t188.5 75.5q85 0 132.5 -51t47.5 -135q0 -93 -66 -182l-266 -348h-102l204 267q-15 -7 -36 -7q-79 0 -127 48t-48 140zM177 452q0 -60 29 -90.5t79 -30.5q69 0 112 53t43 125q0 119 -103 119q-69 0 -114.5 -51.5t-45.5 -124.5z" />
    <glyph glyph-name="quotedblleft.alt" horiz-adv-x="412" 
d="M73 524q0 50 48 99t112 85l15 -24q-74 -46 -85 -102q39 -19 39 -61q0 -27 -19 -44.5t-46 -17.5q-28 0 -46 17.5t-18 47.5zM253 524q0 50 48 99t112 85l15 -24q-74 -46 -85 -102q39 -19 39 -61q0 -27 -19 -44.5t-46 -17.5q-28 0 -46 17.5t-18 47.5z" />
    <glyph glyph-name="quotedblright.alt" horiz-adv-x="412" 
d="M47 459l-15 24q74 46 85 102q-39 19 -39 61q0 27 19 44.5t46 17.5q28 0 46 -17.5t18 -47.5q0 -88 -160 -184zM227 459l-15 24q74 46 85 102q-39 19 -39 61q0 27 19 44.5t46 17.5q28 0 46 -17.5t18 -47.5q0 -88 -160 -184z" />
    <glyph glyph-name="quoteleft.alt" horiz-adv-x="232" 
d="M73 524q0 50 48 99t112 85l15 -24q-74 -46 -85 -102q39 -19 39 -61q0 -27 -19 -44.5t-46 -17.5q-28 0 -46 17.5t-18 47.5z" />
    <glyph glyph-name="quoteright.alt" horiz-adv-x="232" 
d="M47 459l-15 24q74 46 85 102q-39 19 -39 61q0 27 19 44.5t46 17.5q28 0 46 -17.5t18 -47.5q0 -88 -160 -184z" />
    <glyph glyph-name="quotesinglbase.alt" horiz-adv-x="332" 
d="M19 -110l-15 24q74 46 85 102q-39 19 -39 61q0 27 19 44.5t46 17.5q28 0 46 -17.5t18 -47.5q0 -88 -160 -184z" />
    <glyph glyph-name="quotedblbase.alt" horiz-adv-x="512" 
d="M19 -110l-15 24q74 46 85 102q-39 19 -39 61q0 27 19 44.5t46 17.5q28 0 46 -17.5t18 -47.5q0 -88 -160 -184zM199 -110l-15 24q74 46 85 102q-39 19 -39 61q0 27 19 44.5t46 17.5q28 0 46 -17.5t18 -47.5q0 -88 -160 -184z" />
    <glyph glyph-name="arrow.l" horiz-adv-x="645" 
d="M281 114l-236 236l236 236l53 -54l-141 -144h398v-76h-398l141 -144z" />
    <glyph glyph-name="arrow.r" horiz-adv-x="645" 
d="M452 312h-398v76h398l-141 144l53 54l236 -236l-236 -236l-53 54z" />
    <glyph glyph-name="arrow.u" horiz-adv-x="640" 
d="M138 334l-54 53l236 236l236 -236l-54 -53l-144 141v-398h-76v398z" />
    <glyph glyph-name="arrow.d" horiz-adv-x="640" 
d="M320 77l-236 236l54 53l144 -141v398h76v-398l144 141l54 -53z" />
    <glyph glyph-name="arrow.ul" horiz-adv-x="640" 
d="M187 223h-76v333h333v-76h-202l281 -282l-54 -54l-282 281v-202z" />
    <glyph glyph-name="arrow.ur" horiz-adv-x="640" 
d="M171 144l-54 54l281 282h-202v76h333v-333h-76v202z" />
    <glyph glyph-name="arrow.dl" horiz-adv-x="640" 
d="M444 144h-333v333h76v-202l282 281l54 -54l-281 -282h202v-76z" />
    <glyph glyph-name="arrow.dr" horiz-adv-x="640" 
d="M398 220l-281 282l54 54l282 -281v202h76v-333h-333v76h202z" />
    <glyph glyph-name="arrow.l.xl" horiz-adv-x="783" 
d="M281 114l-236 236l236 236l53 -54l-141 -144h536v-76h-536l141 -144z" />
    <glyph glyph-name="arrow.r.xl" horiz-adv-x="783" 
d="M590 312h-536v76h536l-141 144l53 54l236 -236l-236 -236l-53 54z" />
    <glyph glyph-name="arrow.u.xl" horiz-adv-x="640" 
d="M138 403l-54 53l236 236l236 -236l-54 -53l-144 141v-536h-76v536z" />
    <glyph glyph-name="arrow.d.xl" horiz-adv-x="640" 
d="M320 8l-236 236l54 53l144 -141v536h76v-536l144 141l54 -53z" />
    <glyph glyph-name="arrow.ul.xl" horiz-adv-x="739" 
d="M187 263h-76v333h333v-76h-202l380 -381l-54 -54l-381 380v-202z" />
    <glyph glyph-name="arrow.ur.xl" horiz-adv-x="739" 
d="M171 85l-54 54l380 381h-202v76h333v-333h-76v202z" />
    <glyph glyph-name="arrow.dl.xl" horiz-adv-x="739" 
d="M444 85h-333v333h76v-202l381 380l54 -54l-380 -381h202v-76z" />
    <glyph glyph-name="arrow.dr.xl" horiz-adv-x="739" 
d="M497 161l-380 381l54 54l381 -380v202h76v-333h-333v76h202z" />
    <glyph glyph-name="dcaron.alt" horiz-adv-x="770" 
d="M27 186q0 134 75 230t200 96q47 0 84 -19t55 -49l51 264h85l-138 -708h-85l13 62q-63 -70 -158 -70q-87 0 -134.5 52.5t-47.5 141.5zM116 208q0 -65 30 -102.5t86 -37.5q58 0 102 39.5t63 92t19 106.5q0 64 -32.5 97t-88.5 33q-57 0 -99.5 -37t-61 -87.5t-18.5 -103.5z
M641 459l-15 24q74 46 85 102q-39 19 -39 61q0 27 19 44.5t46 17.5q28 0 46 -17.5t18 -47.5q0 -88 -160 -184z" />
    <glyph glyph-name="uni0123.alt" horiz-adv-x="510" 
d="M-23 -68q0 74 66 127q-21 24 -21 63q0 70 84 113q-22 35 -22 76q0 88 56 144.5t149 56.5q53 0 91 -23l94 48l30 -66l-75 -38q11 -25 11 -64q0 -85 -59 -140t-147 -55q-43 0 -81 20q-47 -18 -47 -55q0 -16 12 -27t33 -11h115q141 0 141 -121q0 -94 -72.5 -143t-177.5 -49
q-78 0 -129 39.5t-51 104.5zM62 -50q0 -38 27 -64t83 -26q59 0 102.5 25t43.5 80q0 64 -77 64h-97q-14 0 -36 2q-46 -24 -46 -81zM168 326q0 -40 21 -60t56 -20q47 0 79 30.5t32 80.5q0 41 -21 62t-56 21q-46 0 -78.5 -32.5t-32.5 -81.5zM254 627q0 50 48 99t112 85l15 -24
q-74 -46 -85 -102q39 -19 39 -61q0 -27 -19 -44.5t-46 -17.5q-28 0 -46 17.5t-18 47.5z" />
    <glyph glyph-name="lcaron.alt" horiz-adv-x="464" 
d="M134 0h-85l137 708h85zM335 459l-15 24q74 46 85 102q-39 19 -39 61q0 27 19 44.5t46 17.5q28 0 46 -17.5t18 -47.5q0 -88 -160 -184z" />
    <glyph glyph-name="napostrophe.alt" horiz-adv-x="677" 
d="M215 0h-85l98 504h85l-18 -93q76 101 182 101q58 0 90 -28.5t32 -81.5q0 -32 -3 -47l-69 -355h-85l64 333q4 16 4 35q0 68 -67 68q-54 0 -111 -63t-76 -162zM47 459l-15 24q74 46 85 102q-39 19 -39 61q0 27 19 44.5t46 17.5q28 0 46 -17.5t18 -47.5q0 -88 -160 -184z
" />
    <glyph glyph-name="tcaron.alt" horiz-adv-x="544" 
d="M116 428h-87l14 76h87l30 151l94 53l-40 -204h127l-14 -76h-127l-52 -268q-5 -18 -5 -36q0 -56 54 -56q32 0 60 16l6 -73q-34 -19 -86 -19q-57 0 -88 30t-31 87q0 14 7 58zM415 459l-15 24q74 46 85 102q-39 19 -39 61q0 27 19 44.5t46 17.5q28 0 46 -17.5t18 -47.5
q0 -88 -160 -184z" />
    </font>
</defs>
</svg>
